M48
;DRILL file {KiCad 4.0.7-e2-6376~58~ubuntu16.04.1} date Tue Jun 12 19:10:35 2018
;FORMAT={-:-/ absolute / inch / decimal}
FMAT,2
INCH,TZ
T1C0.015
T2C0.031
T3C0.035
T4C0.039
%
G90
G05
M72
T1
X3.36Y-3.6
X3.52Y-4.22
X3.6Y-4.01
X3.7Y-3.97
X3.72Y-5.01
X3.86Y-3.87
X3.94Y-4.25
X4.2Y-3.93
X4.58Y-4.47
X4.62Y-4.545
X4.67Y-3.78
X4.68Y-3.87
X4.7Y-4.25
X4.7Y-4.52
X4.75Y-3.57
X4.8Y-4.25
X4.81Y-4.51
X4.84Y-3.82
X4.87Y-4.51
X4.9Y-3.79
X4.94Y-3.91
X4.95Y-3.61
X4.95Y-4.34
X4.96Y-3.83
X4.98Y-4.47
X4.98Y-4.55
X5.1Y-3.79
X5.24Y-4.6
X5.59Y-3.85
X5.67Y-4.56
X5.67Y-5.01
X5.78Y-4.47
X5.88Y-4.52
X5.97Y-4.25
X6.01Y-4.56
X6.09Y-4.52
X6.31Y-4.48
X6.34Y-4.25
X6.36Y-3.72
T2
X3.2Y-4.1
X3.2Y-4.4
X3.3Y-4.1
X3.3Y-4.4
X3.4Y-4.1
X3.4Y-4.4
X3.5Y-4.1
X3.5Y-4.4
X3.6Y-4.1
X3.6Y-4.4
X3.7Y-4.1
X3.7Y-4.4
X3.8Y-4.1
X3.8Y-4.4
X3.9Y-4.1
X3.9Y-4.4
X4.Y-4.1
X4.Y-4.4
X4.1Y-4.1
X4.1Y-4.4
X4.5Y-4.1
X4.5Y-4.4
X4.6Y-4.1
X4.6Y-4.4
X4.7Y-4.1
X4.7Y-4.4
X4.8Y-4.1
X4.8Y-4.4
X4.9Y-4.1
X4.9Y-4.4
X5.Y-4.1
X5.Y-4.4
X5.1Y-4.1
X5.1Y-4.4
X5.2Y-4.1
X5.2Y-4.4
X5.225Y-3.675
X5.225Y-3.7734
X5.55Y-4.1
X5.55Y-4.4
X5.65Y-4.1
X5.65Y-4.4
X5.75Y-4.1
X5.75Y-4.4
X5.85Y-4.1
X5.85Y-4.4
X5.95Y-4.1
X5.95Y-4.4
X6.05Y-4.1
X6.05Y-4.4
X6.15Y-4.1
X6.15Y-4.4
X6.25Y-4.1
X6.25Y-4.4
T3
X4.475Y-4.79
X4.475Y-4.89
X4.75Y-4.79
X4.75Y-4.89
X5.025Y-4.79
X5.025Y-4.89
X5.3Y-4.79
X5.3Y-4.89
X5.575Y-4.79
X5.575Y-4.89
X5.85Y-4.79
X5.85Y-4.89
X6.125Y-4.79
X6.125Y-4.89
X6.4Y-4.79
X6.4Y-4.89
T4
X3.4Y-3.7
X3.4Y-4.84
X3.5Y-3.7
X3.5Y-4.84
X3.6Y-3.7
X3.6Y-4.84
X3.7Y-3.7
X3.7Y-4.84
X3.8Y-3.7
X3.8Y-4.84
X3.9Y-3.7
X3.9Y-4.84
X4.Y-3.7
X4.Y-4.84
X4.1Y-3.7
X4.1Y-4.84
X4.5Y-3.7
X4.6Y-3.7
X4.7Y-3.7
X4.8Y-3.7
X4.9Y-3.7
X5.Y-3.7
T0
M30
