G04 #@! TF.GenerationSoftware,KiCad,Pcbnew,5.0.2-bee76a0~70~ubuntu16.04.1*
G04 #@! TF.CreationDate,2020-01-13T19:01:32-06:00*
G04 #@! TF.ProjectId,GPRegisters,47505265-6769-4737-9465-72732e6b6963,rev?*
G04 #@! TF.SameCoordinates,Original*
G04 #@! TF.FileFunction,Copper,L1,Top*
G04 #@! TF.FilePolarity,Positive*
%FSLAX46Y46*%
G04 Gerber Fmt 4.6, Leading zero omitted, Abs format (unit mm)*
G04 Created by KiCad (PCBNEW 5.0.2-bee76a0~70~ubuntu16.04.1) date lun 13 ene 2020 19:01:32 CST*
%MOMM*%
%LPD*%
G01*
G04 APERTURE LIST*
G04 #@! TA.AperFunction,ComponentPad*
%ADD10C,1.600000*%
G04 #@! TD*
G04 #@! TA.AperFunction,ComponentPad*
%ADD11R,1.800000X1.800000*%
G04 #@! TD*
G04 #@! TA.AperFunction,ComponentPad*
%ADD12C,1.800000*%
G04 #@! TD*
G04 #@! TA.AperFunction,ComponentPad*
%ADD13O,1.700000X1.700000*%
G04 #@! TD*
G04 #@! TA.AperFunction,ComponentPad*
%ADD14R,1.700000X1.700000*%
G04 #@! TD*
G04 #@! TA.AperFunction,ComponentPad*
%ADD15O,1.600000X1.600000*%
G04 #@! TD*
G04 #@! TA.AperFunction,ComponentPad*
%ADD16R,1.600000X1.600000*%
G04 #@! TD*
G04 #@! TA.AperFunction,ViaPad*
%ADD17C,0.800000*%
G04 #@! TD*
G04 #@! TA.AperFunction,Conductor*
%ADD18C,0.500000*%
G04 #@! TD*
G04 #@! TA.AperFunction,Conductor*
%ADD19C,0.250000*%
G04 #@! TD*
G04 #@! TA.AperFunction,Conductor*
%ADD20C,0.254000*%
G04 #@! TD*
G04 APERTURE END LIST*
D10*
G04 #@! TO.P,C1,2*
G04 #@! TO.N,GND*
X135001000Y-57745000D03*
G04 #@! TO.P,C1,1*
G04 #@! TO.N,VCC*
X135001000Y-55245000D03*
G04 #@! TD*
D11*
G04 #@! TO.P,D1,1*
G04 #@! TO.N,GND*
X117856000Y-89535000D03*
D12*
G04 #@! TO.P,D1,2*
G04 #@! TO.N,Net-(D1-Pad2)*
X117856000Y-86995000D03*
G04 #@! TD*
G04 #@! TO.P,D2,2*
G04 #@! TO.N,Net-(D2-Pad2)*
X122682000Y-86995000D03*
D11*
G04 #@! TO.P,D2,1*
G04 #@! TO.N,GND*
X122682000Y-89535000D03*
G04 #@! TD*
G04 #@! TO.P,D3,1*
G04 #@! TO.N,GND*
X127508000Y-89535000D03*
D12*
G04 #@! TO.P,D3,2*
G04 #@! TO.N,Net-(D3-Pad2)*
X127508000Y-86995000D03*
G04 #@! TD*
G04 #@! TO.P,D4,2*
G04 #@! TO.N,Net-(D4-Pad2)*
X132334000Y-86995000D03*
D11*
G04 #@! TO.P,D4,1*
G04 #@! TO.N,GND*
X132334000Y-89535000D03*
G04 #@! TD*
G04 #@! TO.P,D5,1*
G04 #@! TO.N,GND*
X137160000Y-89535000D03*
D12*
G04 #@! TO.P,D5,2*
G04 #@! TO.N,Net-(D5-Pad2)*
X137160000Y-86995000D03*
G04 #@! TD*
G04 #@! TO.P,D6,2*
G04 #@! TO.N,Net-(D6-Pad2)*
X141986000Y-86995000D03*
D11*
G04 #@! TO.P,D6,1*
G04 #@! TO.N,GND*
X141986000Y-89535000D03*
G04 #@! TD*
G04 #@! TO.P,D7,1*
G04 #@! TO.N,GND*
X146812000Y-89535000D03*
D12*
G04 #@! TO.P,D7,2*
G04 #@! TO.N,Net-(D7-Pad2)*
X146812000Y-86995000D03*
G04 #@! TD*
G04 #@! TO.P,D8,2*
G04 #@! TO.N,Net-(D8-Pad2)*
X151638000Y-86995000D03*
D11*
G04 #@! TO.P,D8,1*
G04 #@! TO.N,GND*
X151638000Y-89535000D03*
G04 #@! TD*
D13*
G04 #@! TO.P,J1,8*
G04 #@! TO.N,/D0*
X106045000Y-55245000D03*
G04 #@! TO.P,J1,7*
G04 #@! TO.N,/D1*
X103505000Y-55245000D03*
G04 #@! TO.P,J1,6*
G04 #@! TO.N,/D2*
X100965000Y-55245000D03*
G04 #@! TO.P,J1,5*
G04 #@! TO.N,/D3*
X98425000Y-55245000D03*
G04 #@! TO.P,J1,4*
G04 #@! TO.N,/D4*
X95885000Y-55245000D03*
G04 #@! TO.P,J1,3*
G04 #@! TO.N,/D5*
X93345000Y-55245000D03*
G04 #@! TO.P,J1,2*
G04 #@! TO.N,/D6*
X90805000Y-55245000D03*
D14*
G04 #@! TO.P,J1,1*
G04 #@! TO.N,/D7*
X88265000Y-55245000D03*
G04 #@! TD*
D13*
G04 #@! TO.P,J2,6*
G04 #@! TO.N,/~EN*
X153797000Y-55245000D03*
G04 #@! TO.P,J2,5*
G04 #@! TO.N,/CLR*
X151257000Y-55245000D03*
G04 #@! TO.P,J2,4*
G04 #@! TO.N,/~LOAD*
X148717000Y-55245000D03*
G04 #@! TO.P,J2,3*
G04 #@! TO.N,/CLK*
X146177000Y-55245000D03*
G04 #@! TO.P,J2,2*
G04 #@! TO.N,GND*
X143637000Y-55245000D03*
D14*
G04 #@! TO.P,J2,1*
G04 #@! TO.N,VCC*
X141097000Y-55245000D03*
G04 #@! TD*
G04 #@! TO.P,J3,1*
G04 #@! TO.N,/Q7*
X88265000Y-88900000D03*
D13*
G04 #@! TO.P,J3,2*
G04 #@! TO.N,/Q6*
X90805000Y-88900000D03*
G04 #@! TO.P,J3,3*
G04 #@! TO.N,/Q5*
X93345000Y-88900000D03*
G04 #@! TO.P,J3,4*
G04 #@! TO.N,/Q4*
X95885000Y-88900000D03*
G04 #@! TO.P,J3,5*
G04 #@! TO.N,/Q3*
X98425000Y-88900000D03*
G04 #@! TO.P,J3,6*
G04 #@! TO.N,/Q2*
X100965000Y-88900000D03*
G04 #@! TO.P,J3,7*
G04 #@! TO.N,/Q1*
X103505000Y-88900000D03*
G04 #@! TO.P,J3,8*
G04 #@! TO.N,/Q0*
X106045000Y-88900000D03*
G04 #@! TD*
D10*
G04 #@! TO.P,R1,1*
G04 #@! TO.N,/Q7*
X117856000Y-76708000D03*
D15*
G04 #@! TO.P,R1,2*
G04 #@! TO.N,Net-(D1-Pad2)*
X117856000Y-84328000D03*
G04 #@! TD*
G04 #@! TO.P,R2,2*
G04 #@! TO.N,Net-(D2-Pad2)*
X122682000Y-84328000D03*
D10*
G04 #@! TO.P,R2,1*
G04 #@! TO.N,/Q6*
X122682000Y-76708000D03*
G04 #@! TD*
G04 #@! TO.P,R3,1*
G04 #@! TO.N,/Q5*
X127508000Y-76708000D03*
D15*
G04 #@! TO.P,R3,2*
G04 #@! TO.N,Net-(D3-Pad2)*
X127508000Y-84328000D03*
G04 #@! TD*
G04 #@! TO.P,R4,2*
G04 #@! TO.N,Net-(D4-Pad2)*
X132334000Y-84328000D03*
D10*
G04 #@! TO.P,R4,1*
G04 #@! TO.N,/Q4*
X132334000Y-76708000D03*
G04 #@! TD*
D15*
G04 #@! TO.P,R5,2*
G04 #@! TO.N,Net-(D5-Pad2)*
X137160000Y-84328000D03*
D10*
G04 #@! TO.P,R5,1*
G04 #@! TO.N,/Q3*
X137160000Y-76708000D03*
G04 #@! TD*
G04 #@! TO.P,R6,1*
G04 #@! TO.N,/Q2*
X141986000Y-76708000D03*
D15*
G04 #@! TO.P,R6,2*
G04 #@! TO.N,Net-(D6-Pad2)*
X141986000Y-84328000D03*
G04 #@! TD*
G04 #@! TO.P,R7,2*
G04 #@! TO.N,Net-(D7-Pad2)*
X146812000Y-84328000D03*
D10*
G04 #@! TO.P,R7,1*
G04 #@! TO.N,/Q1*
X146812000Y-76708000D03*
G04 #@! TD*
G04 #@! TO.P,R8,1*
G04 #@! TO.N,/Q0*
X151638000Y-76708000D03*
D15*
G04 #@! TO.P,R8,2*
G04 #@! TO.N,Net-(D8-Pad2)*
X151638000Y-84328000D03*
G04 #@! TD*
G04 #@! TO.P,U1,16*
G04 #@! TO.N,VCC*
X137922000Y-63373000D03*
G04 #@! TO.P,U1,8*
G04 #@! TO.N,GND*
X155702000Y-70993000D03*
G04 #@! TO.P,U1,15*
G04 #@! TO.N,/~LOAD*
X140462000Y-63373000D03*
G04 #@! TO.P,U1,7*
G04 #@! TO.N,/CLK*
X153162000Y-70993000D03*
G04 #@! TO.P,U1,14*
G04 #@! TO.N,/D4*
X143002000Y-63373000D03*
G04 #@! TO.P,U1,6*
G04 #@! TO.N,/Q7*
X150622000Y-70993000D03*
G04 #@! TO.P,U1,13*
G04 #@! TO.N,/D5*
X145542000Y-63373000D03*
G04 #@! TO.P,U1,5*
G04 #@! TO.N,/Q6*
X148082000Y-70993000D03*
G04 #@! TO.P,U1,12*
G04 #@! TO.N,/D6*
X148082000Y-63373000D03*
G04 #@! TO.P,U1,4*
G04 #@! TO.N,/Q5*
X145542000Y-70993000D03*
G04 #@! TO.P,U1,11*
G04 #@! TO.N,/D7*
X150622000Y-63373000D03*
G04 #@! TO.P,U1,3*
G04 #@! TO.N,/Q4*
X143002000Y-70993000D03*
G04 #@! TO.P,U1,10*
G04 #@! TO.N,/CLR*
X153162000Y-63373000D03*
G04 #@! TO.P,U1,2*
G04 #@! TO.N,GND*
X140462000Y-70993000D03*
G04 #@! TO.P,U1,9*
G04 #@! TO.N,/CLR*
X155702000Y-63373000D03*
D16*
G04 #@! TO.P,U1,1*
G04 #@! TO.N,GND*
X137922000Y-70993000D03*
G04 #@! TD*
D15*
G04 #@! TO.P,U2,16*
G04 #@! TO.N,VCC*
X113411000Y-63373000D03*
G04 #@! TO.P,U2,8*
G04 #@! TO.N,GND*
X131191000Y-70993000D03*
G04 #@! TO.P,U2,15*
G04 #@! TO.N,/~LOAD*
X115951000Y-63373000D03*
G04 #@! TO.P,U2,7*
G04 #@! TO.N,/CLK*
X128651000Y-70993000D03*
G04 #@! TO.P,U2,14*
G04 #@! TO.N,/D0*
X118491000Y-63373000D03*
G04 #@! TO.P,U2,6*
G04 #@! TO.N,/Q3*
X126111000Y-70993000D03*
G04 #@! TO.P,U2,13*
G04 #@! TO.N,/D1*
X121031000Y-63373000D03*
G04 #@! TO.P,U2,5*
G04 #@! TO.N,/Q2*
X123571000Y-70993000D03*
G04 #@! TO.P,U2,12*
G04 #@! TO.N,/D2*
X123571000Y-63373000D03*
G04 #@! TO.P,U2,4*
G04 #@! TO.N,/Q1*
X121031000Y-70993000D03*
G04 #@! TO.P,U2,11*
G04 #@! TO.N,/D3*
X126111000Y-63373000D03*
G04 #@! TO.P,U2,3*
G04 #@! TO.N,/Q0*
X118491000Y-70993000D03*
G04 #@! TO.P,U2,10*
G04 #@! TO.N,/CLR*
X128651000Y-63373000D03*
G04 #@! TO.P,U2,2*
G04 #@! TO.N,GND*
X115951000Y-70993000D03*
G04 #@! TO.P,U2,9*
G04 #@! TO.N,/CLR*
X131191000Y-63373000D03*
D16*
G04 #@! TO.P,U2,1*
G04 #@! TO.N,GND*
X113411000Y-70993000D03*
G04 #@! TD*
D15*
G04 #@! TO.P,U3,20*
G04 #@! TO.N,VCC*
X83947000Y-63373000D03*
G04 #@! TO.P,U3,10*
G04 #@! TO.N,GND*
X106807000Y-70993000D03*
G04 #@! TO.P,U3,19*
G04 #@! TO.N,/~EN*
X86487000Y-63373000D03*
G04 #@! TO.P,U3,9*
G04 #@! TO.N,/Q7*
X104267000Y-70993000D03*
G04 #@! TO.P,U3,18*
G04 #@! TO.N,/D0*
X89027000Y-63373000D03*
G04 #@! TO.P,U3,8*
G04 #@! TO.N,/Q6*
X101727000Y-70993000D03*
G04 #@! TO.P,U3,17*
G04 #@! TO.N,/D1*
X91567000Y-63373000D03*
G04 #@! TO.P,U3,7*
G04 #@! TO.N,/Q5*
X99187000Y-70993000D03*
G04 #@! TO.P,U3,16*
G04 #@! TO.N,/D2*
X94107000Y-63373000D03*
G04 #@! TO.P,U3,6*
G04 #@! TO.N,/Q4*
X96647000Y-70993000D03*
G04 #@! TO.P,U3,15*
G04 #@! TO.N,/D3*
X96647000Y-63373000D03*
G04 #@! TO.P,U3,5*
G04 #@! TO.N,/Q3*
X94107000Y-70993000D03*
G04 #@! TO.P,U3,14*
G04 #@! TO.N,/D4*
X99187000Y-63373000D03*
G04 #@! TO.P,U3,4*
G04 #@! TO.N,/Q2*
X91567000Y-70993000D03*
G04 #@! TO.P,U3,13*
G04 #@! TO.N,/D5*
X101727000Y-63373000D03*
G04 #@! TO.P,U3,3*
G04 #@! TO.N,/Q1*
X89027000Y-70993000D03*
G04 #@! TO.P,U3,12*
G04 #@! TO.N,/D6*
X104267000Y-63373000D03*
G04 #@! TO.P,U3,2*
G04 #@! TO.N,/Q0*
X86487000Y-70993000D03*
G04 #@! TO.P,U3,11*
G04 #@! TO.N,/D7*
X106807000Y-63373000D03*
D16*
G04 #@! TO.P,U3,1*
G04 #@! TO.N,VCC*
X83947000Y-70993000D03*
G04 #@! TD*
D17*
G04 #@! TO.N,/D4*
X141732000Y-67945000D03*
G04 #@! TO.N,/D5*
X144145000Y-67183000D03*
X93345000Y-58420000D03*
G04 #@! TO.N,/D6*
X106183630Y-66421000D03*
X147193000Y-66421000D03*
G04 #@! TO.N,/Q6*
X107569000Y-73406000D03*
G04 #@! TO.N,/Q5*
X104902000Y-74295000D03*
X109982000Y-74295000D03*
G04 #@! TO.N,/Q4*
X105029000Y-75438000D03*
X112649000Y-74078000D03*
G04 #@! TO.N,/Q2*
X135382000Y-72263000D03*
G04 #@! TO.N,/Q1*
X139827000Y-73025000D03*
G04 #@! TO.N,/Q0*
X145669000Y-73787000D03*
G04 #@! TD*
D18*
G04 #@! TO.N,VCC*
X139747000Y-55245000D02*
X135001000Y-55245000D01*
X141097000Y-55245000D02*
X139747000Y-55245000D01*
X83947000Y-70993000D02*
X83947000Y-63373000D01*
X141097000Y-60198000D02*
X141097000Y-55245000D01*
X137922000Y-63373000D02*
X141097000Y-60198000D01*
D19*
G04 #@! TO.N,Net-(D1-Pad2)*
X117856000Y-86995000D02*
X117856000Y-84328000D01*
G04 #@! TO.N,Net-(D2-Pad2)*
X122682000Y-85722208D02*
X122682000Y-84328000D01*
X122682000Y-86995000D02*
X122682000Y-85722208D01*
G04 #@! TO.N,Net-(D3-Pad2)*
X127508000Y-85722208D02*
X127508000Y-84328000D01*
X127508000Y-86995000D02*
X127508000Y-85722208D01*
G04 #@! TO.N,Net-(D4-Pad2)*
X132334000Y-85722208D02*
X132334000Y-84328000D01*
X132334000Y-86995000D02*
X132334000Y-85722208D01*
G04 #@! TO.N,Net-(D5-Pad2)*
X137160000Y-85722208D02*
X137160000Y-84328000D01*
X137160000Y-86995000D02*
X137160000Y-85722208D01*
G04 #@! TO.N,Net-(D6-Pad2)*
X141986000Y-86995000D02*
X141986000Y-84328000D01*
G04 #@! TO.N,Net-(D7-Pad2)*
X146812000Y-85722208D02*
X146812000Y-84328000D01*
X146812000Y-86995000D02*
X146812000Y-85722208D01*
G04 #@! TO.N,Net-(D8-Pad2)*
X151638000Y-85459370D02*
X151638000Y-86995000D01*
X151638000Y-84328000D02*
X151638000Y-85459370D01*
G04 #@! TO.N,/D0*
X86927400Y-51758010D02*
X102558010Y-51758010D01*
X102558010Y-51758010D02*
X106045000Y-55245000D01*
X85032010Y-53653400D02*
X86927400Y-51758010D01*
X85032010Y-56201600D02*
X85032010Y-53653400D01*
X89027000Y-63373000D02*
X89027000Y-62241630D01*
X86937009Y-58106599D02*
X85032010Y-56201600D01*
X87757000Y-60960000D02*
X86937010Y-60140010D01*
X89027000Y-62241630D02*
X87757000Y-60971630D01*
X86937010Y-60140010D02*
X86937009Y-58106599D01*
X87757000Y-60971630D02*
X87757000Y-60960000D01*
X118491000Y-63373000D02*
X118491000Y-62241630D01*
X118491000Y-62241630D02*
X118098370Y-61849000D01*
X118098370Y-61849000D02*
X114301410Y-61849000D01*
X114301410Y-61849000D02*
X107950000Y-55497590D01*
X107950000Y-55497590D02*
X107948590Y-55497590D01*
X107696000Y-55245000D02*
X106045000Y-55245000D01*
X107948590Y-55497590D02*
X107696000Y-55245000D01*
G04 #@! TO.N,/D1*
X100468020Y-52208020D02*
X103505000Y-55245000D01*
X87113800Y-52208020D02*
X100468020Y-52208020D01*
X85482020Y-53839800D02*
X87113800Y-52208020D01*
X91567000Y-63373000D02*
X87387018Y-59193018D01*
X87387018Y-59193018D02*
X87387018Y-57920198D01*
X87387018Y-57920198D02*
X85482020Y-56015200D01*
X85482020Y-56015200D02*
X85482020Y-53839800D01*
X119507000Y-64897000D02*
X121031000Y-63373000D01*
X112776000Y-64897000D02*
X119507000Y-64897000D01*
X111633000Y-63754000D02*
X112776000Y-64897000D01*
X103505000Y-55245000D02*
X105029000Y-56769000D01*
X111633000Y-59817000D02*
X111633000Y-63754000D01*
X105029000Y-56769000D02*
X108585000Y-56769000D01*
X108585000Y-56769000D02*
X111633000Y-59817000D01*
G04 #@! TO.N,/D2*
X98425000Y-52705000D02*
X100965000Y-55245000D01*
X87347170Y-52705000D02*
X98425000Y-52705000D01*
X86204170Y-53848000D02*
X87347170Y-52705000D01*
X86072940Y-53979230D02*
X86204170Y-53848000D01*
X88472028Y-57738028D02*
X94107000Y-63373000D01*
X87837028Y-57738028D02*
X88472028Y-57738028D01*
X86204170Y-53848000D02*
X85979000Y-54073170D01*
X85979000Y-54073170D02*
X85979000Y-55875770D01*
X87837028Y-57733798D02*
X87837028Y-57738028D01*
X85979000Y-55875770D02*
X87837028Y-57733798D01*
X112647590Y-65405000D02*
X121539000Y-65405000D01*
X111125000Y-63882410D02*
X112647590Y-65405000D01*
X121539000Y-65405000D02*
X123571000Y-63373000D01*
X100965000Y-55245000D02*
X103124000Y-57404000D01*
X111125000Y-60325000D02*
X111125000Y-63882410D01*
X103124000Y-57404000D02*
X108204000Y-57404000D01*
X108204000Y-57404000D02*
X111125000Y-60325000D01*
G04 #@! TO.N,/D3*
X98425000Y-54042919D02*
X97537091Y-53155010D01*
X98425000Y-55245000D02*
X98425000Y-54042919D01*
X97537091Y-53155010D02*
X87533570Y-53155010D01*
X87533570Y-53155010D02*
X86429010Y-54259570D01*
X86429010Y-54259570D02*
X86429010Y-55689370D01*
X90562018Y-57288018D02*
X95847001Y-62573001D01*
X95847001Y-62573001D02*
X96647000Y-63373000D01*
X88027658Y-57288018D02*
X90562018Y-57288018D01*
X86429010Y-55689370D02*
X88027658Y-57288018D01*
X123628990Y-65855010D02*
X126111000Y-63373000D01*
X110617000Y-64010820D02*
X112461190Y-65855010D01*
X112461190Y-65855010D02*
X123628990Y-65855010D01*
X98425000Y-55245000D02*
X101346000Y-58166000D01*
X101346000Y-58166000D02*
X107696000Y-58166000D01*
X107696000Y-58166000D02*
X110617000Y-61087000D01*
X110617000Y-61087000D02*
X110617000Y-64010820D01*
G04 #@! TO.N,/D4*
X143002000Y-63373000D02*
X143002000Y-64504370D01*
X143002000Y-64504370D02*
X143002000Y-66675000D01*
X143002000Y-66675000D02*
X141732000Y-67945000D01*
G04 #@! TO.N,/D5*
X144145000Y-67183000D02*
X144145000Y-67183000D01*
X93345000Y-58985685D02*
X96081315Y-61722000D01*
X93345000Y-58420000D02*
X93345000Y-58985685D01*
X100076000Y-61722000D02*
X101727000Y-63373000D01*
X96081315Y-61722000D02*
X100076000Y-61722000D01*
X145542000Y-64498001D02*
X145542000Y-63373000D01*
X145542000Y-65786000D02*
X145542000Y-64498001D01*
X144145000Y-67183000D02*
X145542000Y-65786000D01*
G04 #@! TO.N,/D6*
X104267000Y-63373000D02*
X103886000Y-63373000D01*
X92075000Y-56515000D02*
X90805000Y-55245000D01*
X104267000Y-63373000D02*
X101219000Y-60325000D01*
X93345000Y-56515000D02*
X92075000Y-56515000D01*
X101219000Y-60325000D02*
X97155000Y-60325000D01*
X97155000Y-60325000D02*
X93345000Y-56515000D01*
X148082000Y-63373000D02*
X148082000Y-64504370D01*
X148082000Y-64504370D02*
X148082000Y-65532000D01*
X148082000Y-65532000D02*
X147193000Y-66421000D01*
X104267000Y-64504370D02*
X106183630Y-66421000D01*
X104267000Y-63373000D02*
X104267000Y-64504370D01*
X106183630Y-66421000D02*
X106183630Y-66421000D01*
X147193000Y-66421000D02*
X147193000Y-66421000D01*
G04 #@! TO.N,/D7*
X88265000Y-55245000D02*
X88265000Y-54145000D01*
X88265000Y-54145000D02*
X88435000Y-53975000D01*
X96139000Y-53975000D02*
X96354002Y-53975000D01*
X88435000Y-53975000D02*
X96139000Y-53975000D01*
X105681999Y-62247999D02*
X106807000Y-63373000D01*
X98425000Y-59563000D02*
X102616000Y-59563000D01*
X96449001Y-53975000D02*
X97155000Y-54680999D01*
X97155000Y-54680999D02*
X97155000Y-58293000D01*
X96139000Y-53975000D02*
X96449001Y-53975000D01*
X97155000Y-58293000D02*
X98425000Y-59563000D01*
X105681999Y-62247999D02*
X103759000Y-60325000D01*
X102616000Y-59563000D02*
X102997000Y-59563000D01*
X103759000Y-60325000D02*
X102997000Y-59563000D01*
G04 #@! TO.N,/~EN*
X86487000Y-63373000D02*
X86487000Y-58293000D01*
X86487000Y-58293000D02*
X84582000Y-56388000D01*
X84582000Y-53467000D02*
X86741000Y-51308000D01*
X149860000Y-51308000D02*
X153797000Y-55245000D01*
X86741000Y-51308000D02*
X149860000Y-51308000D01*
X84582000Y-56388000D02*
X84582000Y-53467000D01*
G04 #@! TO.N,/CLR*
X154570630Y-63373000D02*
X153162000Y-63373000D01*
X155702000Y-63373000D02*
X154570630Y-63373000D01*
X151257000Y-58928000D02*
X151257000Y-55245000D01*
X153162000Y-60833000D02*
X151257000Y-58928000D01*
X153162000Y-63373000D02*
X153162000Y-60833000D01*
X128651000Y-63373000D02*
X131191000Y-63373000D01*
X131191000Y-55372000D02*
X131191000Y-63373000D01*
X151257000Y-55245000D02*
X151257000Y-53721000D01*
X133604000Y-52959000D02*
X131191000Y-55372000D01*
X151257000Y-53721000D02*
X150495000Y-52959000D01*
X150495000Y-52959000D02*
X133604000Y-52959000D01*
G04 #@! TO.N,/~LOAD*
X148590000Y-55245000D02*
X148717000Y-55245000D01*
X140462000Y-63373000D02*
X148590000Y-55245000D01*
G04 #@! TO.N,/CLK*
X144907000Y-53975000D02*
X146177000Y-55245000D01*
X134112000Y-53975000D02*
X144907000Y-53975000D01*
X130175000Y-69469000D02*
X132207000Y-69469000D01*
X128651000Y-70993000D02*
X130175000Y-69469000D01*
X132207000Y-69469000D02*
X132842000Y-68834000D01*
X132842000Y-55245000D02*
X134112000Y-53975000D01*
X132842000Y-68834000D02*
X132842000Y-55245000D01*
G04 #@! TO.N,/Q7*
X117856000Y-78613000D02*
X117856000Y-76708000D01*
X116782010Y-79686990D02*
X117856000Y-78613000D01*
X115131010Y-79686990D02*
X116782010Y-79686990D01*
X111633000Y-83185000D02*
X115131010Y-79686990D01*
X88265000Y-88900000D02*
X92779010Y-84385990D01*
X92779010Y-84385990D02*
X111194010Y-84385990D01*
X111633000Y-83947000D02*
X111633000Y-83185000D01*
X111194010Y-84385990D02*
X111633000Y-83947000D01*
X108850630Y-76708000D02*
X116724630Y-76708000D01*
X116724630Y-76708000D02*
X117856000Y-76708000D01*
X104267000Y-72124370D02*
X108850630Y-76708000D01*
X104267000Y-70993000D02*
X104267000Y-72124370D01*
G04 #@! TO.N,/Q6*
X122682000Y-79756000D02*
X122682000Y-77839370D01*
X122301000Y-80137000D02*
X122682000Y-79756000D01*
X112141000Y-83439000D02*
X115443000Y-80137000D01*
X122682000Y-77839370D02*
X122682000Y-76708000D01*
X115443000Y-80137000D02*
X122301000Y-80137000D01*
X90805000Y-88900000D02*
X94869000Y-84836000D01*
X111760000Y-84836000D02*
X112141000Y-84455000D01*
X94869000Y-84836000D02*
X111760000Y-84836000D01*
X112141000Y-84455000D02*
X112141000Y-83439000D01*
X121285000Y-75311000D02*
X122682000Y-76708000D01*
X109474000Y-75311000D02*
X121285000Y-75311000D01*
X107569000Y-73406000D02*
X109474000Y-75311000D01*
G04 #@! TO.N,/Q5*
X112395000Y-85344000D02*
X96901000Y-85344000D01*
X112649000Y-85090000D02*
X112395000Y-85344000D01*
X112649000Y-83691590D02*
X112649000Y-85090000D01*
X127508000Y-76708000D02*
X127508000Y-79883000D01*
X96901000Y-85344000D02*
X93345000Y-88900000D01*
X115695590Y-80645000D02*
X112649000Y-83691590D01*
X127508000Y-79883000D02*
X126746000Y-80645000D01*
X126746000Y-80645000D02*
X115695590Y-80645000D01*
X99187000Y-72124370D02*
X101357630Y-74295000D01*
X99187000Y-70993000D02*
X99187000Y-72124370D01*
X101357630Y-74295000D02*
X104902000Y-74295000D01*
X110547685Y-74295000D02*
X111055685Y-74803000D01*
X109982000Y-74295000D02*
X110547685Y-74295000D01*
X126382999Y-75582999D02*
X126708001Y-75908001D01*
X122193409Y-75582999D02*
X126382999Y-75582999D01*
X126708001Y-75908001D02*
X127508000Y-76708000D01*
X121413410Y-74803000D02*
X122193409Y-75582999D01*
X111055685Y-74803000D02*
X121413410Y-74803000D01*
G04 #@! TO.N,/Q4*
X113157000Y-85471000D02*
X112718010Y-85909990D01*
X113157000Y-83820000D02*
X113157000Y-85471000D01*
X98875010Y-85909990D02*
X95885000Y-88900000D01*
X115824000Y-81153000D02*
X113157000Y-83820000D01*
X132334000Y-80899000D02*
X132080000Y-81153000D01*
X112718010Y-85909990D02*
X98875010Y-85909990D01*
X132334000Y-76708000D02*
X132334000Y-80899000D01*
X132080000Y-81153000D02*
X115824000Y-81153000D01*
X96647000Y-72124370D02*
X99960630Y-75438000D01*
X96647000Y-70993000D02*
X96647000Y-72124370D01*
X99960630Y-75438000D02*
X105029000Y-75438000D01*
X129704000Y-74078000D02*
X132334000Y-76708000D01*
X112649000Y-74078000D02*
X129704000Y-74078000D01*
G04 #@! TO.N,/Q3*
X100965000Y-86360000D02*
X98425000Y-88900000D01*
X113030000Y-86360000D02*
X100965000Y-86360000D01*
X113665000Y-85725000D02*
X113030000Y-86360000D01*
X137160000Y-76708000D02*
X137160000Y-80772000D01*
X113665000Y-84072590D02*
X113665000Y-85725000D01*
X116076590Y-81661000D02*
X113665000Y-84072590D01*
X137160000Y-80772000D02*
X136271000Y-81661000D01*
X136271000Y-81661000D02*
X116076590Y-81661000D01*
X94107000Y-70993000D02*
X94107000Y-72124370D01*
X94107000Y-72124370D02*
X94107000Y-80391000D01*
X97028000Y-90297000D02*
X98425000Y-88900000D01*
X94107000Y-80391000D02*
X86106000Y-88392000D01*
X86106000Y-88392000D02*
X86106000Y-89535000D01*
X86106000Y-89535000D02*
X86868000Y-90297000D01*
X86868000Y-90297000D02*
X97028000Y-90297000D01*
X131572000Y-75184000D02*
X135636000Y-75184000D01*
X126111000Y-70993000D02*
X126111000Y-72124370D01*
X126111000Y-72124370D02*
X127519630Y-73533000D01*
X127519630Y-73533000D02*
X129921000Y-73533000D01*
X135636000Y-75184000D02*
X137160000Y-76708000D01*
X129921000Y-73533000D02*
X131572000Y-75184000D01*
G04 #@! TO.N,/Q2*
X141986000Y-81534000D02*
X141986000Y-76708000D01*
X141351000Y-82169000D02*
X141986000Y-81534000D01*
X100965000Y-88900000D02*
X102997000Y-86868000D01*
X114173000Y-84201000D02*
X116205000Y-82169000D01*
X102997000Y-86868000D02*
X113284000Y-86868000D01*
X116205000Y-82169000D02*
X141351000Y-82169000D01*
X113284000Y-86868000D02*
X114173000Y-85979000D01*
X114173000Y-85979000D02*
X114173000Y-84201000D01*
X99060000Y-90805000D02*
X100965000Y-88900000D01*
X86739590Y-90805000D02*
X99060000Y-90805000D01*
X91567000Y-70993000D02*
X91567000Y-80391000D01*
X85598000Y-89663410D02*
X86739590Y-90805000D01*
X91567000Y-80391000D02*
X85598000Y-86360000D01*
X85598000Y-86360000D02*
X85598000Y-89663410D01*
X137541000Y-72263000D02*
X135382000Y-72263000D01*
X141986000Y-76708000D02*
X137541000Y-72263000D01*
G04 #@! TO.N,/Q1*
X103505000Y-88900000D02*
X105029000Y-87376000D01*
X105029000Y-87376000D02*
X113665000Y-87376000D01*
X113665000Y-87376000D02*
X114681000Y-86360000D01*
X114681000Y-84453590D02*
X116330590Y-82804000D01*
X114681000Y-86360000D02*
X114681000Y-84453590D01*
X116330590Y-82804000D02*
X116332000Y-82804000D01*
X116332000Y-82804000D02*
X116459000Y-82677000D01*
X116459000Y-82677000D02*
X145288000Y-82677000D01*
X146812000Y-81153000D02*
X146812000Y-76708000D01*
X145288000Y-82677000D02*
X146812000Y-81153000D01*
X101149991Y-91255009D02*
X103505000Y-88900000D01*
X86553189Y-91255009D02*
X101149991Y-91255009D01*
X89027000Y-70993000D02*
X89027000Y-80264000D01*
X89027000Y-80264000D02*
X85090000Y-84201000D01*
X85090000Y-84201000D02*
X85090000Y-89791820D01*
X85090000Y-89791820D02*
X86553189Y-91255009D01*
X143129000Y-73025000D02*
X146812000Y-76708000D01*
X139827000Y-73025000D02*
X143129000Y-73025000D01*
G04 #@! TO.N,/Q0*
X107118990Y-87826010D02*
X113851401Y-87826009D01*
X106045000Y-88900000D02*
X107118990Y-87826010D01*
X115131010Y-86546400D02*
X115062000Y-86615410D01*
X116568001Y-83202999D02*
X115131010Y-84639990D01*
X115131010Y-84639990D02*
X115131010Y-86546400D01*
X150477001Y-83202999D02*
X116568001Y-83202999D01*
X151638000Y-82042000D02*
X150477001Y-83202999D01*
X151638000Y-76708000D02*
X151638000Y-82042000D01*
X113851401Y-87826009D02*
X115131010Y-86546400D01*
X84582000Y-89920230D02*
X86366789Y-91705019D01*
X86366789Y-91705019D02*
X103239981Y-91705019D01*
X84582000Y-82931000D02*
X84582000Y-89920230D01*
X103239981Y-91705019D02*
X106045000Y-88900000D01*
X84582000Y-82169000D02*
X84582000Y-82931000D01*
X86487000Y-80264000D02*
X84582000Y-82169000D01*
X86487000Y-70993000D02*
X86487000Y-80264000D01*
X151638000Y-75576630D02*
X149848370Y-73787000D01*
X151638000Y-76708000D02*
X151638000Y-75576630D01*
X149848370Y-73787000D02*
X145669000Y-73787000D01*
G04 #@! TD*
D20*
G04 #@! TO.N,GND*
G36*
X156917698Y-49794958D02*
X157342893Y-49963305D01*
X157712858Y-50232101D01*
X158004356Y-50584462D01*
X158199067Y-50998244D01*
X158291093Y-51480662D01*
X158294001Y-51573195D01*
X158294000Y-90379333D01*
X158231042Y-90877699D01*
X158062697Y-91302889D01*
X157793899Y-91672859D01*
X157441541Y-91964355D01*
X157027756Y-92159067D01*
X156545339Y-92251093D01*
X156452836Y-92254000D01*
X103786336Y-92254000D01*
X103787910Y-92252948D01*
X103830312Y-92189489D01*
X105678592Y-90341209D01*
X105898744Y-90385000D01*
X106191256Y-90385000D01*
X106624418Y-90298839D01*
X107115625Y-89970625D01*
X107215768Y-89820750D01*
X116321000Y-89820750D01*
X116321000Y-90561309D01*
X116417673Y-90794698D01*
X116596301Y-90973327D01*
X116829690Y-91070000D01*
X117570250Y-91070000D01*
X117729000Y-90911250D01*
X117729000Y-89662000D01*
X117983000Y-89662000D01*
X117983000Y-90911250D01*
X118141750Y-91070000D01*
X118882310Y-91070000D01*
X119115699Y-90973327D01*
X119294327Y-90794698D01*
X119391000Y-90561309D01*
X119391000Y-89820750D01*
X121147000Y-89820750D01*
X121147000Y-90561309D01*
X121243673Y-90794698D01*
X121422301Y-90973327D01*
X121655690Y-91070000D01*
X122396250Y-91070000D01*
X122555000Y-90911250D01*
X122555000Y-89662000D01*
X122809000Y-89662000D01*
X122809000Y-90911250D01*
X122967750Y-91070000D01*
X123708310Y-91070000D01*
X123941699Y-90973327D01*
X124120327Y-90794698D01*
X124217000Y-90561309D01*
X124217000Y-89820750D01*
X125973000Y-89820750D01*
X125973000Y-90561309D01*
X126069673Y-90794698D01*
X126248301Y-90973327D01*
X126481690Y-91070000D01*
X127222250Y-91070000D01*
X127381000Y-90911250D01*
X127381000Y-89662000D01*
X127635000Y-89662000D01*
X127635000Y-90911250D01*
X127793750Y-91070000D01*
X128534310Y-91070000D01*
X128767699Y-90973327D01*
X128946327Y-90794698D01*
X129043000Y-90561309D01*
X129043000Y-89820750D01*
X130799000Y-89820750D01*
X130799000Y-90561309D01*
X130895673Y-90794698D01*
X131074301Y-90973327D01*
X131307690Y-91070000D01*
X132048250Y-91070000D01*
X132207000Y-90911250D01*
X132207000Y-89662000D01*
X132461000Y-89662000D01*
X132461000Y-90911250D01*
X132619750Y-91070000D01*
X133360310Y-91070000D01*
X133593699Y-90973327D01*
X133772327Y-90794698D01*
X133869000Y-90561309D01*
X133869000Y-89820750D01*
X135625000Y-89820750D01*
X135625000Y-90561309D01*
X135721673Y-90794698D01*
X135900301Y-90973327D01*
X136133690Y-91070000D01*
X136874250Y-91070000D01*
X137033000Y-90911250D01*
X137033000Y-89662000D01*
X137287000Y-89662000D01*
X137287000Y-90911250D01*
X137445750Y-91070000D01*
X138186310Y-91070000D01*
X138419699Y-90973327D01*
X138598327Y-90794698D01*
X138695000Y-90561309D01*
X138695000Y-89820750D01*
X140451000Y-89820750D01*
X140451000Y-90561309D01*
X140547673Y-90794698D01*
X140726301Y-90973327D01*
X140959690Y-91070000D01*
X141700250Y-91070000D01*
X141859000Y-90911250D01*
X141859000Y-89662000D01*
X142113000Y-89662000D01*
X142113000Y-90911250D01*
X142271750Y-91070000D01*
X143012310Y-91070000D01*
X143245699Y-90973327D01*
X143424327Y-90794698D01*
X143521000Y-90561309D01*
X143521000Y-89820750D01*
X145277000Y-89820750D01*
X145277000Y-90561309D01*
X145373673Y-90794698D01*
X145552301Y-90973327D01*
X145785690Y-91070000D01*
X146526250Y-91070000D01*
X146685000Y-90911250D01*
X146685000Y-89662000D01*
X146939000Y-89662000D01*
X146939000Y-90911250D01*
X147097750Y-91070000D01*
X147838310Y-91070000D01*
X148071699Y-90973327D01*
X148250327Y-90794698D01*
X148347000Y-90561309D01*
X148347000Y-89820750D01*
X150103000Y-89820750D01*
X150103000Y-90561309D01*
X150199673Y-90794698D01*
X150378301Y-90973327D01*
X150611690Y-91070000D01*
X151352250Y-91070000D01*
X151511000Y-90911250D01*
X151511000Y-89662000D01*
X151765000Y-89662000D01*
X151765000Y-90911250D01*
X151923750Y-91070000D01*
X152664310Y-91070000D01*
X152897699Y-90973327D01*
X153076327Y-90794698D01*
X153173000Y-90561309D01*
X153173000Y-89820750D01*
X153014250Y-89662000D01*
X151765000Y-89662000D01*
X151511000Y-89662000D01*
X150261750Y-89662000D01*
X150103000Y-89820750D01*
X148347000Y-89820750D01*
X148188250Y-89662000D01*
X146939000Y-89662000D01*
X146685000Y-89662000D01*
X145435750Y-89662000D01*
X145277000Y-89820750D01*
X143521000Y-89820750D01*
X143362250Y-89662000D01*
X142113000Y-89662000D01*
X141859000Y-89662000D01*
X140609750Y-89662000D01*
X140451000Y-89820750D01*
X138695000Y-89820750D01*
X138536250Y-89662000D01*
X137287000Y-89662000D01*
X137033000Y-89662000D01*
X135783750Y-89662000D01*
X135625000Y-89820750D01*
X133869000Y-89820750D01*
X133710250Y-89662000D01*
X132461000Y-89662000D01*
X132207000Y-89662000D01*
X130957750Y-89662000D01*
X130799000Y-89820750D01*
X129043000Y-89820750D01*
X128884250Y-89662000D01*
X127635000Y-89662000D01*
X127381000Y-89662000D01*
X126131750Y-89662000D01*
X125973000Y-89820750D01*
X124217000Y-89820750D01*
X124058250Y-89662000D01*
X122809000Y-89662000D01*
X122555000Y-89662000D01*
X121305750Y-89662000D01*
X121147000Y-89820750D01*
X119391000Y-89820750D01*
X119232250Y-89662000D01*
X117983000Y-89662000D01*
X117729000Y-89662000D01*
X116479750Y-89662000D01*
X116321000Y-89820750D01*
X107215768Y-89820750D01*
X107443839Y-89479418D01*
X107559092Y-88900000D01*
X107496636Y-88586010D01*
X113776549Y-88586008D01*
X113851401Y-88600897D01*
X114147938Y-88541912D01*
X114335873Y-88416338D01*
X114335874Y-88416337D01*
X114399330Y-88373937D01*
X114441730Y-88310481D01*
X115615486Y-87136727D01*
X115678939Y-87094329D01*
X115721337Y-87030876D01*
X115721339Y-87030874D01*
X115845887Y-86844474D01*
X115846914Y-86842937D01*
X115891010Y-86621252D01*
X115891010Y-86621248D01*
X115905898Y-86546401D01*
X115891010Y-86471554D01*
X115891010Y-84954791D01*
X116413612Y-84432190D01*
X116504260Y-84887909D01*
X116821423Y-85362577D01*
X117096001Y-85546044D01*
X117096001Y-85648330D01*
X116986493Y-85693690D01*
X116554690Y-86125493D01*
X116321000Y-86689670D01*
X116321000Y-87300330D01*
X116554690Y-87864507D01*
X116731044Y-88040861D01*
X116596301Y-88096673D01*
X116417673Y-88275302D01*
X116321000Y-88508691D01*
X116321000Y-89249250D01*
X116479750Y-89408000D01*
X117729000Y-89408000D01*
X117729000Y-89388000D01*
X117983000Y-89388000D01*
X117983000Y-89408000D01*
X119232250Y-89408000D01*
X119391000Y-89249250D01*
X119391000Y-88508691D01*
X119294327Y-88275302D01*
X119115699Y-88096673D01*
X118980956Y-88040861D01*
X119157310Y-87864507D01*
X119391000Y-87300330D01*
X119391000Y-86689670D01*
X119157310Y-86125493D01*
X118725507Y-85693690D01*
X118616000Y-85648331D01*
X118616000Y-85546043D01*
X118890577Y-85362577D01*
X119207740Y-84887909D01*
X119319113Y-84328000D01*
X119246510Y-83962999D01*
X121291490Y-83962999D01*
X121218887Y-84328000D01*
X121330260Y-84887909D01*
X121647423Y-85362577D01*
X121922000Y-85546044D01*
X121922000Y-85648331D01*
X121812493Y-85693690D01*
X121380690Y-86125493D01*
X121147000Y-86689670D01*
X121147000Y-87300330D01*
X121380690Y-87864507D01*
X121557044Y-88040861D01*
X121422301Y-88096673D01*
X121243673Y-88275302D01*
X121147000Y-88508691D01*
X121147000Y-89249250D01*
X121305750Y-89408000D01*
X122555000Y-89408000D01*
X122555000Y-89388000D01*
X122809000Y-89388000D01*
X122809000Y-89408000D01*
X124058250Y-89408000D01*
X124217000Y-89249250D01*
X124217000Y-88508691D01*
X124120327Y-88275302D01*
X123941699Y-88096673D01*
X123806956Y-88040861D01*
X123983310Y-87864507D01*
X124217000Y-87300330D01*
X124217000Y-86689670D01*
X123983310Y-86125493D01*
X123551507Y-85693690D01*
X123442000Y-85648331D01*
X123442000Y-85546043D01*
X123716577Y-85362577D01*
X124033740Y-84887909D01*
X124145113Y-84328000D01*
X124072510Y-83962999D01*
X126117490Y-83962999D01*
X126044887Y-84328000D01*
X126156260Y-84887909D01*
X126473423Y-85362577D01*
X126748000Y-85546044D01*
X126748000Y-85648331D01*
X126638493Y-85693690D01*
X126206690Y-86125493D01*
X125973000Y-86689670D01*
X125973000Y-87300330D01*
X126206690Y-87864507D01*
X126383044Y-88040861D01*
X126248301Y-88096673D01*
X126069673Y-88275302D01*
X125973000Y-88508691D01*
X125973000Y-89249250D01*
X126131750Y-89408000D01*
X127381000Y-89408000D01*
X127381000Y-89388000D01*
X127635000Y-89388000D01*
X127635000Y-89408000D01*
X128884250Y-89408000D01*
X129043000Y-89249250D01*
X129043000Y-88508691D01*
X128946327Y-88275302D01*
X128767699Y-88096673D01*
X128632956Y-88040861D01*
X128809310Y-87864507D01*
X129043000Y-87300330D01*
X129043000Y-86689670D01*
X128809310Y-86125493D01*
X128377507Y-85693690D01*
X128268000Y-85648331D01*
X128268000Y-85546043D01*
X128542577Y-85362577D01*
X128859740Y-84887909D01*
X128971113Y-84328000D01*
X128898510Y-83962999D01*
X130943490Y-83962999D01*
X130870887Y-84328000D01*
X130982260Y-84887909D01*
X131299423Y-85362577D01*
X131574000Y-85546044D01*
X131574000Y-85648331D01*
X131464493Y-85693690D01*
X131032690Y-86125493D01*
X130799000Y-86689670D01*
X130799000Y-87300330D01*
X131032690Y-87864507D01*
X131209044Y-88040861D01*
X131074301Y-88096673D01*
X130895673Y-88275302D01*
X130799000Y-88508691D01*
X130799000Y-89249250D01*
X130957750Y-89408000D01*
X132207000Y-89408000D01*
X132207000Y-89388000D01*
X132461000Y-89388000D01*
X132461000Y-89408000D01*
X133710250Y-89408000D01*
X133869000Y-89249250D01*
X133869000Y-88508691D01*
X133772327Y-88275302D01*
X133593699Y-88096673D01*
X133458956Y-88040861D01*
X133635310Y-87864507D01*
X133869000Y-87300330D01*
X133869000Y-86689670D01*
X133635310Y-86125493D01*
X133203507Y-85693690D01*
X133094000Y-85648331D01*
X133094000Y-85546043D01*
X133368577Y-85362577D01*
X133685740Y-84887909D01*
X133797113Y-84328000D01*
X133724510Y-83962999D01*
X135769490Y-83962999D01*
X135696887Y-84328000D01*
X135808260Y-84887909D01*
X136125423Y-85362577D01*
X136400000Y-85546044D01*
X136400000Y-85648331D01*
X136290493Y-85693690D01*
X135858690Y-86125493D01*
X135625000Y-86689670D01*
X135625000Y-87300330D01*
X135858690Y-87864507D01*
X136035044Y-88040861D01*
X135900301Y-88096673D01*
X135721673Y-88275302D01*
X135625000Y-88508691D01*
X135625000Y-89249250D01*
X135783750Y-89408000D01*
X137033000Y-89408000D01*
X137033000Y-89388000D01*
X137287000Y-89388000D01*
X137287000Y-89408000D01*
X138536250Y-89408000D01*
X138695000Y-89249250D01*
X138695000Y-88508691D01*
X138598327Y-88275302D01*
X138419699Y-88096673D01*
X138284956Y-88040861D01*
X138461310Y-87864507D01*
X138695000Y-87300330D01*
X138695000Y-86689670D01*
X138461310Y-86125493D01*
X138029507Y-85693690D01*
X137920000Y-85648331D01*
X137920000Y-85546043D01*
X138194577Y-85362577D01*
X138511740Y-84887909D01*
X138623113Y-84328000D01*
X138550510Y-83962999D01*
X140595490Y-83962999D01*
X140522887Y-84328000D01*
X140634260Y-84887909D01*
X140951423Y-85362577D01*
X141226001Y-85546044D01*
X141226001Y-85648330D01*
X141116493Y-85693690D01*
X140684690Y-86125493D01*
X140451000Y-86689670D01*
X140451000Y-87300330D01*
X140684690Y-87864507D01*
X140861044Y-88040861D01*
X140726301Y-88096673D01*
X140547673Y-88275302D01*
X140451000Y-88508691D01*
X140451000Y-89249250D01*
X140609750Y-89408000D01*
X141859000Y-89408000D01*
X141859000Y-89388000D01*
X142113000Y-89388000D01*
X142113000Y-89408000D01*
X143362250Y-89408000D01*
X143521000Y-89249250D01*
X143521000Y-88508691D01*
X143424327Y-88275302D01*
X143245699Y-88096673D01*
X143110956Y-88040861D01*
X143287310Y-87864507D01*
X143521000Y-87300330D01*
X143521000Y-86689670D01*
X143287310Y-86125493D01*
X142855507Y-85693690D01*
X142746000Y-85648331D01*
X142746000Y-85546043D01*
X143020577Y-85362577D01*
X143337740Y-84887909D01*
X143449113Y-84328000D01*
X143376510Y-83962999D01*
X145421490Y-83962999D01*
X145348887Y-84328000D01*
X145460260Y-84887909D01*
X145777423Y-85362577D01*
X146052000Y-85546044D01*
X146052000Y-85648331D01*
X145942493Y-85693690D01*
X145510690Y-86125493D01*
X145277000Y-86689670D01*
X145277000Y-87300330D01*
X145510690Y-87864507D01*
X145687044Y-88040861D01*
X145552301Y-88096673D01*
X145373673Y-88275302D01*
X145277000Y-88508691D01*
X145277000Y-89249250D01*
X145435750Y-89408000D01*
X146685000Y-89408000D01*
X146685000Y-89388000D01*
X146939000Y-89388000D01*
X146939000Y-89408000D01*
X148188250Y-89408000D01*
X148347000Y-89249250D01*
X148347000Y-88508691D01*
X148250327Y-88275302D01*
X148071699Y-88096673D01*
X147936956Y-88040861D01*
X148113310Y-87864507D01*
X148347000Y-87300330D01*
X148347000Y-86689670D01*
X148113310Y-86125493D01*
X147681507Y-85693690D01*
X147572000Y-85648331D01*
X147572000Y-85546043D01*
X147846577Y-85362577D01*
X148163740Y-84887909D01*
X148275113Y-84328000D01*
X148202510Y-83962999D01*
X150247490Y-83962999D01*
X150174887Y-84328000D01*
X150286260Y-84887909D01*
X150603423Y-85362577D01*
X150878000Y-85546044D01*
X150878000Y-85648331D01*
X150768493Y-85693690D01*
X150336690Y-86125493D01*
X150103000Y-86689670D01*
X150103000Y-87300330D01*
X150336690Y-87864507D01*
X150513044Y-88040861D01*
X150378301Y-88096673D01*
X150199673Y-88275302D01*
X150103000Y-88508691D01*
X150103000Y-89249250D01*
X150261750Y-89408000D01*
X151511000Y-89408000D01*
X151511000Y-89388000D01*
X151765000Y-89388000D01*
X151765000Y-89408000D01*
X153014250Y-89408000D01*
X153173000Y-89249250D01*
X153173000Y-88508691D01*
X153076327Y-88275302D01*
X152897699Y-88096673D01*
X152762956Y-88040861D01*
X152939310Y-87864507D01*
X153173000Y-87300330D01*
X153173000Y-86689670D01*
X152939310Y-86125493D01*
X152507507Y-85693690D01*
X152398000Y-85648331D01*
X152398000Y-85546043D01*
X152672577Y-85362577D01*
X152989740Y-84887909D01*
X153101113Y-84328000D01*
X152989740Y-83768091D01*
X152672577Y-83293423D01*
X152197909Y-82976260D01*
X151848119Y-82906682D01*
X152122473Y-82632329D01*
X152185929Y-82589929D01*
X152353904Y-82338537D01*
X152398000Y-82116852D01*
X152398000Y-82116848D01*
X152412888Y-82042000D01*
X152398000Y-81967152D01*
X152398000Y-77946430D01*
X152450862Y-77924534D01*
X152854534Y-77520862D01*
X153073000Y-76993439D01*
X153073000Y-76422561D01*
X152854534Y-75895138D01*
X152450862Y-75491466D01*
X152391018Y-75466678D01*
X152353904Y-75280093D01*
X152185929Y-75028701D01*
X152122473Y-74986301D01*
X150438701Y-73302530D01*
X150396299Y-73239071D01*
X150144907Y-73071096D01*
X149923222Y-73027000D01*
X149923217Y-73027000D01*
X149848370Y-73012112D01*
X149773523Y-73027000D01*
X146372711Y-73027000D01*
X146255280Y-72909569D01*
X145874874Y-72752000D01*
X145463126Y-72752000D01*
X145082720Y-72909569D01*
X144791569Y-73200720D01*
X144670883Y-73492082D01*
X143719331Y-72540530D01*
X143676929Y-72477071D01*
X143497928Y-72357467D01*
X143561909Y-72344740D01*
X144036577Y-72027577D01*
X144272000Y-71675242D01*
X144507423Y-72027577D01*
X144982091Y-72344740D01*
X145400667Y-72428000D01*
X145683333Y-72428000D01*
X146101909Y-72344740D01*
X146576577Y-72027577D01*
X146812000Y-71675242D01*
X147047423Y-72027577D01*
X147522091Y-72344740D01*
X147940667Y-72428000D01*
X148223333Y-72428000D01*
X148641909Y-72344740D01*
X149116577Y-72027577D01*
X149352000Y-71675242D01*
X149587423Y-72027577D01*
X150062091Y-72344740D01*
X150480667Y-72428000D01*
X150763333Y-72428000D01*
X151181909Y-72344740D01*
X151656577Y-72027577D01*
X151892000Y-71675242D01*
X152127423Y-72027577D01*
X152602091Y-72344740D01*
X153020667Y-72428000D01*
X153303333Y-72428000D01*
X153721909Y-72344740D01*
X154196577Y-72027577D01*
X154452947Y-71643892D01*
X154549611Y-71848134D01*
X154964577Y-72224041D01*
X155352961Y-72384904D01*
X155575000Y-72262915D01*
X155575000Y-71120000D01*
X155829000Y-71120000D01*
X155829000Y-72262915D01*
X156051039Y-72384904D01*
X156439423Y-72224041D01*
X156854389Y-71848134D01*
X157093914Y-71342041D01*
X156972629Y-71120000D01*
X155829000Y-71120000D01*
X155575000Y-71120000D01*
X155555000Y-71120000D01*
X155555000Y-70866000D01*
X155575000Y-70866000D01*
X155575000Y-69723085D01*
X155829000Y-69723085D01*
X155829000Y-70866000D01*
X156972629Y-70866000D01*
X157093914Y-70643959D01*
X156854389Y-70137866D01*
X156439423Y-69761959D01*
X156051039Y-69601096D01*
X155829000Y-69723085D01*
X155575000Y-69723085D01*
X155352961Y-69601096D01*
X154964577Y-69761959D01*
X154549611Y-70137866D01*
X154452947Y-70342108D01*
X154196577Y-69958423D01*
X153721909Y-69641260D01*
X153303333Y-69558000D01*
X153020667Y-69558000D01*
X152602091Y-69641260D01*
X152127423Y-69958423D01*
X151892000Y-70310758D01*
X151656577Y-69958423D01*
X151181909Y-69641260D01*
X150763333Y-69558000D01*
X150480667Y-69558000D01*
X150062091Y-69641260D01*
X149587423Y-69958423D01*
X149352000Y-70310758D01*
X149116577Y-69958423D01*
X148641909Y-69641260D01*
X148223333Y-69558000D01*
X147940667Y-69558000D01*
X147522091Y-69641260D01*
X147047423Y-69958423D01*
X146812000Y-70310758D01*
X146576577Y-69958423D01*
X146101909Y-69641260D01*
X145683333Y-69558000D01*
X145400667Y-69558000D01*
X144982091Y-69641260D01*
X144507423Y-69958423D01*
X144272000Y-70310758D01*
X144036577Y-69958423D01*
X143561909Y-69641260D01*
X143143333Y-69558000D01*
X142860667Y-69558000D01*
X142442091Y-69641260D01*
X141967423Y-69958423D01*
X141711053Y-70342108D01*
X141614389Y-70137866D01*
X141199423Y-69761959D01*
X140811039Y-69601096D01*
X140589000Y-69723085D01*
X140589000Y-70866000D01*
X140609000Y-70866000D01*
X140609000Y-71120000D01*
X140589000Y-71120000D01*
X140589000Y-71140000D01*
X140335000Y-71140000D01*
X140335000Y-71120000D01*
X138049000Y-71120000D01*
X138049000Y-71140000D01*
X137795000Y-71140000D01*
X137795000Y-71120000D01*
X136645750Y-71120000D01*
X136487000Y-71278750D01*
X136487000Y-71503000D01*
X136085711Y-71503000D01*
X135968280Y-71385569D01*
X135587874Y-71228000D01*
X135176126Y-71228000D01*
X134795720Y-71385569D01*
X134504569Y-71676720D01*
X134347000Y-72057126D01*
X134347000Y-72468874D01*
X134504569Y-72849280D01*
X134795720Y-73140431D01*
X135176126Y-73298000D01*
X135587874Y-73298000D01*
X135968280Y-73140431D01*
X136085711Y-73023000D01*
X137226199Y-73023000D01*
X140572896Y-76369698D01*
X140551000Y-76422561D01*
X140551000Y-76993439D01*
X140769466Y-77520862D01*
X141173138Y-77924534D01*
X141226001Y-77946430D01*
X141226000Y-81219198D01*
X141036199Y-81409000D01*
X137597802Y-81409000D01*
X137644473Y-81362329D01*
X137707929Y-81319929D01*
X137875904Y-81068537D01*
X137920000Y-80846852D01*
X137920000Y-80846847D01*
X137934888Y-80772000D01*
X137920000Y-80697153D01*
X137920000Y-77946430D01*
X137972862Y-77924534D01*
X138376534Y-77520862D01*
X138595000Y-76993439D01*
X138595000Y-76422561D01*
X138376534Y-75895138D01*
X137972862Y-75491466D01*
X137445439Y-75273000D01*
X136874561Y-75273000D01*
X136821698Y-75294896D01*
X136226331Y-74699530D01*
X136183929Y-74636071D01*
X135932537Y-74468096D01*
X135710852Y-74424000D01*
X135710847Y-74424000D01*
X135636000Y-74409112D01*
X135561153Y-74424000D01*
X131886802Y-74424000D01*
X130511331Y-73048530D01*
X130468929Y-72985071D01*
X130217537Y-72817096D01*
X129995852Y-72773000D01*
X129995847Y-72773000D01*
X129921000Y-72758112D01*
X129846153Y-72773000D01*
X127834432Y-72773000D01*
X127111667Y-72050235D01*
X127145577Y-72027577D01*
X127381000Y-71675242D01*
X127616423Y-72027577D01*
X128091091Y-72344740D01*
X128509667Y-72428000D01*
X128792333Y-72428000D01*
X129210909Y-72344740D01*
X129685577Y-72027577D01*
X129941947Y-71643892D01*
X130038611Y-71848134D01*
X130453577Y-72224041D01*
X130841961Y-72384904D01*
X131064000Y-72262915D01*
X131064000Y-71120000D01*
X131318000Y-71120000D01*
X131318000Y-72262915D01*
X131540039Y-72384904D01*
X131928423Y-72224041D01*
X132343389Y-71848134D01*
X132582914Y-71342041D01*
X132461629Y-71120000D01*
X131318000Y-71120000D01*
X131064000Y-71120000D01*
X131044000Y-71120000D01*
X131044000Y-70866000D01*
X131064000Y-70866000D01*
X131064000Y-70846000D01*
X131318000Y-70846000D01*
X131318000Y-70866000D01*
X132461629Y-70866000D01*
X132582914Y-70643959D01*
X132377515Y-70209971D01*
X132503537Y-70184904D01*
X132680455Y-70066691D01*
X136487000Y-70066691D01*
X136487000Y-70707250D01*
X136645750Y-70866000D01*
X137795000Y-70866000D01*
X137795000Y-69716750D01*
X138049000Y-69716750D01*
X138049000Y-70866000D01*
X140335000Y-70866000D01*
X140335000Y-69723085D01*
X140112961Y-69601096D01*
X139724577Y-69761959D01*
X139357000Y-70094938D01*
X139357000Y-70066691D01*
X139260327Y-69833302D01*
X139081699Y-69654673D01*
X138848310Y-69558000D01*
X138207750Y-69558000D01*
X138049000Y-69716750D01*
X137795000Y-69716750D01*
X137636250Y-69558000D01*
X136995690Y-69558000D01*
X136762301Y-69654673D01*
X136583673Y-69833302D01*
X136487000Y-70066691D01*
X132680455Y-70066691D01*
X132754929Y-70016929D01*
X132797331Y-69953470D01*
X133326473Y-69424329D01*
X133389929Y-69381929D01*
X133557904Y-69130537D01*
X133602000Y-68908852D01*
X133602000Y-68908848D01*
X133616888Y-68834000D01*
X133602000Y-68759152D01*
X133602000Y-58752745D01*
X134172861Y-58752745D01*
X134246995Y-58998864D01*
X134784223Y-59191965D01*
X135354454Y-59164778D01*
X135755005Y-58998864D01*
X135829139Y-58752745D01*
X135001000Y-57924605D01*
X134172861Y-58752745D01*
X133602000Y-58752745D01*
X133602000Y-58148616D01*
X133747136Y-58499005D01*
X133993255Y-58573139D01*
X134821395Y-57745000D01*
X135180605Y-57745000D01*
X136008745Y-58573139D01*
X136254864Y-58499005D01*
X136447965Y-57961777D01*
X136420778Y-57391546D01*
X136254864Y-56990995D01*
X136008745Y-56916861D01*
X135180605Y-57745000D01*
X134821395Y-57745000D01*
X133993255Y-56916861D01*
X133747136Y-56990995D01*
X133602000Y-57394779D01*
X133602000Y-55617351D01*
X133784466Y-56057862D01*
X134188138Y-56461534D01*
X134253299Y-56488525D01*
X134246995Y-56491136D01*
X134172861Y-56737255D01*
X135001000Y-57565395D01*
X135829139Y-56737255D01*
X135755005Y-56491136D01*
X135748254Y-56488710D01*
X135813862Y-56461534D01*
X136145396Y-56130000D01*
X139606522Y-56130000D01*
X139648843Y-56342765D01*
X139789191Y-56552809D01*
X139999235Y-56693157D01*
X140212001Y-56735478D01*
X140212000Y-59831421D01*
X138098439Y-61944983D01*
X138063333Y-61938000D01*
X137780667Y-61938000D01*
X137362091Y-62021260D01*
X136887423Y-62338423D01*
X136570260Y-62813091D01*
X136458887Y-63373000D01*
X136570260Y-63932909D01*
X136887423Y-64407577D01*
X137362091Y-64724740D01*
X137780667Y-64808000D01*
X138063333Y-64808000D01*
X138481909Y-64724740D01*
X138956577Y-64407577D01*
X139192000Y-64055242D01*
X139427423Y-64407577D01*
X139902091Y-64724740D01*
X140320667Y-64808000D01*
X140603333Y-64808000D01*
X141021909Y-64724740D01*
X141496577Y-64407577D01*
X141732000Y-64055242D01*
X141967423Y-64407577D01*
X142242000Y-64591044D01*
X142242001Y-66360197D01*
X141692199Y-66910000D01*
X141526126Y-66910000D01*
X141145720Y-67067569D01*
X140854569Y-67358720D01*
X140697000Y-67739126D01*
X140697000Y-68150874D01*
X140854569Y-68531280D01*
X141145720Y-68822431D01*
X141526126Y-68980000D01*
X141937874Y-68980000D01*
X142318280Y-68822431D01*
X142609431Y-68531280D01*
X142767000Y-68150874D01*
X142767000Y-67984801D01*
X143184081Y-67567721D01*
X143267569Y-67769280D01*
X143558720Y-68060431D01*
X143939126Y-68218000D01*
X144350874Y-68218000D01*
X144731280Y-68060431D01*
X145022431Y-67769280D01*
X145180000Y-67388874D01*
X145180000Y-67222802D01*
X146026476Y-66376327D01*
X146089929Y-66333929D01*
X146132327Y-66270476D01*
X146132329Y-66270474D01*
X146158000Y-66232054D01*
X146158000Y-66626874D01*
X146315569Y-67007280D01*
X146606720Y-67298431D01*
X146987126Y-67456000D01*
X147398874Y-67456000D01*
X147779280Y-67298431D01*
X148070431Y-67007280D01*
X148228000Y-66626874D01*
X148228000Y-66460802D01*
X148566473Y-66122329D01*
X148629929Y-66079929D01*
X148797904Y-65828537D01*
X148842000Y-65606852D01*
X148842000Y-65606847D01*
X148856888Y-65532000D01*
X148842000Y-65457153D01*
X148842000Y-64591043D01*
X149116577Y-64407577D01*
X149352000Y-64055242D01*
X149587423Y-64407577D01*
X150062091Y-64724740D01*
X150480667Y-64808000D01*
X150763333Y-64808000D01*
X151181909Y-64724740D01*
X151656577Y-64407577D01*
X151892000Y-64055242D01*
X152127423Y-64407577D01*
X152602091Y-64724740D01*
X153020667Y-64808000D01*
X153303333Y-64808000D01*
X153721909Y-64724740D01*
X154196577Y-64407577D01*
X154380043Y-64133000D01*
X154483957Y-64133000D01*
X154667423Y-64407577D01*
X155142091Y-64724740D01*
X155560667Y-64808000D01*
X155843333Y-64808000D01*
X156261909Y-64724740D01*
X156736577Y-64407577D01*
X157053740Y-63932909D01*
X157165113Y-63373000D01*
X157053740Y-62813091D01*
X156736577Y-62338423D01*
X156261909Y-62021260D01*
X155843333Y-61938000D01*
X155560667Y-61938000D01*
X155142091Y-62021260D01*
X154667423Y-62338423D01*
X154483957Y-62613000D01*
X154380043Y-62613000D01*
X154196577Y-62338423D01*
X153922000Y-62154957D01*
X153922000Y-60907848D01*
X153936888Y-60833000D01*
X153922000Y-60758152D01*
X153922000Y-60758148D01*
X153877904Y-60536463D01*
X153877904Y-60536462D01*
X153752329Y-60348527D01*
X153709929Y-60285071D01*
X153646473Y-60242671D01*
X152017000Y-58613199D01*
X152017000Y-56523178D01*
X152327625Y-56315625D01*
X152527000Y-56017239D01*
X152726375Y-56315625D01*
X153217582Y-56643839D01*
X153650744Y-56730000D01*
X153943256Y-56730000D01*
X154376418Y-56643839D01*
X154867625Y-56315625D01*
X155195839Y-55824418D01*
X155311092Y-55245000D01*
X155195839Y-54665582D01*
X154867625Y-54174375D01*
X154376418Y-53846161D01*
X153943256Y-53760000D01*
X153650744Y-53760000D01*
X153430592Y-53803791D01*
X150450331Y-50823530D01*
X150407929Y-50760071D01*
X150156537Y-50592096D01*
X149934852Y-50548000D01*
X149934847Y-50548000D01*
X149860000Y-50533112D01*
X149785153Y-50548000D01*
X86815846Y-50548000D01*
X86740999Y-50533112D01*
X86666152Y-50548000D01*
X86666148Y-50548000D01*
X86444463Y-50592096D01*
X86193071Y-50760071D01*
X86150671Y-50823527D01*
X84097528Y-52876671D01*
X84034072Y-52919071D01*
X83991672Y-52982527D01*
X83991671Y-52982528D01*
X83866097Y-53170463D01*
X83807112Y-53467000D01*
X83822001Y-53541852D01*
X83822000Y-56313153D01*
X83807112Y-56388000D01*
X83822000Y-56462847D01*
X83822000Y-56462851D01*
X83866096Y-56684536D01*
X84034071Y-56935929D01*
X84097530Y-56978331D01*
X85727001Y-58607803D01*
X85727000Y-62154956D01*
X85452423Y-62338423D01*
X85217000Y-62690758D01*
X84981577Y-62338423D01*
X84506909Y-62021260D01*
X84088333Y-61938000D01*
X83805667Y-61938000D01*
X83387091Y-62021260D01*
X82912423Y-62338423D01*
X82595260Y-62813091D01*
X82483887Y-63373000D01*
X82595260Y-63932909D01*
X82912423Y-64407577D01*
X83062001Y-64507522D01*
X83062000Y-69562467D01*
X82899235Y-69594843D01*
X82689191Y-69735191D01*
X82548843Y-69945235D01*
X82499560Y-70193000D01*
X82499560Y-71793000D01*
X82548843Y-72040765D01*
X82689191Y-72250809D01*
X82899235Y-72391157D01*
X83147000Y-72440440D01*
X84747000Y-72440440D01*
X84994765Y-72391157D01*
X85204809Y-72250809D01*
X85345157Y-72040765D01*
X85371785Y-71906894D01*
X85452423Y-72027577D01*
X85727000Y-72211044D01*
X85727001Y-79949197D01*
X84097530Y-81578669D01*
X84034071Y-81621071D01*
X83866096Y-81872464D01*
X83822000Y-82094149D01*
X83822000Y-82094153D01*
X83807112Y-82169000D01*
X83822000Y-82243847D01*
X83822000Y-82856149D01*
X83822001Y-89845378D01*
X83807112Y-89920230D01*
X83822001Y-89995082D01*
X83827936Y-90024920D01*
X83866097Y-90216767D01*
X83989665Y-90401699D01*
X84034072Y-90468159D01*
X84097528Y-90510559D01*
X85776460Y-92189492D01*
X85818860Y-92252948D01*
X85820434Y-92254000D01*
X82848667Y-92254000D01*
X82350301Y-92191042D01*
X81925111Y-92022697D01*
X81555141Y-91753899D01*
X81263645Y-91401541D01*
X81068933Y-90987756D01*
X80976907Y-90505339D01*
X80974000Y-90412836D01*
X80974000Y-51606666D01*
X81036958Y-51108302D01*
X81205305Y-50683107D01*
X81474101Y-50313142D01*
X81826462Y-50021644D01*
X82240244Y-49826933D01*
X82722662Y-49734907D01*
X82815164Y-49732000D01*
X156419334Y-49732000D01*
X156917698Y-49794958D01*
X156917698Y-49794958D01*
G37*
X156917698Y-49794958D02*
X157342893Y-49963305D01*
X157712858Y-50232101D01*
X158004356Y-50584462D01*
X158199067Y-50998244D01*
X158291093Y-51480662D01*
X158294001Y-51573195D01*
X158294000Y-90379333D01*
X158231042Y-90877699D01*
X158062697Y-91302889D01*
X157793899Y-91672859D01*
X157441541Y-91964355D01*
X157027756Y-92159067D01*
X156545339Y-92251093D01*
X156452836Y-92254000D01*
X103786336Y-92254000D01*
X103787910Y-92252948D01*
X103830312Y-92189489D01*
X105678592Y-90341209D01*
X105898744Y-90385000D01*
X106191256Y-90385000D01*
X106624418Y-90298839D01*
X107115625Y-89970625D01*
X107215768Y-89820750D01*
X116321000Y-89820750D01*
X116321000Y-90561309D01*
X116417673Y-90794698D01*
X116596301Y-90973327D01*
X116829690Y-91070000D01*
X117570250Y-91070000D01*
X117729000Y-90911250D01*
X117729000Y-89662000D01*
X117983000Y-89662000D01*
X117983000Y-90911250D01*
X118141750Y-91070000D01*
X118882310Y-91070000D01*
X119115699Y-90973327D01*
X119294327Y-90794698D01*
X119391000Y-90561309D01*
X119391000Y-89820750D01*
X121147000Y-89820750D01*
X121147000Y-90561309D01*
X121243673Y-90794698D01*
X121422301Y-90973327D01*
X121655690Y-91070000D01*
X122396250Y-91070000D01*
X122555000Y-90911250D01*
X122555000Y-89662000D01*
X122809000Y-89662000D01*
X122809000Y-90911250D01*
X122967750Y-91070000D01*
X123708310Y-91070000D01*
X123941699Y-90973327D01*
X124120327Y-90794698D01*
X124217000Y-90561309D01*
X124217000Y-89820750D01*
X125973000Y-89820750D01*
X125973000Y-90561309D01*
X126069673Y-90794698D01*
X126248301Y-90973327D01*
X126481690Y-91070000D01*
X127222250Y-91070000D01*
X127381000Y-90911250D01*
X127381000Y-89662000D01*
X127635000Y-89662000D01*
X127635000Y-90911250D01*
X127793750Y-91070000D01*
X128534310Y-91070000D01*
X128767699Y-90973327D01*
X128946327Y-90794698D01*
X129043000Y-90561309D01*
X129043000Y-89820750D01*
X130799000Y-89820750D01*
X130799000Y-90561309D01*
X130895673Y-90794698D01*
X131074301Y-90973327D01*
X131307690Y-91070000D01*
X132048250Y-91070000D01*
X132207000Y-90911250D01*
X132207000Y-89662000D01*
X132461000Y-89662000D01*
X132461000Y-90911250D01*
X132619750Y-91070000D01*
X133360310Y-91070000D01*
X133593699Y-90973327D01*
X133772327Y-90794698D01*
X133869000Y-90561309D01*
X133869000Y-89820750D01*
X135625000Y-89820750D01*
X135625000Y-90561309D01*
X135721673Y-90794698D01*
X135900301Y-90973327D01*
X136133690Y-91070000D01*
X136874250Y-91070000D01*
X137033000Y-90911250D01*
X137033000Y-89662000D01*
X137287000Y-89662000D01*
X137287000Y-90911250D01*
X137445750Y-91070000D01*
X138186310Y-91070000D01*
X138419699Y-90973327D01*
X138598327Y-90794698D01*
X138695000Y-90561309D01*
X138695000Y-89820750D01*
X140451000Y-89820750D01*
X140451000Y-90561309D01*
X140547673Y-90794698D01*
X140726301Y-90973327D01*
X140959690Y-91070000D01*
X141700250Y-91070000D01*
X141859000Y-90911250D01*
X141859000Y-89662000D01*
X142113000Y-89662000D01*
X142113000Y-90911250D01*
X142271750Y-91070000D01*
X143012310Y-91070000D01*
X143245699Y-90973327D01*
X143424327Y-90794698D01*
X143521000Y-90561309D01*
X143521000Y-89820750D01*
X145277000Y-89820750D01*
X145277000Y-90561309D01*
X145373673Y-90794698D01*
X145552301Y-90973327D01*
X145785690Y-91070000D01*
X146526250Y-91070000D01*
X146685000Y-90911250D01*
X146685000Y-89662000D01*
X146939000Y-89662000D01*
X146939000Y-90911250D01*
X147097750Y-91070000D01*
X147838310Y-91070000D01*
X148071699Y-90973327D01*
X148250327Y-90794698D01*
X148347000Y-90561309D01*
X148347000Y-89820750D01*
X150103000Y-89820750D01*
X150103000Y-90561309D01*
X150199673Y-90794698D01*
X150378301Y-90973327D01*
X150611690Y-91070000D01*
X151352250Y-91070000D01*
X151511000Y-90911250D01*
X151511000Y-89662000D01*
X151765000Y-89662000D01*
X151765000Y-90911250D01*
X151923750Y-91070000D01*
X152664310Y-91070000D01*
X152897699Y-90973327D01*
X153076327Y-90794698D01*
X153173000Y-90561309D01*
X153173000Y-89820750D01*
X153014250Y-89662000D01*
X151765000Y-89662000D01*
X151511000Y-89662000D01*
X150261750Y-89662000D01*
X150103000Y-89820750D01*
X148347000Y-89820750D01*
X148188250Y-89662000D01*
X146939000Y-89662000D01*
X146685000Y-89662000D01*
X145435750Y-89662000D01*
X145277000Y-89820750D01*
X143521000Y-89820750D01*
X143362250Y-89662000D01*
X142113000Y-89662000D01*
X141859000Y-89662000D01*
X140609750Y-89662000D01*
X140451000Y-89820750D01*
X138695000Y-89820750D01*
X138536250Y-89662000D01*
X137287000Y-89662000D01*
X137033000Y-89662000D01*
X135783750Y-89662000D01*
X135625000Y-89820750D01*
X133869000Y-89820750D01*
X133710250Y-89662000D01*
X132461000Y-89662000D01*
X132207000Y-89662000D01*
X130957750Y-89662000D01*
X130799000Y-89820750D01*
X129043000Y-89820750D01*
X128884250Y-89662000D01*
X127635000Y-89662000D01*
X127381000Y-89662000D01*
X126131750Y-89662000D01*
X125973000Y-89820750D01*
X124217000Y-89820750D01*
X124058250Y-89662000D01*
X122809000Y-89662000D01*
X122555000Y-89662000D01*
X121305750Y-89662000D01*
X121147000Y-89820750D01*
X119391000Y-89820750D01*
X119232250Y-89662000D01*
X117983000Y-89662000D01*
X117729000Y-89662000D01*
X116479750Y-89662000D01*
X116321000Y-89820750D01*
X107215768Y-89820750D01*
X107443839Y-89479418D01*
X107559092Y-88900000D01*
X107496636Y-88586010D01*
X113776549Y-88586008D01*
X113851401Y-88600897D01*
X114147938Y-88541912D01*
X114335873Y-88416338D01*
X114335874Y-88416337D01*
X114399330Y-88373937D01*
X114441730Y-88310481D01*
X115615486Y-87136727D01*
X115678939Y-87094329D01*
X115721337Y-87030876D01*
X115721339Y-87030874D01*
X115845887Y-86844474D01*
X115846914Y-86842937D01*
X115891010Y-86621252D01*
X115891010Y-86621248D01*
X115905898Y-86546401D01*
X115891010Y-86471554D01*
X115891010Y-84954791D01*
X116413612Y-84432190D01*
X116504260Y-84887909D01*
X116821423Y-85362577D01*
X117096001Y-85546044D01*
X117096001Y-85648330D01*
X116986493Y-85693690D01*
X116554690Y-86125493D01*
X116321000Y-86689670D01*
X116321000Y-87300330D01*
X116554690Y-87864507D01*
X116731044Y-88040861D01*
X116596301Y-88096673D01*
X116417673Y-88275302D01*
X116321000Y-88508691D01*
X116321000Y-89249250D01*
X116479750Y-89408000D01*
X117729000Y-89408000D01*
X117729000Y-89388000D01*
X117983000Y-89388000D01*
X117983000Y-89408000D01*
X119232250Y-89408000D01*
X119391000Y-89249250D01*
X119391000Y-88508691D01*
X119294327Y-88275302D01*
X119115699Y-88096673D01*
X118980956Y-88040861D01*
X119157310Y-87864507D01*
X119391000Y-87300330D01*
X119391000Y-86689670D01*
X119157310Y-86125493D01*
X118725507Y-85693690D01*
X118616000Y-85648331D01*
X118616000Y-85546043D01*
X118890577Y-85362577D01*
X119207740Y-84887909D01*
X119319113Y-84328000D01*
X119246510Y-83962999D01*
X121291490Y-83962999D01*
X121218887Y-84328000D01*
X121330260Y-84887909D01*
X121647423Y-85362577D01*
X121922000Y-85546044D01*
X121922000Y-85648331D01*
X121812493Y-85693690D01*
X121380690Y-86125493D01*
X121147000Y-86689670D01*
X121147000Y-87300330D01*
X121380690Y-87864507D01*
X121557044Y-88040861D01*
X121422301Y-88096673D01*
X121243673Y-88275302D01*
X121147000Y-88508691D01*
X121147000Y-89249250D01*
X121305750Y-89408000D01*
X122555000Y-89408000D01*
X122555000Y-89388000D01*
X122809000Y-89388000D01*
X122809000Y-89408000D01*
X124058250Y-89408000D01*
X124217000Y-89249250D01*
X124217000Y-88508691D01*
X124120327Y-88275302D01*
X123941699Y-88096673D01*
X123806956Y-88040861D01*
X123983310Y-87864507D01*
X124217000Y-87300330D01*
X124217000Y-86689670D01*
X123983310Y-86125493D01*
X123551507Y-85693690D01*
X123442000Y-85648331D01*
X123442000Y-85546043D01*
X123716577Y-85362577D01*
X124033740Y-84887909D01*
X124145113Y-84328000D01*
X124072510Y-83962999D01*
X126117490Y-83962999D01*
X126044887Y-84328000D01*
X126156260Y-84887909D01*
X126473423Y-85362577D01*
X126748000Y-85546044D01*
X126748000Y-85648331D01*
X126638493Y-85693690D01*
X126206690Y-86125493D01*
X125973000Y-86689670D01*
X125973000Y-87300330D01*
X126206690Y-87864507D01*
X126383044Y-88040861D01*
X126248301Y-88096673D01*
X126069673Y-88275302D01*
X125973000Y-88508691D01*
X125973000Y-89249250D01*
X126131750Y-89408000D01*
X127381000Y-89408000D01*
X127381000Y-89388000D01*
X127635000Y-89388000D01*
X127635000Y-89408000D01*
X128884250Y-89408000D01*
X129043000Y-89249250D01*
X129043000Y-88508691D01*
X128946327Y-88275302D01*
X128767699Y-88096673D01*
X128632956Y-88040861D01*
X128809310Y-87864507D01*
X129043000Y-87300330D01*
X129043000Y-86689670D01*
X128809310Y-86125493D01*
X128377507Y-85693690D01*
X128268000Y-85648331D01*
X128268000Y-85546043D01*
X128542577Y-85362577D01*
X128859740Y-84887909D01*
X128971113Y-84328000D01*
X128898510Y-83962999D01*
X130943490Y-83962999D01*
X130870887Y-84328000D01*
X130982260Y-84887909D01*
X131299423Y-85362577D01*
X131574000Y-85546044D01*
X131574000Y-85648331D01*
X131464493Y-85693690D01*
X131032690Y-86125493D01*
X130799000Y-86689670D01*
X130799000Y-87300330D01*
X131032690Y-87864507D01*
X131209044Y-88040861D01*
X131074301Y-88096673D01*
X130895673Y-88275302D01*
X130799000Y-88508691D01*
X130799000Y-89249250D01*
X130957750Y-89408000D01*
X132207000Y-89408000D01*
X132207000Y-89388000D01*
X132461000Y-89388000D01*
X132461000Y-89408000D01*
X133710250Y-89408000D01*
X133869000Y-89249250D01*
X133869000Y-88508691D01*
X133772327Y-88275302D01*
X133593699Y-88096673D01*
X133458956Y-88040861D01*
X133635310Y-87864507D01*
X133869000Y-87300330D01*
X133869000Y-86689670D01*
X133635310Y-86125493D01*
X133203507Y-85693690D01*
X133094000Y-85648331D01*
X133094000Y-85546043D01*
X133368577Y-85362577D01*
X133685740Y-84887909D01*
X133797113Y-84328000D01*
X133724510Y-83962999D01*
X135769490Y-83962999D01*
X135696887Y-84328000D01*
X135808260Y-84887909D01*
X136125423Y-85362577D01*
X136400000Y-85546044D01*
X136400000Y-85648331D01*
X136290493Y-85693690D01*
X135858690Y-86125493D01*
X135625000Y-86689670D01*
X135625000Y-87300330D01*
X135858690Y-87864507D01*
X136035044Y-88040861D01*
X135900301Y-88096673D01*
X135721673Y-88275302D01*
X135625000Y-88508691D01*
X135625000Y-89249250D01*
X135783750Y-89408000D01*
X137033000Y-89408000D01*
X137033000Y-89388000D01*
X137287000Y-89388000D01*
X137287000Y-89408000D01*
X138536250Y-89408000D01*
X138695000Y-89249250D01*
X138695000Y-88508691D01*
X138598327Y-88275302D01*
X138419699Y-88096673D01*
X138284956Y-88040861D01*
X138461310Y-87864507D01*
X138695000Y-87300330D01*
X138695000Y-86689670D01*
X138461310Y-86125493D01*
X138029507Y-85693690D01*
X137920000Y-85648331D01*
X137920000Y-85546043D01*
X138194577Y-85362577D01*
X138511740Y-84887909D01*
X138623113Y-84328000D01*
X138550510Y-83962999D01*
X140595490Y-83962999D01*
X140522887Y-84328000D01*
X140634260Y-84887909D01*
X140951423Y-85362577D01*
X141226001Y-85546044D01*
X141226001Y-85648330D01*
X141116493Y-85693690D01*
X140684690Y-86125493D01*
X140451000Y-86689670D01*
X140451000Y-87300330D01*
X140684690Y-87864507D01*
X140861044Y-88040861D01*
X140726301Y-88096673D01*
X140547673Y-88275302D01*
X140451000Y-88508691D01*
X140451000Y-89249250D01*
X140609750Y-89408000D01*
X141859000Y-89408000D01*
X141859000Y-89388000D01*
X142113000Y-89388000D01*
X142113000Y-89408000D01*
X143362250Y-89408000D01*
X143521000Y-89249250D01*
X143521000Y-88508691D01*
X143424327Y-88275302D01*
X143245699Y-88096673D01*
X143110956Y-88040861D01*
X143287310Y-87864507D01*
X143521000Y-87300330D01*
X143521000Y-86689670D01*
X143287310Y-86125493D01*
X142855507Y-85693690D01*
X142746000Y-85648331D01*
X142746000Y-85546043D01*
X143020577Y-85362577D01*
X143337740Y-84887909D01*
X143449113Y-84328000D01*
X143376510Y-83962999D01*
X145421490Y-83962999D01*
X145348887Y-84328000D01*
X145460260Y-84887909D01*
X145777423Y-85362577D01*
X146052000Y-85546044D01*
X146052000Y-85648331D01*
X145942493Y-85693690D01*
X145510690Y-86125493D01*
X145277000Y-86689670D01*
X145277000Y-87300330D01*
X145510690Y-87864507D01*
X145687044Y-88040861D01*
X145552301Y-88096673D01*
X145373673Y-88275302D01*
X145277000Y-88508691D01*
X145277000Y-89249250D01*
X145435750Y-89408000D01*
X146685000Y-89408000D01*
X146685000Y-89388000D01*
X146939000Y-89388000D01*
X146939000Y-89408000D01*
X148188250Y-89408000D01*
X148347000Y-89249250D01*
X148347000Y-88508691D01*
X148250327Y-88275302D01*
X148071699Y-88096673D01*
X147936956Y-88040861D01*
X148113310Y-87864507D01*
X148347000Y-87300330D01*
X148347000Y-86689670D01*
X148113310Y-86125493D01*
X147681507Y-85693690D01*
X147572000Y-85648331D01*
X147572000Y-85546043D01*
X147846577Y-85362577D01*
X148163740Y-84887909D01*
X148275113Y-84328000D01*
X148202510Y-83962999D01*
X150247490Y-83962999D01*
X150174887Y-84328000D01*
X150286260Y-84887909D01*
X150603423Y-85362577D01*
X150878000Y-85546044D01*
X150878000Y-85648331D01*
X150768493Y-85693690D01*
X150336690Y-86125493D01*
X150103000Y-86689670D01*
X150103000Y-87300330D01*
X150336690Y-87864507D01*
X150513044Y-88040861D01*
X150378301Y-88096673D01*
X150199673Y-88275302D01*
X150103000Y-88508691D01*
X150103000Y-89249250D01*
X150261750Y-89408000D01*
X151511000Y-89408000D01*
X151511000Y-89388000D01*
X151765000Y-89388000D01*
X151765000Y-89408000D01*
X153014250Y-89408000D01*
X153173000Y-89249250D01*
X153173000Y-88508691D01*
X153076327Y-88275302D01*
X152897699Y-88096673D01*
X152762956Y-88040861D01*
X152939310Y-87864507D01*
X153173000Y-87300330D01*
X153173000Y-86689670D01*
X152939310Y-86125493D01*
X152507507Y-85693690D01*
X152398000Y-85648331D01*
X152398000Y-85546043D01*
X152672577Y-85362577D01*
X152989740Y-84887909D01*
X153101113Y-84328000D01*
X152989740Y-83768091D01*
X152672577Y-83293423D01*
X152197909Y-82976260D01*
X151848119Y-82906682D01*
X152122473Y-82632329D01*
X152185929Y-82589929D01*
X152353904Y-82338537D01*
X152398000Y-82116852D01*
X152398000Y-82116848D01*
X152412888Y-82042000D01*
X152398000Y-81967152D01*
X152398000Y-77946430D01*
X152450862Y-77924534D01*
X152854534Y-77520862D01*
X153073000Y-76993439D01*
X153073000Y-76422561D01*
X152854534Y-75895138D01*
X152450862Y-75491466D01*
X152391018Y-75466678D01*
X152353904Y-75280093D01*
X152185929Y-75028701D01*
X152122473Y-74986301D01*
X150438701Y-73302530D01*
X150396299Y-73239071D01*
X150144907Y-73071096D01*
X149923222Y-73027000D01*
X149923217Y-73027000D01*
X149848370Y-73012112D01*
X149773523Y-73027000D01*
X146372711Y-73027000D01*
X146255280Y-72909569D01*
X145874874Y-72752000D01*
X145463126Y-72752000D01*
X145082720Y-72909569D01*
X144791569Y-73200720D01*
X144670883Y-73492082D01*
X143719331Y-72540530D01*
X143676929Y-72477071D01*
X143497928Y-72357467D01*
X143561909Y-72344740D01*
X144036577Y-72027577D01*
X144272000Y-71675242D01*
X144507423Y-72027577D01*
X144982091Y-72344740D01*
X145400667Y-72428000D01*
X145683333Y-72428000D01*
X146101909Y-72344740D01*
X146576577Y-72027577D01*
X146812000Y-71675242D01*
X147047423Y-72027577D01*
X147522091Y-72344740D01*
X147940667Y-72428000D01*
X148223333Y-72428000D01*
X148641909Y-72344740D01*
X149116577Y-72027577D01*
X149352000Y-71675242D01*
X149587423Y-72027577D01*
X150062091Y-72344740D01*
X150480667Y-72428000D01*
X150763333Y-72428000D01*
X151181909Y-72344740D01*
X151656577Y-72027577D01*
X151892000Y-71675242D01*
X152127423Y-72027577D01*
X152602091Y-72344740D01*
X153020667Y-72428000D01*
X153303333Y-72428000D01*
X153721909Y-72344740D01*
X154196577Y-72027577D01*
X154452947Y-71643892D01*
X154549611Y-71848134D01*
X154964577Y-72224041D01*
X155352961Y-72384904D01*
X155575000Y-72262915D01*
X155575000Y-71120000D01*
X155829000Y-71120000D01*
X155829000Y-72262915D01*
X156051039Y-72384904D01*
X156439423Y-72224041D01*
X156854389Y-71848134D01*
X157093914Y-71342041D01*
X156972629Y-71120000D01*
X155829000Y-71120000D01*
X155575000Y-71120000D01*
X155555000Y-71120000D01*
X155555000Y-70866000D01*
X155575000Y-70866000D01*
X155575000Y-69723085D01*
X155829000Y-69723085D01*
X155829000Y-70866000D01*
X156972629Y-70866000D01*
X157093914Y-70643959D01*
X156854389Y-70137866D01*
X156439423Y-69761959D01*
X156051039Y-69601096D01*
X155829000Y-69723085D01*
X155575000Y-69723085D01*
X155352961Y-69601096D01*
X154964577Y-69761959D01*
X154549611Y-70137866D01*
X154452947Y-70342108D01*
X154196577Y-69958423D01*
X153721909Y-69641260D01*
X153303333Y-69558000D01*
X153020667Y-69558000D01*
X152602091Y-69641260D01*
X152127423Y-69958423D01*
X151892000Y-70310758D01*
X151656577Y-69958423D01*
X151181909Y-69641260D01*
X150763333Y-69558000D01*
X150480667Y-69558000D01*
X150062091Y-69641260D01*
X149587423Y-69958423D01*
X149352000Y-70310758D01*
X149116577Y-69958423D01*
X148641909Y-69641260D01*
X148223333Y-69558000D01*
X147940667Y-69558000D01*
X147522091Y-69641260D01*
X147047423Y-69958423D01*
X146812000Y-70310758D01*
X146576577Y-69958423D01*
X146101909Y-69641260D01*
X145683333Y-69558000D01*
X145400667Y-69558000D01*
X144982091Y-69641260D01*
X144507423Y-69958423D01*
X144272000Y-70310758D01*
X144036577Y-69958423D01*
X143561909Y-69641260D01*
X143143333Y-69558000D01*
X142860667Y-69558000D01*
X142442091Y-69641260D01*
X141967423Y-69958423D01*
X141711053Y-70342108D01*
X141614389Y-70137866D01*
X141199423Y-69761959D01*
X140811039Y-69601096D01*
X140589000Y-69723085D01*
X140589000Y-70866000D01*
X140609000Y-70866000D01*
X140609000Y-71120000D01*
X140589000Y-71120000D01*
X140589000Y-71140000D01*
X140335000Y-71140000D01*
X140335000Y-71120000D01*
X138049000Y-71120000D01*
X138049000Y-71140000D01*
X137795000Y-71140000D01*
X137795000Y-71120000D01*
X136645750Y-71120000D01*
X136487000Y-71278750D01*
X136487000Y-71503000D01*
X136085711Y-71503000D01*
X135968280Y-71385569D01*
X135587874Y-71228000D01*
X135176126Y-71228000D01*
X134795720Y-71385569D01*
X134504569Y-71676720D01*
X134347000Y-72057126D01*
X134347000Y-72468874D01*
X134504569Y-72849280D01*
X134795720Y-73140431D01*
X135176126Y-73298000D01*
X135587874Y-73298000D01*
X135968280Y-73140431D01*
X136085711Y-73023000D01*
X137226199Y-73023000D01*
X140572896Y-76369698D01*
X140551000Y-76422561D01*
X140551000Y-76993439D01*
X140769466Y-77520862D01*
X141173138Y-77924534D01*
X141226001Y-77946430D01*
X141226000Y-81219198D01*
X141036199Y-81409000D01*
X137597802Y-81409000D01*
X137644473Y-81362329D01*
X137707929Y-81319929D01*
X137875904Y-81068537D01*
X137920000Y-80846852D01*
X137920000Y-80846847D01*
X137934888Y-80772000D01*
X137920000Y-80697153D01*
X137920000Y-77946430D01*
X137972862Y-77924534D01*
X138376534Y-77520862D01*
X138595000Y-76993439D01*
X138595000Y-76422561D01*
X138376534Y-75895138D01*
X137972862Y-75491466D01*
X137445439Y-75273000D01*
X136874561Y-75273000D01*
X136821698Y-75294896D01*
X136226331Y-74699530D01*
X136183929Y-74636071D01*
X135932537Y-74468096D01*
X135710852Y-74424000D01*
X135710847Y-74424000D01*
X135636000Y-74409112D01*
X135561153Y-74424000D01*
X131886802Y-74424000D01*
X130511331Y-73048530D01*
X130468929Y-72985071D01*
X130217537Y-72817096D01*
X129995852Y-72773000D01*
X129995847Y-72773000D01*
X129921000Y-72758112D01*
X129846153Y-72773000D01*
X127834432Y-72773000D01*
X127111667Y-72050235D01*
X127145577Y-72027577D01*
X127381000Y-71675242D01*
X127616423Y-72027577D01*
X128091091Y-72344740D01*
X128509667Y-72428000D01*
X128792333Y-72428000D01*
X129210909Y-72344740D01*
X129685577Y-72027577D01*
X129941947Y-71643892D01*
X130038611Y-71848134D01*
X130453577Y-72224041D01*
X130841961Y-72384904D01*
X131064000Y-72262915D01*
X131064000Y-71120000D01*
X131318000Y-71120000D01*
X131318000Y-72262915D01*
X131540039Y-72384904D01*
X131928423Y-72224041D01*
X132343389Y-71848134D01*
X132582914Y-71342041D01*
X132461629Y-71120000D01*
X131318000Y-71120000D01*
X131064000Y-71120000D01*
X131044000Y-71120000D01*
X131044000Y-70866000D01*
X131064000Y-70866000D01*
X131064000Y-70846000D01*
X131318000Y-70846000D01*
X131318000Y-70866000D01*
X132461629Y-70866000D01*
X132582914Y-70643959D01*
X132377515Y-70209971D01*
X132503537Y-70184904D01*
X132680455Y-70066691D01*
X136487000Y-70066691D01*
X136487000Y-70707250D01*
X136645750Y-70866000D01*
X137795000Y-70866000D01*
X137795000Y-69716750D01*
X138049000Y-69716750D01*
X138049000Y-70866000D01*
X140335000Y-70866000D01*
X140335000Y-69723085D01*
X140112961Y-69601096D01*
X139724577Y-69761959D01*
X139357000Y-70094938D01*
X139357000Y-70066691D01*
X139260327Y-69833302D01*
X139081699Y-69654673D01*
X138848310Y-69558000D01*
X138207750Y-69558000D01*
X138049000Y-69716750D01*
X137795000Y-69716750D01*
X137636250Y-69558000D01*
X136995690Y-69558000D01*
X136762301Y-69654673D01*
X136583673Y-69833302D01*
X136487000Y-70066691D01*
X132680455Y-70066691D01*
X132754929Y-70016929D01*
X132797331Y-69953470D01*
X133326473Y-69424329D01*
X133389929Y-69381929D01*
X133557904Y-69130537D01*
X133602000Y-68908852D01*
X133602000Y-68908848D01*
X133616888Y-68834000D01*
X133602000Y-68759152D01*
X133602000Y-58752745D01*
X134172861Y-58752745D01*
X134246995Y-58998864D01*
X134784223Y-59191965D01*
X135354454Y-59164778D01*
X135755005Y-58998864D01*
X135829139Y-58752745D01*
X135001000Y-57924605D01*
X134172861Y-58752745D01*
X133602000Y-58752745D01*
X133602000Y-58148616D01*
X133747136Y-58499005D01*
X133993255Y-58573139D01*
X134821395Y-57745000D01*
X135180605Y-57745000D01*
X136008745Y-58573139D01*
X136254864Y-58499005D01*
X136447965Y-57961777D01*
X136420778Y-57391546D01*
X136254864Y-56990995D01*
X136008745Y-56916861D01*
X135180605Y-57745000D01*
X134821395Y-57745000D01*
X133993255Y-56916861D01*
X133747136Y-56990995D01*
X133602000Y-57394779D01*
X133602000Y-55617351D01*
X133784466Y-56057862D01*
X134188138Y-56461534D01*
X134253299Y-56488525D01*
X134246995Y-56491136D01*
X134172861Y-56737255D01*
X135001000Y-57565395D01*
X135829139Y-56737255D01*
X135755005Y-56491136D01*
X135748254Y-56488710D01*
X135813862Y-56461534D01*
X136145396Y-56130000D01*
X139606522Y-56130000D01*
X139648843Y-56342765D01*
X139789191Y-56552809D01*
X139999235Y-56693157D01*
X140212001Y-56735478D01*
X140212000Y-59831421D01*
X138098439Y-61944983D01*
X138063333Y-61938000D01*
X137780667Y-61938000D01*
X137362091Y-62021260D01*
X136887423Y-62338423D01*
X136570260Y-62813091D01*
X136458887Y-63373000D01*
X136570260Y-63932909D01*
X136887423Y-64407577D01*
X137362091Y-64724740D01*
X137780667Y-64808000D01*
X138063333Y-64808000D01*
X138481909Y-64724740D01*
X138956577Y-64407577D01*
X139192000Y-64055242D01*
X139427423Y-64407577D01*
X139902091Y-64724740D01*
X140320667Y-64808000D01*
X140603333Y-64808000D01*
X141021909Y-64724740D01*
X141496577Y-64407577D01*
X141732000Y-64055242D01*
X141967423Y-64407577D01*
X142242000Y-64591044D01*
X142242001Y-66360197D01*
X141692199Y-66910000D01*
X141526126Y-66910000D01*
X141145720Y-67067569D01*
X140854569Y-67358720D01*
X140697000Y-67739126D01*
X140697000Y-68150874D01*
X140854569Y-68531280D01*
X141145720Y-68822431D01*
X141526126Y-68980000D01*
X141937874Y-68980000D01*
X142318280Y-68822431D01*
X142609431Y-68531280D01*
X142767000Y-68150874D01*
X142767000Y-67984801D01*
X143184081Y-67567721D01*
X143267569Y-67769280D01*
X143558720Y-68060431D01*
X143939126Y-68218000D01*
X144350874Y-68218000D01*
X144731280Y-68060431D01*
X145022431Y-67769280D01*
X145180000Y-67388874D01*
X145180000Y-67222802D01*
X146026476Y-66376327D01*
X146089929Y-66333929D01*
X146132327Y-66270476D01*
X146132329Y-66270474D01*
X146158000Y-66232054D01*
X146158000Y-66626874D01*
X146315569Y-67007280D01*
X146606720Y-67298431D01*
X146987126Y-67456000D01*
X147398874Y-67456000D01*
X147779280Y-67298431D01*
X148070431Y-67007280D01*
X148228000Y-66626874D01*
X148228000Y-66460802D01*
X148566473Y-66122329D01*
X148629929Y-66079929D01*
X148797904Y-65828537D01*
X148842000Y-65606852D01*
X148842000Y-65606847D01*
X148856888Y-65532000D01*
X148842000Y-65457153D01*
X148842000Y-64591043D01*
X149116577Y-64407577D01*
X149352000Y-64055242D01*
X149587423Y-64407577D01*
X150062091Y-64724740D01*
X150480667Y-64808000D01*
X150763333Y-64808000D01*
X151181909Y-64724740D01*
X151656577Y-64407577D01*
X151892000Y-64055242D01*
X152127423Y-64407577D01*
X152602091Y-64724740D01*
X153020667Y-64808000D01*
X153303333Y-64808000D01*
X153721909Y-64724740D01*
X154196577Y-64407577D01*
X154380043Y-64133000D01*
X154483957Y-64133000D01*
X154667423Y-64407577D01*
X155142091Y-64724740D01*
X155560667Y-64808000D01*
X155843333Y-64808000D01*
X156261909Y-64724740D01*
X156736577Y-64407577D01*
X157053740Y-63932909D01*
X157165113Y-63373000D01*
X157053740Y-62813091D01*
X156736577Y-62338423D01*
X156261909Y-62021260D01*
X155843333Y-61938000D01*
X155560667Y-61938000D01*
X155142091Y-62021260D01*
X154667423Y-62338423D01*
X154483957Y-62613000D01*
X154380043Y-62613000D01*
X154196577Y-62338423D01*
X153922000Y-62154957D01*
X153922000Y-60907848D01*
X153936888Y-60833000D01*
X153922000Y-60758152D01*
X153922000Y-60758148D01*
X153877904Y-60536463D01*
X153877904Y-60536462D01*
X153752329Y-60348527D01*
X153709929Y-60285071D01*
X153646473Y-60242671D01*
X152017000Y-58613199D01*
X152017000Y-56523178D01*
X152327625Y-56315625D01*
X152527000Y-56017239D01*
X152726375Y-56315625D01*
X153217582Y-56643839D01*
X153650744Y-56730000D01*
X153943256Y-56730000D01*
X154376418Y-56643839D01*
X154867625Y-56315625D01*
X155195839Y-55824418D01*
X155311092Y-55245000D01*
X155195839Y-54665582D01*
X154867625Y-54174375D01*
X154376418Y-53846161D01*
X153943256Y-53760000D01*
X153650744Y-53760000D01*
X153430592Y-53803791D01*
X150450331Y-50823530D01*
X150407929Y-50760071D01*
X150156537Y-50592096D01*
X149934852Y-50548000D01*
X149934847Y-50548000D01*
X149860000Y-50533112D01*
X149785153Y-50548000D01*
X86815846Y-50548000D01*
X86740999Y-50533112D01*
X86666152Y-50548000D01*
X86666148Y-50548000D01*
X86444463Y-50592096D01*
X86193071Y-50760071D01*
X86150671Y-50823527D01*
X84097528Y-52876671D01*
X84034072Y-52919071D01*
X83991672Y-52982527D01*
X83991671Y-52982528D01*
X83866097Y-53170463D01*
X83807112Y-53467000D01*
X83822001Y-53541852D01*
X83822000Y-56313153D01*
X83807112Y-56388000D01*
X83822000Y-56462847D01*
X83822000Y-56462851D01*
X83866096Y-56684536D01*
X84034071Y-56935929D01*
X84097530Y-56978331D01*
X85727001Y-58607803D01*
X85727000Y-62154956D01*
X85452423Y-62338423D01*
X85217000Y-62690758D01*
X84981577Y-62338423D01*
X84506909Y-62021260D01*
X84088333Y-61938000D01*
X83805667Y-61938000D01*
X83387091Y-62021260D01*
X82912423Y-62338423D01*
X82595260Y-62813091D01*
X82483887Y-63373000D01*
X82595260Y-63932909D01*
X82912423Y-64407577D01*
X83062001Y-64507522D01*
X83062000Y-69562467D01*
X82899235Y-69594843D01*
X82689191Y-69735191D01*
X82548843Y-69945235D01*
X82499560Y-70193000D01*
X82499560Y-71793000D01*
X82548843Y-72040765D01*
X82689191Y-72250809D01*
X82899235Y-72391157D01*
X83147000Y-72440440D01*
X84747000Y-72440440D01*
X84994765Y-72391157D01*
X85204809Y-72250809D01*
X85345157Y-72040765D01*
X85371785Y-71906894D01*
X85452423Y-72027577D01*
X85727000Y-72211044D01*
X85727001Y-79949197D01*
X84097530Y-81578669D01*
X84034071Y-81621071D01*
X83866096Y-81872464D01*
X83822000Y-82094149D01*
X83822000Y-82094153D01*
X83807112Y-82169000D01*
X83822000Y-82243847D01*
X83822000Y-82856149D01*
X83822001Y-89845378D01*
X83807112Y-89920230D01*
X83822001Y-89995082D01*
X83827936Y-90024920D01*
X83866097Y-90216767D01*
X83989665Y-90401699D01*
X84034072Y-90468159D01*
X84097528Y-90510559D01*
X85776460Y-92189492D01*
X85818860Y-92252948D01*
X85820434Y-92254000D01*
X82848667Y-92254000D01*
X82350301Y-92191042D01*
X81925111Y-92022697D01*
X81555141Y-91753899D01*
X81263645Y-91401541D01*
X81068933Y-90987756D01*
X80976907Y-90505339D01*
X80974000Y-90412836D01*
X80974000Y-51606666D01*
X81036958Y-51108302D01*
X81205305Y-50683107D01*
X81474101Y-50313142D01*
X81826462Y-50021644D01*
X82240244Y-49826933D01*
X82722662Y-49734907D01*
X82815164Y-49732000D01*
X156419334Y-49732000D01*
X156917698Y-49794958D01*
G36*
X109857000Y-61401802D02*
X109857001Y-63935968D01*
X109842112Y-64010820D01*
X109901097Y-64307357D01*
X110009708Y-64469904D01*
X110069072Y-64558749D01*
X110132528Y-64601149D01*
X111870861Y-66339483D01*
X111913261Y-66402939D01*
X112164653Y-66570914D01*
X112386338Y-66615010D01*
X112386342Y-66615010D01*
X112461190Y-66629898D01*
X112536038Y-66615010D01*
X123554143Y-66615010D01*
X123628990Y-66629898D01*
X123703837Y-66615010D01*
X123703842Y-66615010D01*
X123925527Y-66570914D01*
X124176919Y-66402939D01*
X124219321Y-66339480D01*
X125787114Y-64771688D01*
X125969667Y-64808000D01*
X126252333Y-64808000D01*
X126670909Y-64724740D01*
X127145577Y-64407577D01*
X127381000Y-64055242D01*
X127616423Y-64407577D01*
X128091091Y-64724740D01*
X128509667Y-64808000D01*
X128792333Y-64808000D01*
X129210909Y-64724740D01*
X129685577Y-64407577D01*
X129869043Y-64133000D01*
X129972957Y-64133000D01*
X130156423Y-64407577D01*
X130631091Y-64724740D01*
X131049667Y-64808000D01*
X131332333Y-64808000D01*
X131750909Y-64724740D01*
X132082000Y-64503512D01*
X132082000Y-68519198D01*
X131892199Y-68709000D01*
X130249846Y-68709000D01*
X130174999Y-68694112D01*
X130100152Y-68709000D01*
X130100148Y-68709000D01*
X129878463Y-68753096D01*
X129878461Y-68753097D01*
X129878462Y-68753097D01*
X129690526Y-68878671D01*
X129690524Y-68878673D01*
X129627071Y-68921071D01*
X129584673Y-68984524D01*
X128974886Y-69594312D01*
X128792333Y-69558000D01*
X128509667Y-69558000D01*
X128091091Y-69641260D01*
X127616423Y-69958423D01*
X127381000Y-70310758D01*
X127145577Y-69958423D01*
X126670909Y-69641260D01*
X126252333Y-69558000D01*
X125969667Y-69558000D01*
X125551091Y-69641260D01*
X125076423Y-69958423D01*
X124841000Y-70310758D01*
X124605577Y-69958423D01*
X124130909Y-69641260D01*
X123712333Y-69558000D01*
X123429667Y-69558000D01*
X123011091Y-69641260D01*
X122536423Y-69958423D01*
X122301000Y-70310758D01*
X122065577Y-69958423D01*
X121590909Y-69641260D01*
X121172333Y-69558000D01*
X120889667Y-69558000D01*
X120471091Y-69641260D01*
X119996423Y-69958423D01*
X119761000Y-70310758D01*
X119525577Y-69958423D01*
X119050909Y-69641260D01*
X118632333Y-69558000D01*
X118349667Y-69558000D01*
X117931091Y-69641260D01*
X117456423Y-69958423D01*
X117200053Y-70342108D01*
X117103389Y-70137866D01*
X116688423Y-69761959D01*
X116300039Y-69601096D01*
X116078000Y-69723085D01*
X116078000Y-70866000D01*
X116098000Y-70866000D01*
X116098000Y-71120000D01*
X116078000Y-71120000D01*
X116078000Y-72262915D01*
X116300039Y-72384904D01*
X116688423Y-72224041D01*
X117103389Y-71848134D01*
X117200053Y-71643892D01*
X117456423Y-72027577D01*
X117931091Y-72344740D01*
X118349667Y-72428000D01*
X118632333Y-72428000D01*
X119050909Y-72344740D01*
X119525577Y-72027577D01*
X119761000Y-71675242D01*
X119996423Y-72027577D01*
X120471091Y-72344740D01*
X120889667Y-72428000D01*
X121172333Y-72428000D01*
X121590909Y-72344740D01*
X122065577Y-72027577D01*
X122301000Y-71675242D01*
X122536423Y-72027577D01*
X123011091Y-72344740D01*
X123429667Y-72428000D01*
X123712333Y-72428000D01*
X124130909Y-72344740D01*
X124605577Y-72027577D01*
X124841000Y-71675242D01*
X125076423Y-72027577D01*
X125353713Y-72212856D01*
X125395097Y-72420907D01*
X125487727Y-72559537D01*
X125563072Y-72672299D01*
X125626528Y-72714699D01*
X126229829Y-73318000D01*
X113352711Y-73318000D01*
X113235280Y-73200569D01*
X112854874Y-73043000D01*
X112443126Y-73043000D01*
X112062720Y-73200569D01*
X111771569Y-73491720D01*
X111614000Y-73872126D01*
X111614000Y-74043000D01*
X111370487Y-74043000D01*
X111138015Y-73810529D01*
X111095614Y-73747071D01*
X110844222Y-73579096D01*
X110701397Y-73550686D01*
X110568280Y-73417569D01*
X110187874Y-73260000D01*
X109776126Y-73260000D01*
X109395720Y-73417569D01*
X109104569Y-73708720D01*
X109058278Y-73820477D01*
X108604000Y-73366199D01*
X108604000Y-73200126D01*
X108446431Y-72819720D01*
X108155280Y-72528569D01*
X107774874Y-72371000D01*
X107363126Y-72371000D01*
X106982720Y-72528569D01*
X106691569Y-72819720D01*
X106534000Y-73200126D01*
X106534000Y-73316569D01*
X105267666Y-72050235D01*
X105301577Y-72027577D01*
X105557947Y-71643892D01*
X105654611Y-71848134D01*
X106069577Y-72224041D01*
X106457961Y-72384904D01*
X106680000Y-72262915D01*
X106680000Y-71120000D01*
X106934000Y-71120000D01*
X106934000Y-72262915D01*
X107156039Y-72384904D01*
X107544423Y-72224041D01*
X107959389Y-71848134D01*
X108198914Y-71342041D01*
X108164343Y-71278750D01*
X111976000Y-71278750D01*
X111976000Y-71919309D01*
X112072673Y-72152698D01*
X112251301Y-72331327D01*
X112484690Y-72428000D01*
X113125250Y-72428000D01*
X113284000Y-72269250D01*
X113284000Y-71120000D01*
X113538000Y-71120000D01*
X113538000Y-72269250D01*
X113696750Y-72428000D01*
X114337310Y-72428000D01*
X114570699Y-72331327D01*
X114749327Y-72152698D01*
X114846000Y-71919309D01*
X114846000Y-71891062D01*
X115213577Y-72224041D01*
X115601961Y-72384904D01*
X115824000Y-72262915D01*
X115824000Y-71120000D01*
X113538000Y-71120000D01*
X113284000Y-71120000D01*
X112134750Y-71120000D01*
X111976000Y-71278750D01*
X108164343Y-71278750D01*
X108077629Y-71120000D01*
X106934000Y-71120000D01*
X106680000Y-71120000D01*
X106660000Y-71120000D01*
X106660000Y-70866000D01*
X106680000Y-70866000D01*
X106680000Y-69723085D01*
X106934000Y-69723085D01*
X106934000Y-70866000D01*
X108077629Y-70866000D01*
X108198914Y-70643959D01*
X107959389Y-70137866D01*
X107880819Y-70066691D01*
X111976000Y-70066691D01*
X111976000Y-70707250D01*
X112134750Y-70866000D01*
X113284000Y-70866000D01*
X113284000Y-69716750D01*
X113538000Y-69716750D01*
X113538000Y-70866000D01*
X115824000Y-70866000D01*
X115824000Y-69723085D01*
X115601961Y-69601096D01*
X115213577Y-69761959D01*
X114846000Y-70094938D01*
X114846000Y-70066691D01*
X114749327Y-69833302D01*
X114570699Y-69654673D01*
X114337310Y-69558000D01*
X113696750Y-69558000D01*
X113538000Y-69716750D01*
X113284000Y-69716750D01*
X113125250Y-69558000D01*
X112484690Y-69558000D01*
X112251301Y-69654673D01*
X112072673Y-69833302D01*
X111976000Y-70066691D01*
X107880819Y-70066691D01*
X107544423Y-69761959D01*
X107156039Y-69601096D01*
X106934000Y-69723085D01*
X106680000Y-69723085D01*
X106457961Y-69601096D01*
X106069577Y-69761959D01*
X105654611Y-70137866D01*
X105557947Y-70342108D01*
X105301577Y-69958423D01*
X104826909Y-69641260D01*
X104408333Y-69558000D01*
X104125667Y-69558000D01*
X103707091Y-69641260D01*
X103232423Y-69958423D01*
X102997000Y-70310758D01*
X102761577Y-69958423D01*
X102286909Y-69641260D01*
X101868333Y-69558000D01*
X101585667Y-69558000D01*
X101167091Y-69641260D01*
X100692423Y-69958423D01*
X100457000Y-70310758D01*
X100221577Y-69958423D01*
X99746909Y-69641260D01*
X99328333Y-69558000D01*
X99045667Y-69558000D01*
X98627091Y-69641260D01*
X98152423Y-69958423D01*
X97917000Y-70310758D01*
X97681577Y-69958423D01*
X97206909Y-69641260D01*
X96788333Y-69558000D01*
X96505667Y-69558000D01*
X96087091Y-69641260D01*
X95612423Y-69958423D01*
X95377000Y-70310758D01*
X95141577Y-69958423D01*
X94666909Y-69641260D01*
X94248333Y-69558000D01*
X93965667Y-69558000D01*
X93547091Y-69641260D01*
X93072423Y-69958423D01*
X92837000Y-70310758D01*
X92601577Y-69958423D01*
X92126909Y-69641260D01*
X91708333Y-69558000D01*
X91425667Y-69558000D01*
X91007091Y-69641260D01*
X90532423Y-69958423D01*
X90297000Y-70310758D01*
X90061577Y-69958423D01*
X89586909Y-69641260D01*
X89168333Y-69558000D01*
X88885667Y-69558000D01*
X88467091Y-69641260D01*
X87992423Y-69958423D01*
X87757000Y-70310758D01*
X87521577Y-69958423D01*
X87046909Y-69641260D01*
X86628333Y-69558000D01*
X86345667Y-69558000D01*
X85927091Y-69641260D01*
X85452423Y-69958423D01*
X85371785Y-70079106D01*
X85345157Y-69945235D01*
X85204809Y-69735191D01*
X84994765Y-69594843D01*
X84832000Y-69562467D01*
X84832000Y-64507521D01*
X84981577Y-64407577D01*
X85217000Y-64055242D01*
X85452423Y-64407577D01*
X85927091Y-64724740D01*
X86345667Y-64808000D01*
X86628333Y-64808000D01*
X87046909Y-64724740D01*
X87521577Y-64407577D01*
X87757000Y-64055242D01*
X87992423Y-64407577D01*
X88467091Y-64724740D01*
X88885667Y-64808000D01*
X89168333Y-64808000D01*
X89586909Y-64724740D01*
X90061577Y-64407577D01*
X90297000Y-64055242D01*
X90532423Y-64407577D01*
X91007091Y-64724740D01*
X91425667Y-64808000D01*
X91708333Y-64808000D01*
X92126909Y-64724740D01*
X92601577Y-64407577D01*
X92837000Y-64055242D01*
X93072423Y-64407577D01*
X93547091Y-64724740D01*
X93965667Y-64808000D01*
X94248333Y-64808000D01*
X94666909Y-64724740D01*
X95141577Y-64407577D01*
X95377000Y-64055242D01*
X95612423Y-64407577D01*
X96087091Y-64724740D01*
X96505667Y-64808000D01*
X96788333Y-64808000D01*
X97206909Y-64724740D01*
X97681577Y-64407577D01*
X97917000Y-64055242D01*
X98152423Y-64407577D01*
X98627091Y-64724740D01*
X99045667Y-64808000D01*
X99328333Y-64808000D01*
X99746909Y-64724740D01*
X100221577Y-64407577D01*
X100457000Y-64055242D01*
X100692423Y-64407577D01*
X101167091Y-64724740D01*
X101585667Y-64808000D01*
X101868333Y-64808000D01*
X102286909Y-64724740D01*
X102761577Y-64407577D01*
X102997000Y-64055242D01*
X103232423Y-64407577D01*
X103509713Y-64592856D01*
X103551097Y-64800907D01*
X103645153Y-64941671D01*
X103719072Y-65052299D01*
X103782528Y-65094699D01*
X105148630Y-66460802D01*
X105148630Y-66626874D01*
X105306199Y-67007280D01*
X105597350Y-67298431D01*
X105977756Y-67456000D01*
X106389504Y-67456000D01*
X106769910Y-67298431D01*
X107061061Y-67007280D01*
X107218630Y-66626874D01*
X107218630Y-66215126D01*
X107061061Y-65834720D01*
X106769910Y-65543569D01*
X106389504Y-65386000D01*
X106223432Y-65386000D01*
X105267667Y-64430235D01*
X105301577Y-64407577D01*
X105537000Y-64055242D01*
X105772423Y-64407577D01*
X106247091Y-64724740D01*
X106665667Y-64808000D01*
X106948333Y-64808000D01*
X107366909Y-64724740D01*
X107841577Y-64407577D01*
X108158740Y-63932909D01*
X108270113Y-63373000D01*
X108158740Y-62813091D01*
X107841577Y-62338423D01*
X107366909Y-62021260D01*
X106948333Y-61938000D01*
X106665667Y-61938000D01*
X106483113Y-61974312D01*
X106272330Y-61763529D01*
X106272328Y-61763526D01*
X104349331Y-59840530D01*
X104349329Y-59840527D01*
X103587331Y-59078530D01*
X103544929Y-59015071D01*
X103411625Y-58926000D01*
X107381199Y-58926000D01*
X109857000Y-61401802D01*
X109857000Y-61401802D01*
G37*
X109857000Y-61401802D02*
X109857001Y-63935968D01*
X109842112Y-64010820D01*
X109901097Y-64307357D01*
X110009708Y-64469904D01*
X110069072Y-64558749D01*
X110132528Y-64601149D01*
X111870861Y-66339483D01*
X111913261Y-66402939D01*
X112164653Y-66570914D01*
X112386338Y-66615010D01*
X112386342Y-66615010D01*
X112461190Y-66629898D01*
X112536038Y-66615010D01*
X123554143Y-66615010D01*
X123628990Y-66629898D01*
X123703837Y-66615010D01*
X123703842Y-66615010D01*
X123925527Y-66570914D01*
X124176919Y-66402939D01*
X124219321Y-66339480D01*
X125787114Y-64771688D01*
X125969667Y-64808000D01*
X126252333Y-64808000D01*
X126670909Y-64724740D01*
X127145577Y-64407577D01*
X127381000Y-64055242D01*
X127616423Y-64407577D01*
X128091091Y-64724740D01*
X128509667Y-64808000D01*
X128792333Y-64808000D01*
X129210909Y-64724740D01*
X129685577Y-64407577D01*
X129869043Y-64133000D01*
X129972957Y-64133000D01*
X130156423Y-64407577D01*
X130631091Y-64724740D01*
X131049667Y-64808000D01*
X131332333Y-64808000D01*
X131750909Y-64724740D01*
X132082000Y-64503512D01*
X132082000Y-68519198D01*
X131892199Y-68709000D01*
X130249846Y-68709000D01*
X130174999Y-68694112D01*
X130100152Y-68709000D01*
X130100148Y-68709000D01*
X129878463Y-68753096D01*
X129878461Y-68753097D01*
X129878462Y-68753097D01*
X129690526Y-68878671D01*
X129690524Y-68878673D01*
X129627071Y-68921071D01*
X129584673Y-68984524D01*
X128974886Y-69594312D01*
X128792333Y-69558000D01*
X128509667Y-69558000D01*
X128091091Y-69641260D01*
X127616423Y-69958423D01*
X127381000Y-70310758D01*
X127145577Y-69958423D01*
X126670909Y-69641260D01*
X126252333Y-69558000D01*
X125969667Y-69558000D01*
X125551091Y-69641260D01*
X125076423Y-69958423D01*
X124841000Y-70310758D01*
X124605577Y-69958423D01*
X124130909Y-69641260D01*
X123712333Y-69558000D01*
X123429667Y-69558000D01*
X123011091Y-69641260D01*
X122536423Y-69958423D01*
X122301000Y-70310758D01*
X122065577Y-69958423D01*
X121590909Y-69641260D01*
X121172333Y-69558000D01*
X120889667Y-69558000D01*
X120471091Y-69641260D01*
X119996423Y-69958423D01*
X119761000Y-70310758D01*
X119525577Y-69958423D01*
X119050909Y-69641260D01*
X118632333Y-69558000D01*
X118349667Y-69558000D01*
X117931091Y-69641260D01*
X117456423Y-69958423D01*
X117200053Y-70342108D01*
X117103389Y-70137866D01*
X116688423Y-69761959D01*
X116300039Y-69601096D01*
X116078000Y-69723085D01*
X116078000Y-70866000D01*
X116098000Y-70866000D01*
X116098000Y-71120000D01*
X116078000Y-71120000D01*
X116078000Y-72262915D01*
X116300039Y-72384904D01*
X116688423Y-72224041D01*
X117103389Y-71848134D01*
X117200053Y-71643892D01*
X117456423Y-72027577D01*
X117931091Y-72344740D01*
X118349667Y-72428000D01*
X118632333Y-72428000D01*
X119050909Y-72344740D01*
X119525577Y-72027577D01*
X119761000Y-71675242D01*
X119996423Y-72027577D01*
X120471091Y-72344740D01*
X120889667Y-72428000D01*
X121172333Y-72428000D01*
X121590909Y-72344740D01*
X122065577Y-72027577D01*
X122301000Y-71675242D01*
X122536423Y-72027577D01*
X123011091Y-72344740D01*
X123429667Y-72428000D01*
X123712333Y-72428000D01*
X124130909Y-72344740D01*
X124605577Y-72027577D01*
X124841000Y-71675242D01*
X125076423Y-72027577D01*
X125353713Y-72212856D01*
X125395097Y-72420907D01*
X125487727Y-72559537D01*
X125563072Y-72672299D01*
X125626528Y-72714699D01*
X126229829Y-73318000D01*
X113352711Y-73318000D01*
X113235280Y-73200569D01*
X112854874Y-73043000D01*
X112443126Y-73043000D01*
X112062720Y-73200569D01*
X111771569Y-73491720D01*
X111614000Y-73872126D01*
X111614000Y-74043000D01*
X111370487Y-74043000D01*
X111138015Y-73810529D01*
X111095614Y-73747071D01*
X110844222Y-73579096D01*
X110701397Y-73550686D01*
X110568280Y-73417569D01*
X110187874Y-73260000D01*
X109776126Y-73260000D01*
X109395720Y-73417569D01*
X109104569Y-73708720D01*
X109058278Y-73820477D01*
X108604000Y-73366199D01*
X108604000Y-73200126D01*
X108446431Y-72819720D01*
X108155280Y-72528569D01*
X107774874Y-72371000D01*
X107363126Y-72371000D01*
X106982720Y-72528569D01*
X106691569Y-72819720D01*
X106534000Y-73200126D01*
X106534000Y-73316569D01*
X105267666Y-72050235D01*
X105301577Y-72027577D01*
X105557947Y-71643892D01*
X105654611Y-71848134D01*
X106069577Y-72224041D01*
X106457961Y-72384904D01*
X106680000Y-72262915D01*
X106680000Y-71120000D01*
X106934000Y-71120000D01*
X106934000Y-72262915D01*
X107156039Y-72384904D01*
X107544423Y-72224041D01*
X107959389Y-71848134D01*
X108198914Y-71342041D01*
X108164343Y-71278750D01*
X111976000Y-71278750D01*
X111976000Y-71919309D01*
X112072673Y-72152698D01*
X112251301Y-72331327D01*
X112484690Y-72428000D01*
X113125250Y-72428000D01*
X113284000Y-72269250D01*
X113284000Y-71120000D01*
X113538000Y-71120000D01*
X113538000Y-72269250D01*
X113696750Y-72428000D01*
X114337310Y-72428000D01*
X114570699Y-72331327D01*
X114749327Y-72152698D01*
X114846000Y-71919309D01*
X114846000Y-71891062D01*
X115213577Y-72224041D01*
X115601961Y-72384904D01*
X115824000Y-72262915D01*
X115824000Y-71120000D01*
X113538000Y-71120000D01*
X113284000Y-71120000D01*
X112134750Y-71120000D01*
X111976000Y-71278750D01*
X108164343Y-71278750D01*
X108077629Y-71120000D01*
X106934000Y-71120000D01*
X106680000Y-71120000D01*
X106660000Y-71120000D01*
X106660000Y-70866000D01*
X106680000Y-70866000D01*
X106680000Y-69723085D01*
X106934000Y-69723085D01*
X106934000Y-70866000D01*
X108077629Y-70866000D01*
X108198914Y-70643959D01*
X107959389Y-70137866D01*
X107880819Y-70066691D01*
X111976000Y-70066691D01*
X111976000Y-70707250D01*
X112134750Y-70866000D01*
X113284000Y-70866000D01*
X113284000Y-69716750D01*
X113538000Y-69716750D01*
X113538000Y-70866000D01*
X115824000Y-70866000D01*
X115824000Y-69723085D01*
X115601961Y-69601096D01*
X115213577Y-69761959D01*
X114846000Y-70094938D01*
X114846000Y-70066691D01*
X114749327Y-69833302D01*
X114570699Y-69654673D01*
X114337310Y-69558000D01*
X113696750Y-69558000D01*
X113538000Y-69716750D01*
X113284000Y-69716750D01*
X113125250Y-69558000D01*
X112484690Y-69558000D01*
X112251301Y-69654673D01*
X112072673Y-69833302D01*
X111976000Y-70066691D01*
X107880819Y-70066691D01*
X107544423Y-69761959D01*
X107156039Y-69601096D01*
X106934000Y-69723085D01*
X106680000Y-69723085D01*
X106457961Y-69601096D01*
X106069577Y-69761959D01*
X105654611Y-70137866D01*
X105557947Y-70342108D01*
X105301577Y-69958423D01*
X104826909Y-69641260D01*
X104408333Y-69558000D01*
X104125667Y-69558000D01*
X103707091Y-69641260D01*
X103232423Y-69958423D01*
X102997000Y-70310758D01*
X102761577Y-69958423D01*
X102286909Y-69641260D01*
X101868333Y-69558000D01*
X101585667Y-69558000D01*
X101167091Y-69641260D01*
X100692423Y-69958423D01*
X100457000Y-70310758D01*
X100221577Y-69958423D01*
X99746909Y-69641260D01*
X99328333Y-69558000D01*
X99045667Y-69558000D01*
X98627091Y-69641260D01*
X98152423Y-69958423D01*
X97917000Y-70310758D01*
X97681577Y-69958423D01*
X97206909Y-69641260D01*
X96788333Y-69558000D01*
X96505667Y-69558000D01*
X96087091Y-69641260D01*
X95612423Y-69958423D01*
X95377000Y-70310758D01*
X95141577Y-69958423D01*
X94666909Y-69641260D01*
X94248333Y-69558000D01*
X93965667Y-69558000D01*
X93547091Y-69641260D01*
X93072423Y-69958423D01*
X92837000Y-70310758D01*
X92601577Y-69958423D01*
X92126909Y-69641260D01*
X91708333Y-69558000D01*
X91425667Y-69558000D01*
X91007091Y-69641260D01*
X90532423Y-69958423D01*
X90297000Y-70310758D01*
X90061577Y-69958423D01*
X89586909Y-69641260D01*
X89168333Y-69558000D01*
X88885667Y-69558000D01*
X88467091Y-69641260D01*
X87992423Y-69958423D01*
X87757000Y-70310758D01*
X87521577Y-69958423D01*
X87046909Y-69641260D01*
X86628333Y-69558000D01*
X86345667Y-69558000D01*
X85927091Y-69641260D01*
X85452423Y-69958423D01*
X85371785Y-70079106D01*
X85345157Y-69945235D01*
X85204809Y-69735191D01*
X84994765Y-69594843D01*
X84832000Y-69562467D01*
X84832000Y-64507521D01*
X84981577Y-64407577D01*
X85217000Y-64055242D01*
X85452423Y-64407577D01*
X85927091Y-64724740D01*
X86345667Y-64808000D01*
X86628333Y-64808000D01*
X87046909Y-64724740D01*
X87521577Y-64407577D01*
X87757000Y-64055242D01*
X87992423Y-64407577D01*
X88467091Y-64724740D01*
X88885667Y-64808000D01*
X89168333Y-64808000D01*
X89586909Y-64724740D01*
X90061577Y-64407577D01*
X90297000Y-64055242D01*
X90532423Y-64407577D01*
X91007091Y-64724740D01*
X91425667Y-64808000D01*
X91708333Y-64808000D01*
X92126909Y-64724740D01*
X92601577Y-64407577D01*
X92837000Y-64055242D01*
X93072423Y-64407577D01*
X93547091Y-64724740D01*
X93965667Y-64808000D01*
X94248333Y-64808000D01*
X94666909Y-64724740D01*
X95141577Y-64407577D01*
X95377000Y-64055242D01*
X95612423Y-64407577D01*
X96087091Y-64724740D01*
X96505667Y-64808000D01*
X96788333Y-64808000D01*
X97206909Y-64724740D01*
X97681577Y-64407577D01*
X97917000Y-64055242D01*
X98152423Y-64407577D01*
X98627091Y-64724740D01*
X99045667Y-64808000D01*
X99328333Y-64808000D01*
X99746909Y-64724740D01*
X100221577Y-64407577D01*
X100457000Y-64055242D01*
X100692423Y-64407577D01*
X101167091Y-64724740D01*
X101585667Y-64808000D01*
X101868333Y-64808000D01*
X102286909Y-64724740D01*
X102761577Y-64407577D01*
X102997000Y-64055242D01*
X103232423Y-64407577D01*
X103509713Y-64592856D01*
X103551097Y-64800907D01*
X103645153Y-64941671D01*
X103719072Y-65052299D01*
X103782528Y-65094699D01*
X105148630Y-66460802D01*
X105148630Y-66626874D01*
X105306199Y-67007280D01*
X105597350Y-67298431D01*
X105977756Y-67456000D01*
X106389504Y-67456000D01*
X106769910Y-67298431D01*
X107061061Y-67007280D01*
X107218630Y-66626874D01*
X107218630Y-66215126D01*
X107061061Y-65834720D01*
X106769910Y-65543569D01*
X106389504Y-65386000D01*
X106223432Y-65386000D01*
X105267667Y-64430235D01*
X105301577Y-64407577D01*
X105537000Y-64055242D01*
X105772423Y-64407577D01*
X106247091Y-64724740D01*
X106665667Y-64808000D01*
X106948333Y-64808000D01*
X107366909Y-64724740D01*
X107841577Y-64407577D01*
X108158740Y-63932909D01*
X108270113Y-63373000D01*
X108158740Y-62813091D01*
X107841577Y-62338423D01*
X107366909Y-62021260D01*
X106948333Y-61938000D01*
X106665667Y-61938000D01*
X106483113Y-61974312D01*
X106272330Y-61763529D01*
X106272328Y-61763526D01*
X104349331Y-59840530D01*
X104349329Y-59840527D01*
X103587331Y-59078530D01*
X103544929Y-59015071D01*
X103411625Y-58926000D01*
X107381199Y-58926000D01*
X109857000Y-61401802D01*
G36*
X143764000Y-55118000D02*
X143784000Y-55118000D01*
X143784000Y-55372000D01*
X143764000Y-55372000D01*
X143764000Y-56565155D01*
X143993890Y-56686476D01*
X144403924Y-56516645D01*
X144832183Y-56126358D01*
X144893157Y-55996522D01*
X145106375Y-56315625D01*
X145597582Y-56643839D01*
X146030289Y-56729909D01*
X140785887Y-61974312D01*
X140607708Y-61938870D01*
X141661156Y-60885423D01*
X141735049Y-60836049D01*
X141930652Y-60543310D01*
X141982000Y-60285165D01*
X141982000Y-60285160D01*
X141999337Y-60198001D01*
X141982000Y-60110841D01*
X141982000Y-56735478D01*
X142194765Y-56693157D01*
X142404809Y-56552809D01*
X142545157Y-56342765D01*
X142565739Y-56239292D01*
X142870076Y-56516645D01*
X143280110Y-56686476D01*
X143510000Y-56565155D01*
X143510000Y-55372000D01*
X143490000Y-55372000D01*
X143490000Y-55118000D01*
X143510000Y-55118000D01*
X143510000Y-55098000D01*
X143764000Y-55098000D01*
X143764000Y-55118000D01*
X143764000Y-55118000D01*
G37*
X143764000Y-55118000D02*
X143784000Y-55118000D01*
X143784000Y-55372000D01*
X143764000Y-55372000D01*
X143764000Y-56565155D01*
X143993890Y-56686476D01*
X144403924Y-56516645D01*
X144832183Y-56126358D01*
X144893157Y-55996522D01*
X145106375Y-56315625D01*
X145597582Y-56643839D01*
X146030289Y-56729909D01*
X140785887Y-61974312D01*
X140607708Y-61938870D01*
X141661156Y-60885423D01*
X141735049Y-60836049D01*
X141930652Y-60543310D01*
X141982000Y-60285165D01*
X141982000Y-60285160D01*
X141999337Y-60198001D01*
X141982000Y-60110841D01*
X141982000Y-56735478D01*
X142194765Y-56693157D01*
X142404809Y-56552809D01*
X142545157Y-56342765D01*
X142565739Y-56239292D01*
X142870076Y-56516645D01*
X143280110Y-56686476D01*
X143510000Y-56565155D01*
X143510000Y-55372000D01*
X143490000Y-55372000D01*
X143490000Y-55118000D01*
X143510000Y-55118000D01*
X143510000Y-55098000D01*
X143764000Y-55098000D01*
X143764000Y-55118000D01*
G04 #@! TD*
M02*
