M48
;DRILL file {KiCad 5.0.2-bee76a0~70~ubuntu16.04.1} date lun 13 ene 2020 18:56:08 CST
;FORMAT={-:-/ absolute / metric / decimal}
FMAT,2
METRIC,TZ
T1C0.400
T2C0.800
T3C0.900
T4C1.000
%
G90
G05
T1
X93.345Y-58.42
X104.902Y-74.295
X105.029Y-75.438
X106.184Y-66.421
X107.569Y-73.406
X109.982Y-74.295
X112.649Y-74.078
X135.382Y-72.263
X139.827Y-73.025
X141.732Y-67.945
X144.145Y-67.183
X145.669Y-73.787
X147.193Y-66.421
T2
X141.986Y-76.708
X141.986Y-84.328
X151.638Y-76.708
X151.638Y-84.328
X117.856Y-76.708
X117.856Y-84.328
X122.682Y-76.708
X122.682Y-84.328
X113.411Y-63.373
X113.411Y-70.993
X115.951Y-63.373
X115.951Y-70.993
X118.491Y-63.373
X118.491Y-70.993
X121.031Y-63.373
X121.031Y-70.993
X123.571Y-63.373
X123.571Y-70.993
X126.111Y-63.373
X126.111Y-70.993
X128.651Y-63.373
X128.651Y-70.993
X131.191Y-63.373
X131.191Y-70.993
X146.812Y-76.708
X146.812Y-84.328
X137.922Y-63.373
X137.922Y-70.993
X140.462Y-63.373
X140.462Y-70.993
X143.002Y-63.373
X143.002Y-70.993
X145.542Y-63.373
X145.542Y-70.993
X148.082Y-63.373
X148.082Y-70.993
X150.622Y-63.373
X150.622Y-70.993
X153.162Y-63.373
X153.162Y-70.993
X155.702Y-63.373
X155.702Y-70.993
X132.334Y-76.708
X132.334Y-84.328
X83.947Y-63.373
X83.947Y-70.993
X86.487Y-63.373
X86.487Y-70.993
X89.027Y-63.373
X89.027Y-70.993
X91.567Y-63.373
X91.567Y-70.993
X94.107Y-63.373
X94.107Y-70.993
X96.647Y-63.373
X96.647Y-70.993
X99.187Y-63.373
X99.187Y-70.993
X101.727Y-63.373
X101.727Y-70.993
X104.267Y-63.373
X104.267Y-70.993
X106.807Y-63.373
X106.807Y-70.993
X127.508Y-76.708
X127.508Y-84.328
X135.001Y-55.245
X135.001Y-57.745
X137.16Y-76.708
X137.16Y-84.328
T3
X132.334Y-86.995
X132.334Y-89.535
X117.856Y-86.995
X117.856Y-89.535
X137.16Y-86.995
X137.16Y-89.535
X127.508Y-86.995
X127.508Y-89.535
X141.986Y-86.995
X141.986Y-89.535
X122.682Y-86.995
X122.682Y-89.535
X151.638Y-86.995
X151.638Y-89.535
X146.812Y-86.995
X146.812Y-89.535
T4
X141.097Y-55.245
X143.637Y-55.245
X146.177Y-55.245
X148.717Y-55.245
X151.257Y-55.245
X153.797Y-55.245
X88.265Y-88.9
X90.805Y-88.9
X93.345Y-88.9
X95.885Y-88.9
X98.425Y-88.9
X100.965Y-88.9
X103.505Y-88.9
X106.045Y-88.9
X88.265Y-55.245
X90.805Y-55.245
X93.345Y-55.245
X95.885Y-55.245
X98.425Y-55.245
X100.965Y-55.245
X103.505Y-55.245
X106.045Y-55.245
T0
M30
