G04 #@! TF.GenerationSoftware,KiCad,Pcbnew,5.0.2-bee76a0~70~ubuntu16.04.1*
G04 #@! TF.CreationDate,2020-01-13T19:01:32-06:00*
G04 #@! TF.ProjectId,GPRegisters,47505265-6769-4737-9465-72732e6b6963,rev?*
G04 #@! TF.SameCoordinates,Original*
G04 #@! TF.FileFunction,Legend,Top*
G04 #@! TF.FilePolarity,Positive*
%FSLAX46Y46*%
G04 Gerber Fmt 4.6, Leading zero omitted, Abs format (unit mm)*
G04 Created by KiCad (PCBNEW 5.0.2-bee76a0~70~ubuntu16.04.1) date lun 13 ene 2020 19:01:32 CST*
%MOMM*%
%LPD*%
G01*
G04 APERTURE LIST*
%ADD10C,0.300000*%
%ADD11C,0.150000*%
%ADD12C,0.120000*%
G04 APERTURE END LIST*
D10*
X98274857Y-79434571D02*
X98274857Y-80720285D01*
X98203428Y-80863142D01*
X98060571Y-80934571D01*
X97989142Y-80934571D01*
X98274857Y-78934571D02*
X98203428Y-79006000D01*
X98274857Y-79077428D01*
X98346285Y-79006000D01*
X98274857Y-78934571D01*
X98274857Y-79077428D01*
X99203428Y-80434571D02*
X99060571Y-80363142D01*
X98989142Y-80291714D01*
X98917714Y-80148857D01*
X98917714Y-79720285D01*
X98989142Y-79577428D01*
X99060571Y-79506000D01*
X99203428Y-79434571D01*
X99417714Y-79434571D01*
X99560571Y-79506000D01*
X99632000Y-79577428D01*
X99703428Y-79720285D01*
X99703428Y-80148857D01*
X99632000Y-80291714D01*
X99560571Y-80363142D01*
X99417714Y-80434571D01*
X99203428Y-80434571D01*
X100346285Y-80434571D02*
X100346285Y-78934571D01*
X100989142Y-80434571D02*
X100989142Y-79648857D01*
X100917714Y-79506000D01*
X100774857Y-79434571D01*
X100560571Y-79434571D01*
X100417714Y-79506000D01*
X100346285Y-79577428D01*
X101703428Y-79434571D02*
X101703428Y-80434571D01*
X101703428Y-79577428D02*
X101774857Y-79506000D01*
X101917714Y-79434571D01*
X102132000Y-79434571D01*
X102274857Y-79506000D01*
X102346285Y-79648857D01*
X102346285Y-80434571D01*
X103060571Y-79434571D02*
X103060571Y-80434571D01*
X103060571Y-79577428D02*
X103132000Y-79506000D01*
X103274857Y-79434571D01*
X103489142Y-79434571D01*
X103632000Y-79506000D01*
X103703428Y-79648857D01*
X103703428Y-80434571D01*
X104274857Y-79434571D02*
X104632000Y-80434571D01*
X104989142Y-79434571D02*
X104632000Y-80434571D01*
X104489142Y-80791714D01*
X104417714Y-80863142D01*
X104274857Y-80934571D01*
X105560571Y-80434571D02*
X105560571Y-79434571D01*
X105560571Y-79720285D02*
X105632000Y-79577428D01*
X105703428Y-79506000D01*
X105846285Y-79434571D01*
X105989142Y-79434571D01*
X106417714Y-80363142D02*
X106560571Y-80434571D01*
X106846285Y-80434571D01*
X106989142Y-80363142D01*
X107060571Y-80220285D01*
X107060571Y-80148857D01*
X106989142Y-80006000D01*
X106846285Y-79934571D01*
X106632000Y-79934571D01*
X106489142Y-79863142D01*
X106417714Y-79720285D01*
X106417714Y-79648857D01*
X106489142Y-79506000D01*
X106632000Y-79434571D01*
X106846285Y-79434571D01*
X106989142Y-79506000D01*
X107703428Y-80434571D02*
X107703428Y-79434571D01*
X107703428Y-79577428D02*
X107774857Y-79506000D01*
X107917714Y-79434571D01*
X108132000Y-79434571D01*
X108274857Y-79506000D01*
X108346285Y-79648857D01*
X108346285Y-80434571D01*
X108346285Y-79648857D02*
X108417714Y-79506000D01*
X108560571Y-79434571D01*
X108774857Y-79434571D01*
X108917714Y-79506000D01*
X108989142Y-79648857D01*
X108989142Y-80434571D01*
D11*
X88169761Y-92114619D02*
X88074523Y-92067000D01*
X87979285Y-91971761D01*
X87836428Y-91828904D01*
X87741190Y-91781285D01*
X87645952Y-91781285D01*
X87693571Y-92019380D02*
X87598333Y-91971761D01*
X87503095Y-91876523D01*
X87455476Y-91686047D01*
X87455476Y-91352714D01*
X87503095Y-91162238D01*
X87598333Y-91067000D01*
X87693571Y-91019380D01*
X87884047Y-91019380D01*
X87979285Y-91067000D01*
X88074523Y-91162238D01*
X88122142Y-91352714D01*
X88122142Y-91686047D01*
X88074523Y-91876523D01*
X87979285Y-91971761D01*
X87884047Y-92019380D01*
X87693571Y-92019380D01*
X88455476Y-91019380D02*
X89122142Y-91019380D01*
X88693571Y-92019380D01*
X100869761Y-92114619D02*
X100774523Y-92067000D01*
X100679285Y-91971761D01*
X100536428Y-91828904D01*
X100441190Y-91781285D01*
X100345952Y-91781285D01*
X100393571Y-92019380D02*
X100298333Y-91971761D01*
X100203095Y-91876523D01*
X100155476Y-91686047D01*
X100155476Y-91352714D01*
X100203095Y-91162238D01*
X100298333Y-91067000D01*
X100393571Y-91019380D01*
X100584047Y-91019380D01*
X100679285Y-91067000D01*
X100774523Y-91162238D01*
X100822142Y-91352714D01*
X100822142Y-91686047D01*
X100774523Y-91876523D01*
X100679285Y-91971761D01*
X100584047Y-92019380D01*
X100393571Y-92019380D01*
X101203095Y-91114619D02*
X101250714Y-91067000D01*
X101345952Y-91019380D01*
X101584047Y-91019380D01*
X101679285Y-91067000D01*
X101726904Y-91114619D01*
X101774523Y-91209857D01*
X101774523Y-91305095D01*
X101726904Y-91447952D01*
X101155476Y-92019380D01*
X101774523Y-92019380D01*
X105949761Y-92114619D02*
X105854523Y-92067000D01*
X105759285Y-91971761D01*
X105616428Y-91828904D01*
X105521190Y-91781285D01*
X105425952Y-91781285D01*
X105473571Y-92019380D02*
X105378333Y-91971761D01*
X105283095Y-91876523D01*
X105235476Y-91686047D01*
X105235476Y-91352714D01*
X105283095Y-91162238D01*
X105378333Y-91067000D01*
X105473571Y-91019380D01*
X105664047Y-91019380D01*
X105759285Y-91067000D01*
X105854523Y-91162238D01*
X105902142Y-91352714D01*
X105902142Y-91686047D01*
X105854523Y-91876523D01*
X105759285Y-91971761D01*
X105664047Y-92019380D01*
X105473571Y-92019380D01*
X106521190Y-91019380D02*
X106616428Y-91019380D01*
X106711666Y-91067000D01*
X106759285Y-91114619D01*
X106806904Y-91209857D01*
X106854523Y-91400333D01*
X106854523Y-91638428D01*
X106806904Y-91828904D01*
X106759285Y-91924142D01*
X106711666Y-91971761D01*
X106616428Y-92019380D01*
X106521190Y-92019380D01*
X106425952Y-91971761D01*
X106378333Y-91924142D01*
X106330714Y-91828904D01*
X106283095Y-91638428D01*
X106283095Y-91400333D01*
X106330714Y-91209857D01*
X106378333Y-91114619D01*
X106425952Y-91067000D01*
X106521190Y-91019380D01*
X98329761Y-92114619D02*
X98234523Y-92067000D01*
X98139285Y-91971761D01*
X97996428Y-91828904D01*
X97901190Y-91781285D01*
X97805952Y-91781285D01*
X97853571Y-92019380D02*
X97758333Y-91971761D01*
X97663095Y-91876523D01*
X97615476Y-91686047D01*
X97615476Y-91352714D01*
X97663095Y-91162238D01*
X97758333Y-91067000D01*
X97853571Y-91019380D01*
X98044047Y-91019380D01*
X98139285Y-91067000D01*
X98234523Y-91162238D01*
X98282142Y-91352714D01*
X98282142Y-91686047D01*
X98234523Y-91876523D01*
X98139285Y-91971761D01*
X98044047Y-92019380D01*
X97853571Y-92019380D01*
X98615476Y-91019380D02*
X99234523Y-91019380D01*
X98901190Y-91400333D01*
X99044047Y-91400333D01*
X99139285Y-91447952D01*
X99186904Y-91495571D01*
X99234523Y-91590809D01*
X99234523Y-91828904D01*
X99186904Y-91924142D01*
X99139285Y-91971761D01*
X99044047Y-92019380D01*
X98758333Y-92019380D01*
X98663095Y-91971761D01*
X98615476Y-91924142D01*
X103536761Y-92114619D02*
X103441523Y-92067000D01*
X103346285Y-91971761D01*
X103203428Y-91828904D01*
X103108190Y-91781285D01*
X103012952Y-91781285D01*
X103060571Y-92019380D02*
X102965333Y-91971761D01*
X102870095Y-91876523D01*
X102822476Y-91686047D01*
X102822476Y-91352714D01*
X102870095Y-91162238D01*
X102965333Y-91067000D01*
X103060571Y-91019380D01*
X103251047Y-91019380D01*
X103346285Y-91067000D01*
X103441523Y-91162238D01*
X103489142Y-91352714D01*
X103489142Y-91686047D01*
X103441523Y-91876523D01*
X103346285Y-91971761D01*
X103251047Y-92019380D01*
X103060571Y-92019380D01*
X104441523Y-92019380D02*
X103870095Y-92019380D01*
X104155809Y-92019380D02*
X104155809Y-91019380D01*
X104060571Y-91162238D01*
X103965333Y-91257476D01*
X103870095Y-91305095D01*
X95789761Y-92114619D02*
X95694523Y-92067000D01*
X95599285Y-91971761D01*
X95456428Y-91828904D01*
X95361190Y-91781285D01*
X95265952Y-91781285D01*
X95313571Y-92019380D02*
X95218333Y-91971761D01*
X95123095Y-91876523D01*
X95075476Y-91686047D01*
X95075476Y-91352714D01*
X95123095Y-91162238D01*
X95218333Y-91067000D01*
X95313571Y-91019380D01*
X95504047Y-91019380D01*
X95599285Y-91067000D01*
X95694523Y-91162238D01*
X95742142Y-91352714D01*
X95742142Y-91686047D01*
X95694523Y-91876523D01*
X95599285Y-91971761D01*
X95504047Y-92019380D01*
X95313571Y-92019380D01*
X96599285Y-91352714D02*
X96599285Y-92019380D01*
X96361190Y-90971761D02*
X96123095Y-91686047D01*
X96742142Y-91686047D01*
X90709761Y-92114619D02*
X90614523Y-92067000D01*
X90519285Y-91971761D01*
X90376428Y-91828904D01*
X90281190Y-91781285D01*
X90185952Y-91781285D01*
X90233571Y-92019380D02*
X90138333Y-91971761D01*
X90043095Y-91876523D01*
X89995476Y-91686047D01*
X89995476Y-91352714D01*
X90043095Y-91162238D01*
X90138333Y-91067000D01*
X90233571Y-91019380D01*
X90424047Y-91019380D01*
X90519285Y-91067000D01*
X90614523Y-91162238D01*
X90662142Y-91352714D01*
X90662142Y-91686047D01*
X90614523Y-91876523D01*
X90519285Y-91971761D01*
X90424047Y-92019380D01*
X90233571Y-92019380D01*
X91519285Y-91019380D02*
X91328809Y-91019380D01*
X91233571Y-91067000D01*
X91185952Y-91114619D01*
X91090714Y-91257476D01*
X91043095Y-91447952D01*
X91043095Y-91828904D01*
X91090714Y-91924142D01*
X91138333Y-91971761D01*
X91233571Y-92019380D01*
X91424047Y-92019380D01*
X91519285Y-91971761D01*
X91566904Y-91924142D01*
X91614523Y-91828904D01*
X91614523Y-91590809D01*
X91566904Y-91495571D01*
X91519285Y-91447952D01*
X91424047Y-91400333D01*
X91233571Y-91400333D01*
X91138333Y-91447952D01*
X91090714Y-91495571D01*
X91043095Y-91590809D01*
X93249761Y-92114619D02*
X93154523Y-92067000D01*
X93059285Y-91971761D01*
X92916428Y-91828904D01*
X92821190Y-91781285D01*
X92725952Y-91781285D01*
X92773571Y-92019380D02*
X92678333Y-91971761D01*
X92583095Y-91876523D01*
X92535476Y-91686047D01*
X92535476Y-91352714D01*
X92583095Y-91162238D01*
X92678333Y-91067000D01*
X92773571Y-91019380D01*
X92964047Y-91019380D01*
X93059285Y-91067000D01*
X93154523Y-91162238D01*
X93202142Y-91352714D01*
X93202142Y-91686047D01*
X93154523Y-91876523D01*
X93059285Y-91971761D01*
X92964047Y-92019380D01*
X92773571Y-92019380D01*
X94106904Y-91019380D02*
X93630714Y-91019380D01*
X93583095Y-91495571D01*
X93630714Y-91447952D01*
X93725952Y-91400333D01*
X93964047Y-91400333D01*
X94059285Y-91447952D01*
X94106904Y-91495571D01*
X94154523Y-91590809D01*
X94154523Y-91828904D01*
X94106904Y-91924142D01*
X94059285Y-91971761D01*
X93964047Y-92019380D01*
X93725952Y-92019380D01*
X93630714Y-91971761D01*
X93583095Y-91924142D01*
X87526904Y-53030380D02*
X87526904Y-52030380D01*
X87765000Y-52030380D01*
X87907857Y-52078000D01*
X88003095Y-52173238D01*
X88050714Y-52268476D01*
X88098333Y-52458952D01*
X88098333Y-52601809D01*
X88050714Y-52792285D01*
X88003095Y-52887523D01*
X87907857Y-52982761D01*
X87765000Y-53030380D01*
X87526904Y-53030380D01*
X88431666Y-52030380D02*
X89098333Y-52030380D01*
X88669761Y-53030380D01*
X90066904Y-53030380D02*
X90066904Y-52030380D01*
X90305000Y-52030380D01*
X90447857Y-52078000D01*
X90543095Y-52173238D01*
X90590714Y-52268476D01*
X90638333Y-52458952D01*
X90638333Y-52601809D01*
X90590714Y-52792285D01*
X90543095Y-52887523D01*
X90447857Y-52982761D01*
X90305000Y-53030380D01*
X90066904Y-53030380D01*
X91495476Y-52030380D02*
X91305000Y-52030380D01*
X91209761Y-52078000D01*
X91162142Y-52125619D01*
X91066904Y-52268476D01*
X91019285Y-52458952D01*
X91019285Y-52839904D01*
X91066904Y-52935142D01*
X91114523Y-52982761D01*
X91209761Y-53030380D01*
X91400238Y-53030380D01*
X91495476Y-52982761D01*
X91543095Y-52935142D01*
X91590714Y-52839904D01*
X91590714Y-52601809D01*
X91543095Y-52506571D01*
X91495476Y-52458952D01*
X91400238Y-52411333D01*
X91209761Y-52411333D01*
X91114523Y-52458952D01*
X91066904Y-52506571D01*
X91019285Y-52601809D01*
X92606904Y-53030380D02*
X92606904Y-52030380D01*
X92845000Y-52030380D01*
X92987857Y-52078000D01*
X93083095Y-52173238D01*
X93130714Y-52268476D01*
X93178333Y-52458952D01*
X93178333Y-52601809D01*
X93130714Y-52792285D01*
X93083095Y-52887523D01*
X92987857Y-52982761D01*
X92845000Y-53030380D01*
X92606904Y-53030380D01*
X94083095Y-52030380D02*
X93606904Y-52030380D01*
X93559285Y-52506571D01*
X93606904Y-52458952D01*
X93702142Y-52411333D01*
X93940238Y-52411333D01*
X94035476Y-52458952D01*
X94083095Y-52506571D01*
X94130714Y-52601809D01*
X94130714Y-52839904D01*
X94083095Y-52935142D01*
X94035476Y-52982761D01*
X93940238Y-53030380D01*
X93702142Y-53030380D01*
X93606904Y-52982761D01*
X93559285Y-52935142D01*
X95146904Y-53030380D02*
X95146904Y-52030380D01*
X95385000Y-52030380D01*
X95527857Y-52078000D01*
X95623095Y-52173238D01*
X95670714Y-52268476D01*
X95718333Y-52458952D01*
X95718333Y-52601809D01*
X95670714Y-52792285D01*
X95623095Y-52887523D01*
X95527857Y-52982761D01*
X95385000Y-53030380D01*
X95146904Y-53030380D01*
X96575476Y-52363714D02*
X96575476Y-53030380D01*
X96337380Y-51982761D02*
X96099285Y-52697047D01*
X96718333Y-52697047D01*
X97686904Y-53030380D02*
X97686904Y-52030380D01*
X97925000Y-52030380D01*
X98067857Y-52078000D01*
X98163095Y-52173238D01*
X98210714Y-52268476D01*
X98258333Y-52458952D01*
X98258333Y-52601809D01*
X98210714Y-52792285D01*
X98163095Y-52887523D01*
X98067857Y-52982761D01*
X97925000Y-53030380D01*
X97686904Y-53030380D01*
X98591666Y-52030380D02*
X99210714Y-52030380D01*
X98877380Y-52411333D01*
X99020238Y-52411333D01*
X99115476Y-52458952D01*
X99163095Y-52506571D01*
X99210714Y-52601809D01*
X99210714Y-52839904D01*
X99163095Y-52935142D01*
X99115476Y-52982761D01*
X99020238Y-53030380D01*
X98734523Y-53030380D01*
X98639285Y-52982761D01*
X98591666Y-52935142D01*
X102893904Y-53030380D02*
X102893904Y-52030380D01*
X103132000Y-52030380D01*
X103274857Y-52078000D01*
X103370095Y-52173238D01*
X103417714Y-52268476D01*
X103465333Y-52458952D01*
X103465333Y-52601809D01*
X103417714Y-52792285D01*
X103370095Y-52887523D01*
X103274857Y-52982761D01*
X103132000Y-53030380D01*
X102893904Y-53030380D01*
X104417714Y-53030380D02*
X103846285Y-53030380D01*
X104132000Y-53030380D02*
X104132000Y-52030380D01*
X104036761Y-52173238D01*
X103941523Y-52268476D01*
X103846285Y-52316095D01*
X100353904Y-53030380D02*
X100353904Y-52030380D01*
X100592000Y-52030380D01*
X100734857Y-52078000D01*
X100830095Y-52173238D01*
X100877714Y-52268476D01*
X100925333Y-52458952D01*
X100925333Y-52601809D01*
X100877714Y-52792285D01*
X100830095Y-52887523D01*
X100734857Y-52982761D01*
X100592000Y-53030380D01*
X100353904Y-53030380D01*
X101306285Y-52125619D02*
X101353904Y-52078000D01*
X101449142Y-52030380D01*
X101687238Y-52030380D01*
X101782476Y-52078000D01*
X101830095Y-52125619D01*
X101877714Y-52220857D01*
X101877714Y-52316095D01*
X101830095Y-52458952D01*
X101258666Y-53030380D01*
X101877714Y-53030380D01*
X105433904Y-53030380D02*
X105433904Y-52030380D01*
X105672000Y-52030380D01*
X105814857Y-52078000D01*
X105910095Y-52173238D01*
X105957714Y-52268476D01*
X106005333Y-52458952D01*
X106005333Y-52601809D01*
X105957714Y-52792285D01*
X105910095Y-52887523D01*
X105814857Y-52982761D01*
X105672000Y-53030380D01*
X105433904Y-53030380D01*
X106624380Y-52030380D02*
X106719619Y-52030380D01*
X106814857Y-52078000D01*
X106862476Y-52125619D01*
X106910095Y-52220857D01*
X106957714Y-52411333D01*
X106957714Y-52649428D01*
X106910095Y-52839904D01*
X106862476Y-52935142D01*
X106814857Y-52982761D01*
X106719619Y-53030380D01*
X106624380Y-53030380D01*
X106529142Y-52982761D01*
X106481523Y-52935142D01*
X106433904Y-52839904D01*
X106386285Y-52649428D01*
X106386285Y-52411333D01*
X106433904Y-52220857D01*
X106481523Y-52125619D01*
X106529142Y-52078000D01*
X106624380Y-52030380D01*
X153009000Y-53427190D02*
X153009000Y-52522428D01*
X153852571Y-53189095D02*
X153852571Y-52855761D01*
X154376380Y-52712904D02*
X154376380Y-53189095D01*
X153376380Y-53189095D01*
X153376380Y-52712904D01*
X153009000Y-52522428D02*
X153009000Y-51474809D01*
X154376380Y-52284333D02*
X153376380Y-52284333D01*
X154376380Y-51712904D01*
X153376380Y-51712904D01*
X147929000Y-53419142D02*
X147929000Y-52609619D01*
X149296380Y-52704857D02*
X149296380Y-53181047D01*
X148296380Y-53181047D01*
X147929000Y-52609619D02*
X147929000Y-51562000D01*
X148296380Y-52181047D02*
X148296380Y-51990571D01*
X148344000Y-51895333D01*
X148439238Y-51800095D01*
X148629714Y-51752476D01*
X148963047Y-51752476D01*
X149153523Y-51800095D01*
X149248761Y-51895333D01*
X149296380Y-51990571D01*
X149296380Y-52181047D01*
X149248761Y-52276285D01*
X149153523Y-52371523D01*
X148963047Y-52419142D01*
X148629714Y-52419142D01*
X148439238Y-52371523D01*
X148344000Y-52276285D01*
X148296380Y-52181047D01*
X147929000Y-51562000D02*
X147929000Y-50704857D01*
X149010666Y-51371523D02*
X149010666Y-50895333D01*
X149296380Y-51466761D02*
X148296380Y-51133428D01*
X149296380Y-50800095D01*
X147929000Y-50704857D02*
X147929000Y-49704857D01*
X149296380Y-50466761D02*
X148296380Y-50466761D01*
X148296380Y-50228666D01*
X148344000Y-50085809D01*
X148439238Y-49990571D01*
X148534476Y-49942952D01*
X148724952Y-49895333D01*
X148867809Y-49895333D01*
X149058285Y-49942952D01*
X149153523Y-49990571D01*
X149248761Y-50085809D01*
X149296380Y-50228666D01*
X149296380Y-50466761D01*
X151741142Y-52665238D02*
X151788761Y-52712857D01*
X151836380Y-52855714D01*
X151836380Y-52950952D01*
X151788761Y-53093809D01*
X151693523Y-53189047D01*
X151598285Y-53236666D01*
X151407809Y-53284285D01*
X151264952Y-53284285D01*
X151074476Y-53236666D01*
X150979238Y-53189047D01*
X150884000Y-53093809D01*
X150836380Y-52950952D01*
X150836380Y-52855714D01*
X150884000Y-52712857D01*
X150931619Y-52665238D01*
X151836380Y-51760476D02*
X151836380Y-52236666D01*
X150836380Y-52236666D01*
X151836380Y-50855714D02*
X151360190Y-51189047D01*
X151836380Y-51427142D02*
X150836380Y-51427142D01*
X150836380Y-51046190D01*
X150884000Y-50950952D01*
X150931619Y-50903333D01*
X151026857Y-50855714D01*
X151169714Y-50855714D01*
X151264952Y-50903333D01*
X151312571Y-50950952D01*
X151360190Y-51046190D01*
X151360190Y-51427142D01*
X146661142Y-52538238D02*
X146708761Y-52585857D01*
X146756380Y-52728714D01*
X146756380Y-52823952D01*
X146708761Y-52966809D01*
X146613523Y-53062047D01*
X146518285Y-53109666D01*
X146327809Y-53157285D01*
X146184952Y-53157285D01*
X145994476Y-53109666D01*
X145899238Y-53062047D01*
X145804000Y-52966809D01*
X145756380Y-52823952D01*
X145756380Y-52728714D01*
X145804000Y-52585857D01*
X145851619Y-52538238D01*
X146756380Y-51633476D02*
X146756380Y-52109666D01*
X145756380Y-52109666D01*
X146756380Y-51300142D02*
X145756380Y-51300142D01*
X146756380Y-50728714D02*
X146184952Y-51157285D01*
X145756380Y-50728714D02*
X146327809Y-51300142D01*
X143264000Y-52577904D02*
X143216380Y-52673142D01*
X143216380Y-52816000D01*
X143264000Y-52958857D01*
X143359238Y-53054095D01*
X143454476Y-53101714D01*
X143644952Y-53149333D01*
X143787809Y-53149333D01*
X143978285Y-53101714D01*
X144073523Y-53054095D01*
X144168761Y-52958857D01*
X144216380Y-52816000D01*
X144216380Y-52720761D01*
X144168761Y-52577904D01*
X144121142Y-52530285D01*
X143787809Y-52530285D01*
X143787809Y-52720761D01*
X144216380Y-52101714D02*
X143216380Y-52101714D01*
X144216380Y-51530285D01*
X143216380Y-51530285D01*
X144216380Y-51054095D02*
X143216380Y-51054095D01*
X143216380Y-50816000D01*
X143264000Y-50673142D01*
X143359238Y-50577904D01*
X143454476Y-50530285D01*
X143644952Y-50482666D01*
X143787809Y-50482666D01*
X143978285Y-50530285D01*
X144073523Y-50577904D01*
X144168761Y-50673142D01*
X144216380Y-50816000D01*
X144216380Y-51054095D01*
X140422380Y-53149333D02*
X141422380Y-52816000D01*
X140422380Y-52482666D01*
X141327142Y-51577904D02*
X141374761Y-51625523D01*
X141422380Y-51768380D01*
X141422380Y-51863619D01*
X141374761Y-52006476D01*
X141279523Y-52101714D01*
X141184285Y-52149333D01*
X140993809Y-52196952D01*
X140850952Y-52196952D01*
X140660476Y-52149333D01*
X140565238Y-52101714D01*
X140470000Y-52006476D01*
X140422380Y-51863619D01*
X140422380Y-51768380D01*
X140470000Y-51625523D01*
X140517619Y-51577904D01*
X141327142Y-50577904D02*
X141374761Y-50625523D01*
X141422380Y-50768380D01*
X141422380Y-50863619D01*
X141374761Y-51006476D01*
X141279523Y-51101714D01*
X141184285Y-51149333D01*
X140993809Y-51196952D01*
X140850952Y-51196952D01*
X140660476Y-51149333D01*
X140565238Y-51101714D01*
X140470000Y-51006476D01*
X140422380Y-50863619D01*
X140422380Y-50768380D01*
X140470000Y-50625523D01*
X140517619Y-50577904D01*
D12*
G04 #@! TO.C,C1*
X134251000Y-58555000D02*
X133691000Y-58555000D01*
X136311000Y-58555000D02*
X135751000Y-58555000D01*
X134251000Y-54435000D02*
X133691000Y-54435000D01*
X136311000Y-54435000D02*
X135751000Y-54435000D01*
X133691000Y-54435000D02*
X133691000Y-58555000D01*
X136311000Y-54435000D02*
X136311000Y-58555000D01*
G04 #@! TO.C,D1*
X116777392Y-86592665D02*
G75*
G03X116620484Y-89825000I1078608J-1672335D01*
G01*
X118934608Y-86592665D02*
G75*
G02X119091516Y-89825000I-1078608J-1672335D01*
G01*
X116776163Y-87223870D02*
G75*
G03X116776000Y-89305961I1079837J-1041130D01*
G01*
X118935837Y-87223870D02*
G75*
G02X118936000Y-89305961I-1079837J-1041130D01*
G01*
X116620000Y-89825000D02*
X116776000Y-89825000D01*
X118936000Y-89825000D02*
X119092000Y-89825000D01*
G04 #@! TO.C,D2*
X123762000Y-89825000D02*
X123918000Y-89825000D01*
X121446000Y-89825000D02*
X121602000Y-89825000D01*
X123761837Y-87223870D02*
G75*
G02X123762000Y-89305961I-1079837J-1041130D01*
G01*
X121602163Y-87223870D02*
G75*
G03X121602000Y-89305961I1079837J-1041130D01*
G01*
X123760608Y-86592665D02*
G75*
G02X123917516Y-89825000I-1078608J-1672335D01*
G01*
X121603392Y-86592665D02*
G75*
G03X121446484Y-89825000I1078608J-1672335D01*
G01*
G04 #@! TO.C,D3*
X126429392Y-86592665D02*
G75*
G03X126272484Y-89825000I1078608J-1672335D01*
G01*
X128586608Y-86592665D02*
G75*
G02X128743516Y-89825000I-1078608J-1672335D01*
G01*
X126428163Y-87223870D02*
G75*
G03X126428000Y-89305961I1079837J-1041130D01*
G01*
X128587837Y-87223870D02*
G75*
G02X128588000Y-89305961I-1079837J-1041130D01*
G01*
X126272000Y-89825000D02*
X126428000Y-89825000D01*
X128588000Y-89825000D02*
X128744000Y-89825000D01*
G04 #@! TO.C,D4*
X133414000Y-89825000D02*
X133570000Y-89825000D01*
X131098000Y-89825000D02*
X131254000Y-89825000D01*
X133413837Y-87223870D02*
G75*
G02X133414000Y-89305961I-1079837J-1041130D01*
G01*
X131254163Y-87223870D02*
G75*
G03X131254000Y-89305961I1079837J-1041130D01*
G01*
X133412608Y-86592665D02*
G75*
G02X133569516Y-89825000I-1078608J-1672335D01*
G01*
X131255392Y-86592665D02*
G75*
G03X131098484Y-89825000I1078608J-1672335D01*
G01*
G04 #@! TO.C,D5*
X136081392Y-86592665D02*
G75*
G03X135924484Y-89825000I1078608J-1672335D01*
G01*
X138238608Y-86592665D02*
G75*
G02X138395516Y-89825000I-1078608J-1672335D01*
G01*
X136080163Y-87223870D02*
G75*
G03X136080000Y-89305961I1079837J-1041130D01*
G01*
X138239837Y-87223870D02*
G75*
G02X138240000Y-89305961I-1079837J-1041130D01*
G01*
X135924000Y-89825000D02*
X136080000Y-89825000D01*
X138240000Y-89825000D02*
X138396000Y-89825000D01*
G04 #@! TO.C,D6*
X143066000Y-89825000D02*
X143222000Y-89825000D01*
X140750000Y-89825000D02*
X140906000Y-89825000D01*
X143065837Y-87223870D02*
G75*
G02X143066000Y-89305961I-1079837J-1041130D01*
G01*
X140906163Y-87223870D02*
G75*
G03X140906000Y-89305961I1079837J-1041130D01*
G01*
X143064608Y-86592665D02*
G75*
G02X143221516Y-89825000I-1078608J-1672335D01*
G01*
X140907392Y-86592665D02*
G75*
G03X140750484Y-89825000I1078608J-1672335D01*
G01*
G04 #@! TO.C,D7*
X145733392Y-86592665D02*
G75*
G03X145576484Y-89825000I1078608J-1672335D01*
G01*
X147890608Y-86592665D02*
G75*
G02X148047516Y-89825000I-1078608J-1672335D01*
G01*
X145732163Y-87223870D02*
G75*
G03X145732000Y-89305961I1079837J-1041130D01*
G01*
X147891837Y-87223870D02*
G75*
G02X147892000Y-89305961I-1079837J-1041130D01*
G01*
X145576000Y-89825000D02*
X145732000Y-89825000D01*
X147892000Y-89825000D02*
X148048000Y-89825000D01*
G04 #@! TO.C,D8*
X152718000Y-89825000D02*
X152874000Y-89825000D01*
X150402000Y-89825000D02*
X150558000Y-89825000D01*
X152717837Y-87223870D02*
G75*
G02X152718000Y-89305961I-1079837J-1041130D01*
G01*
X150558163Y-87223870D02*
G75*
G03X150558000Y-89305961I1079837J-1041130D01*
G01*
X152716608Y-86592665D02*
G75*
G02X152873516Y-89825000I-1078608J-1672335D01*
G01*
X150559392Y-86592665D02*
G75*
G03X150402484Y-89825000I1078608J-1672335D01*
G01*
G04 #@! TO.C,J1*
X86935000Y-56575000D02*
X86935000Y-55245000D01*
X88265000Y-56575000D02*
X86935000Y-56575000D01*
X89535000Y-56575000D02*
X89535000Y-53915000D01*
X89535000Y-53915000D02*
X107375000Y-53915000D01*
X89535000Y-56575000D02*
X107375000Y-56575000D01*
X107375000Y-56575000D02*
X107375000Y-53915000D01*
G04 #@! TO.C,J2*
X139767000Y-56575000D02*
X139767000Y-55245000D01*
X141097000Y-56575000D02*
X139767000Y-56575000D01*
X142367000Y-56575000D02*
X142367000Y-53915000D01*
X142367000Y-53915000D02*
X155127000Y-53915000D01*
X142367000Y-56575000D02*
X155127000Y-56575000D01*
X155127000Y-56575000D02*
X155127000Y-53915000D01*
G04 #@! TO.C,J3*
X107375000Y-90230000D02*
X107375000Y-87570000D01*
X89535000Y-90230000D02*
X107375000Y-90230000D01*
X89535000Y-87570000D02*
X107375000Y-87570000D01*
X89535000Y-90230000D02*
X89535000Y-87570000D01*
X88265000Y-90230000D02*
X86935000Y-90230000D01*
X86935000Y-90230000D02*
X86935000Y-88900000D01*
G04 #@! TO.C,R1*
X118836000Y-77308000D02*
X119166000Y-77308000D01*
X119166000Y-77308000D02*
X119166000Y-83728000D01*
X119166000Y-83728000D02*
X118836000Y-83728000D01*
X116876000Y-77308000D02*
X116546000Y-77308000D01*
X116546000Y-77308000D02*
X116546000Y-83728000D01*
X116546000Y-83728000D02*
X116876000Y-83728000D01*
G04 #@! TO.C,R2*
X121372000Y-83728000D02*
X121702000Y-83728000D01*
X121372000Y-77308000D02*
X121372000Y-83728000D01*
X121702000Y-77308000D02*
X121372000Y-77308000D01*
X123992000Y-83728000D02*
X123662000Y-83728000D01*
X123992000Y-77308000D02*
X123992000Y-83728000D01*
X123662000Y-77308000D02*
X123992000Y-77308000D01*
G04 #@! TO.C,R3*
X128488000Y-77308000D02*
X128818000Y-77308000D01*
X128818000Y-77308000D02*
X128818000Y-83728000D01*
X128818000Y-83728000D02*
X128488000Y-83728000D01*
X126528000Y-77308000D02*
X126198000Y-77308000D01*
X126198000Y-77308000D02*
X126198000Y-83728000D01*
X126198000Y-83728000D02*
X126528000Y-83728000D01*
G04 #@! TO.C,R4*
X131024000Y-83728000D02*
X131354000Y-83728000D01*
X131024000Y-77308000D02*
X131024000Y-83728000D01*
X131354000Y-77308000D02*
X131024000Y-77308000D01*
X133644000Y-83728000D02*
X133314000Y-83728000D01*
X133644000Y-77308000D02*
X133644000Y-83728000D01*
X133314000Y-77308000D02*
X133644000Y-77308000D01*
G04 #@! TO.C,R5*
X135850000Y-83728000D02*
X136180000Y-83728000D01*
X135850000Y-77308000D02*
X135850000Y-83728000D01*
X136180000Y-77308000D02*
X135850000Y-77308000D01*
X138470000Y-83728000D02*
X138140000Y-83728000D01*
X138470000Y-77308000D02*
X138470000Y-83728000D01*
X138140000Y-77308000D02*
X138470000Y-77308000D01*
G04 #@! TO.C,R6*
X142966000Y-77308000D02*
X143296000Y-77308000D01*
X143296000Y-77308000D02*
X143296000Y-83728000D01*
X143296000Y-83728000D02*
X142966000Y-83728000D01*
X141006000Y-77308000D02*
X140676000Y-77308000D01*
X140676000Y-77308000D02*
X140676000Y-83728000D01*
X140676000Y-83728000D02*
X141006000Y-83728000D01*
G04 #@! TO.C,R7*
X145502000Y-83728000D02*
X145832000Y-83728000D01*
X145502000Y-77308000D02*
X145502000Y-83728000D01*
X145832000Y-77308000D02*
X145502000Y-77308000D01*
X148122000Y-83728000D02*
X147792000Y-83728000D01*
X148122000Y-77308000D02*
X148122000Y-83728000D01*
X147792000Y-77308000D02*
X148122000Y-77308000D01*
G04 #@! TO.C,R8*
X152618000Y-77308000D02*
X152948000Y-77308000D01*
X152948000Y-77308000D02*
X152948000Y-83728000D01*
X152948000Y-83728000D02*
X152618000Y-83728000D01*
X150658000Y-77308000D02*
X150328000Y-77308000D01*
X150328000Y-77308000D02*
X150328000Y-83728000D01*
X150328000Y-83728000D02*
X150658000Y-83728000D01*
G04 #@! TO.C,U1*
X136532000Y-62043000D02*
X136532000Y-72323000D01*
X157092000Y-62043000D02*
X136532000Y-62043000D01*
X157092000Y-72323000D02*
X157092000Y-62043000D01*
X136532000Y-72323000D02*
X157092000Y-72323000D01*
X136592000Y-64533000D02*
X136592000Y-66183000D01*
X157032000Y-64533000D02*
X136592000Y-64533000D01*
X157032000Y-69833000D02*
X157032000Y-64533000D01*
X136592000Y-69833000D02*
X157032000Y-69833000D01*
X136592000Y-68183000D02*
X136592000Y-69833000D01*
X136592000Y-66183000D02*
G75*
G02X136592000Y-68183000I0J-1000000D01*
G01*
G04 #@! TO.C,U2*
X112021000Y-62043000D02*
X112021000Y-72323000D01*
X132581000Y-62043000D02*
X112021000Y-62043000D01*
X132581000Y-72323000D02*
X132581000Y-62043000D01*
X112021000Y-72323000D02*
X132581000Y-72323000D01*
X112081000Y-64533000D02*
X112081000Y-66183000D01*
X132521000Y-64533000D02*
X112081000Y-64533000D01*
X132521000Y-69833000D02*
X132521000Y-64533000D01*
X112081000Y-69833000D02*
X132521000Y-69833000D01*
X112081000Y-68183000D02*
X112081000Y-69833000D01*
X112081000Y-66183000D02*
G75*
G02X112081000Y-68183000I0J-1000000D01*
G01*
G04 #@! TO.C,U3*
X82557000Y-62043000D02*
X82557000Y-72323000D01*
X108197000Y-62043000D02*
X82557000Y-62043000D01*
X108197000Y-72323000D02*
X108197000Y-62043000D01*
X82557000Y-72323000D02*
X108197000Y-72323000D01*
X82617000Y-64533000D02*
X82617000Y-66183000D01*
X108137000Y-64533000D02*
X82617000Y-64533000D01*
X108137000Y-69833000D02*
X108137000Y-64533000D01*
X82617000Y-69833000D02*
X108137000Y-69833000D01*
X82617000Y-68183000D02*
X82617000Y-69833000D01*
X82617000Y-66183000D02*
G75*
G02X82617000Y-68183000I0J-1000000D01*
G01*
G04 #@! TO.C,C1*
D11*
X134834333Y-53570142D02*
X134786714Y-53617761D01*
X134643857Y-53665380D01*
X134548619Y-53665380D01*
X134405761Y-53617761D01*
X134310523Y-53522523D01*
X134262904Y-53427285D01*
X134215285Y-53236809D01*
X134215285Y-53093952D01*
X134262904Y-52903476D01*
X134310523Y-52808238D01*
X134405761Y-52713000D01*
X134548619Y-52665380D01*
X134643857Y-52665380D01*
X134786714Y-52713000D01*
X134834333Y-52760619D01*
X135786714Y-53665380D02*
X135215285Y-53665380D01*
X135501000Y-53665380D02*
X135501000Y-52665380D01*
X135405761Y-52808238D01*
X135310523Y-52903476D01*
X135215285Y-52951095D01*
G04 #@! TO.C,D1*
X117117904Y-91892380D02*
X117117904Y-90892380D01*
X117356000Y-90892380D01*
X117498857Y-90940000D01*
X117594095Y-91035238D01*
X117641714Y-91130476D01*
X117689333Y-91320952D01*
X117689333Y-91463809D01*
X117641714Y-91654285D01*
X117594095Y-91749523D01*
X117498857Y-91844761D01*
X117356000Y-91892380D01*
X117117904Y-91892380D01*
X118641714Y-91892380D02*
X118070285Y-91892380D01*
X118356000Y-91892380D02*
X118356000Y-90892380D01*
X118260761Y-91035238D01*
X118165523Y-91130476D01*
X118070285Y-91178095D01*
G04 #@! TO.C,D2*
X121943904Y-91892380D02*
X121943904Y-90892380D01*
X122182000Y-90892380D01*
X122324857Y-90940000D01*
X122420095Y-91035238D01*
X122467714Y-91130476D01*
X122515333Y-91320952D01*
X122515333Y-91463809D01*
X122467714Y-91654285D01*
X122420095Y-91749523D01*
X122324857Y-91844761D01*
X122182000Y-91892380D01*
X121943904Y-91892380D01*
X122896285Y-90987619D02*
X122943904Y-90940000D01*
X123039142Y-90892380D01*
X123277238Y-90892380D01*
X123372476Y-90940000D01*
X123420095Y-90987619D01*
X123467714Y-91082857D01*
X123467714Y-91178095D01*
X123420095Y-91320952D01*
X122848666Y-91892380D01*
X123467714Y-91892380D01*
G04 #@! TO.C,D3*
X126769904Y-91892380D02*
X126769904Y-90892380D01*
X127008000Y-90892380D01*
X127150857Y-90940000D01*
X127246095Y-91035238D01*
X127293714Y-91130476D01*
X127341333Y-91320952D01*
X127341333Y-91463809D01*
X127293714Y-91654285D01*
X127246095Y-91749523D01*
X127150857Y-91844761D01*
X127008000Y-91892380D01*
X126769904Y-91892380D01*
X127674666Y-90892380D02*
X128293714Y-90892380D01*
X127960380Y-91273333D01*
X128103238Y-91273333D01*
X128198476Y-91320952D01*
X128246095Y-91368571D01*
X128293714Y-91463809D01*
X128293714Y-91701904D01*
X128246095Y-91797142D01*
X128198476Y-91844761D01*
X128103238Y-91892380D01*
X127817523Y-91892380D01*
X127722285Y-91844761D01*
X127674666Y-91797142D01*
G04 #@! TO.C,D4*
X131595904Y-91892380D02*
X131595904Y-90892380D01*
X131834000Y-90892380D01*
X131976857Y-90940000D01*
X132072095Y-91035238D01*
X132119714Y-91130476D01*
X132167333Y-91320952D01*
X132167333Y-91463809D01*
X132119714Y-91654285D01*
X132072095Y-91749523D01*
X131976857Y-91844761D01*
X131834000Y-91892380D01*
X131595904Y-91892380D01*
X133024476Y-91225714D02*
X133024476Y-91892380D01*
X132786380Y-90844761D02*
X132548285Y-91559047D01*
X133167333Y-91559047D01*
G04 #@! TO.C,D5*
X136421904Y-91892380D02*
X136421904Y-90892380D01*
X136660000Y-90892380D01*
X136802857Y-90940000D01*
X136898095Y-91035238D01*
X136945714Y-91130476D01*
X136993333Y-91320952D01*
X136993333Y-91463809D01*
X136945714Y-91654285D01*
X136898095Y-91749523D01*
X136802857Y-91844761D01*
X136660000Y-91892380D01*
X136421904Y-91892380D01*
X137898095Y-90892380D02*
X137421904Y-90892380D01*
X137374285Y-91368571D01*
X137421904Y-91320952D01*
X137517142Y-91273333D01*
X137755238Y-91273333D01*
X137850476Y-91320952D01*
X137898095Y-91368571D01*
X137945714Y-91463809D01*
X137945714Y-91701904D01*
X137898095Y-91797142D01*
X137850476Y-91844761D01*
X137755238Y-91892380D01*
X137517142Y-91892380D01*
X137421904Y-91844761D01*
X137374285Y-91797142D01*
G04 #@! TO.C,D6*
X141247904Y-91892380D02*
X141247904Y-90892380D01*
X141486000Y-90892380D01*
X141628857Y-90940000D01*
X141724095Y-91035238D01*
X141771714Y-91130476D01*
X141819333Y-91320952D01*
X141819333Y-91463809D01*
X141771714Y-91654285D01*
X141724095Y-91749523D01*
X141628857Y-91844761D01*
X141486000Y-91892380D01*
X141247904Y-91892380D01*
X142676476Y-90892380D02*
X142486000Y-90892380D01*
X142390761Y-90940000D01*
X142343142Y-90987619D01*
X142247904Y-91130476D01*
X142200285Y-91320952D01*
X142200285Y-91701904D01*
X142247904Y-91797142D01*
X142295523Y-91844761D01*
X142390761Y-91892380D01*
X142581238Y-91892380D01*
X142676476Y-91844761D01*
X142724095Y-91797142D01*
X142771714Y-91701904D01*
X142771714Y-91463809D01*
X142724095Y-91368571D01*
X142676476Y-91320952D01*
X142581238Y-91273333D01*
X142390761Y-91273333D01*
X142295523Y-91320952D01*
X142247904Y-91368571D01*
X142200285Y-91463809D01*
G04 #@! TO.C,D7*
X146073904Y-91892380D02*
X146073904Y-90892380D01*
X146312000Y-90892380D01*
X146454857Y-90940000D01*
X146550095Y-91035238D01*
X146597714Y-91130476D01*
X146645333Y-91320952D01*
X146645333Y-91463809D01*
X146597714Y-91654285D01*
X146550095Y-91749523D01*
X146454857Y-91844761D01*
X146312000Y-91892380D01*
X146073904Y-91892380D01*
X146978666Y-90892380D02*
X147645333Y-90892380D01*
X147216761Y-91892380D01*
G04 #@! TO.C,D8*
X150899904Y-91892380D02*
X150899904Y-90892380D01*
X151138000Y-90892380D01*
X151280857Y-90940000D01*
X151376095Y-91035238D01*
X151423714Y-91130476D01*
X151471333Y-91320952D01*
X151471333Y-91463809D01*
X151423714Y-91654285D01*
X151376095Y-91749523D01*
X151280857Y-91844761D01*
X151138000Y-91892380D01*
X150899904Y-91892380D01*
X152042761Y-91320952D02*
X151947523Y-91273333D01*
X151899904Y-91225714D01*
X151852285Y-91130476D01*
X151852285Y-91082857D01*
X151899904Y-90987619D01*
X151947523Y-90940000D01*
X152042761Y-90892380D01*
X152233238Y-90892380D01*
X152328476Y-90940000D01*
X152376095Y-90987619D01*
X152423714Y-91082857D01*
X152423714Y-91130476D01*
X152376095Y-91225714D01*
X152328476Y-91273333D01*
X152233238Y-91320952D01*
X152042761Y-91320952D01*
X151947523Y-91368571D01*
X151899904Y-91416190D01*
X151852285Y-91511428D01*
X151852285Y-91701904D01*
X151899904Y-91797142D01*
X151947523Y-91844761D01*
X152042761Y-91892380D01*
X152233238Y-91892380D01*
X152328476Y-91844761D01*
X152376095Y-91797142D01*
X152423714Y-91701904D01*
X152423714Y-91511428D01*
X152376095Y-91416190D01*
X152328476Y-91368571D01*
X152233238Y-91320952D01*
G04 #@! TO.C,J1*
X85010666Y-54697380D02*
X85010666Y-55411666D01*
X84963047Y-55554523D01*
X84867809Y-55649761D01*
X84724952Y-55697380D01*
X84629714Y-55697380D01*
X86010666Y-55697380D02*
X85439238Y-55697380D01*
X85724952Y-55697380D02*
X85724952Y-54697380D01*
X85629714Y-54840238D01*
X85534476Y-54935476D01*
X85439238Y-54983095D01*
G04 #@! TO.C,J2*
X137715666Y-54697380D02*
X137715666Y-55411666D01*
X137668047Y-55554523D01*
X137572809Y-55649761D01*
X137429952Y-55697380D01*
X137334714Y-55697380D01*
X138144238Y-54792619D02*
X138191857Y-54745000D01*
X138287095Y-54697380D01*
X138525190Y-54697380D01*
X138620428Y-54745000D01*
X138668047Y-54792619D01*
X138715666Y-54887857D01*
X138715666Y-54983095D01*
X138668047Y-55125952D01*
X138096619Y-55697380D01*
X138715666Y-55697380D01*
G04 #@! TO.C,J3*
X84756666Y-88479380D02*
X84756666Y-89193666D01*
X84709047Y-89336523D01*
X84613809Y-89431761D01*
X84470952Y-89479380D01*
X84375714Y-89479380D01*
X85137619Y-88479380D02*
X85756666Y-88479380D01*
X85423333Y-88860333D01*
X85566190Y-88860333D01*
X85661428Y-88907952D01*
X85709047Y-88955571D01*
X85756666Y-89050809D01*
X85756666Y-89288904D01*
X85709047Y-89384142D01*
X85661428Y-89431761D01*
X85566190Y-89479380D01*
X85280476Y-89479380D01*
X85185238Y-89431761D01*
X85137619Y-89384142D01*
G04 #@! TO.C,R1*
X117689333Y-80589380D02*
X117356000Y-80113190D01*
X117117904Y-80589380D02*
X117117904Y-79589380D01*
X117498857Y-79589380D01*
X117594095Y-79637000D01*
X117641714Y-79684619D01*
X117689333Y-79779857D01*
X117689333Y-79922714D01*
X117641714Y-80017952D01*
X117594095Y-80065571D01*
X117498857Y-80113190D01*
X117117904Y-80113190D01*
X118641714Y-80589380D02*
X118070285Y-80589380D01*
X118356000Y-80589380D02*
X118356000Y-79589380D01*
X118260761Y-79732238D01*
X118165523Y-79827476D01*
X118070285Y-79875095D01*
G04 #@! TO.C,R2*
X122515333Y-80589380D02*
X122182000Y-80113190D01*
X121943904Y-80589380D02*
X121943904Y-79589380D01*
X122324857Y-79589380D01*
X122420095Y-79637000D01*
X122467714Y-79684619D01*
X122515333Y-79779857D01*
X122515333Y-79922714D01*
X122467714Y-80017952D01*
X122420095Y-80065571D01*
X122324857Y-80113190D01*
X121943904Y-80113190D01*
X122896285Y-79684619D02*
X122943904Y-79637000D01*
X123039142Y-79589380D01*
X123277238Y-79589380D01*
X123372476Y-79637000D01*
X123420095Y-79684619D01*
X123467714Y-79779857D01*
X123467714Y-79875095D01*
X123420095Y-80017952D01*
X122848666Y-80589380D01*
X123467714Y-80589380D01*
G04 #@! TO.C,R3*
X127341333Y-80589380D02*
X127008000Y-80113190D01*
X126769904Y-80589380D02*
X126769904Y-79589380D01*
X127150857Y-79589380D01*
X127246095Y-79637000D01*
X127293714Y-79684619D01*
X127341333Y-79779857D01*
X127341333Y-79922714D01*
X127293714Y-80017952D01*
X127246095Y-80065571D01*
X127150857Y-80113190D01*
X126769904Y-80113190D01*
X127674666Y-79589380D02*
X128293714Y-79589380D01*
X127960380Y-79970333D01*
X128103238Y-79970333D01*
X128198476Y-80017952D01*
X128246095Y-80065571D01*
X128293714Y-80160809D01*
X128293714Y-80398904D01*
X128246095Y-80494142D01*
X128198476Y-80541761D01*
X128103238Y-80589380D01*
X127817523Y-80589380D01*
X127722285Y-80541761D01*
X127674666Y-80494142D01*
G04 #@! TO.C,R4*
X132167333Y-80589380D02*
X131834000Y-80113190D01*
X131595904Y-80589380D02*
X131595904Y-79589380D01*
X131976857Y-79589380D01*
X132072095Y-79637000D01*
X132119714Y-79684619D01*
X132167333Y-79779857D01*
X132167333Y-79922714D01*
X132119714Y-80017952D01*
X132072095Y-80065571D01*
X131976857Y-80113190D01*
X131595904Y-80113190D01*
X133024476Y-79922714D02*
X133024476Y-80589380D01*
X132786380Y-79541761D02*
X132548285Y-80256047D01*
X133167333Y-80256047D01*
G04 #@! TO.C,R5*
X136993333Y-80589380D02*
X136660000Y-80113190D01*
X136421904Y-80589380D02*
X136421904Y-79589380D01*
X136802857Y-79589380D01*
X136898095Y-79637000D01*
X136945714Y-79684619D01*
X136993333Y-79779857D01*
X136993333Y-79922714D01*
X136945714Y-80017952D01*
X136898095Y-80065571D01*
X136802857Y-80113190D01*
X136421904Y-80113190D01*
X137898095Y-79589380D02*
X137421904Y-79589380D01*
X137374285Y-80065571D01*
X137421904Y-80017952D01*
X137517142Y-79970333D01*
X137755238Y-79970333D01*
X137850476Y-80017952D01*
X137898095Y-80065571D01*
X137945714Y-80160809D01*
X137945714Y-80398904D01*
X137898095Y-80494142D01*
X137850476Y-80541761D01*
X137755238Y-80589380D01*
X137517142Y-80589380D01*
X137421904Y-80541761D01*
X137374285Y-80494142D01*
G04 #@! TO.C,R6*
X141819333Y-80589380D02*
X141486000Y-80113190D01*
X141247904Y-80589380D02*
X141247904Y-79589380D01*
X141628857Y-79589380D01*
X141724095Y-79637000D01*
X141771714Y-79684619D01*
X141819333Y-79779857D01*
X141819333Y-79922714D01*
X141771714Y-80017952D01*
X141724095Y-80065571D01*
X141628857Y-80113190D01*
X141247904Y-80113190D01*
X142676476Y-79589380D02*
X142486000Y-79589380D01*
X142390761Y-79637000D01*
X142343142Y-79684619D01*
X142247904Y-79827476D01*
X142200285Y-80017952D01*
X142200285Y-80398904D01*
X142247904Y-80494142D01*
X142295523Y-80541761D01*
X142390761Y-80589380D01*
X142581238Y-80589380D01*
X142676476Y-80541761D01*
X142724095Y-80494142D01*
X142771714Y-80398904D01*
X142771714Y-80160809D01*
X142724095Y-80065571D01*
X142676476Y-80017952D01*
X142581238Y-79970333D01*
X142390761Y-79970333D01*
X142295523Y-80017952D01*
X142247904Y-80065571D01*
X142200285Y-80160809D01*
G04 #@! TO.C,R7*
X146645333Y-80589380D02*
X146312000Y-80113190D01*
X146073904Y-80589380D02*
X146073904Y-79589380D01*
X146454857Y-79589380D01*
X146550095Y-79637000D01*
X146597714Y-79684619D01*
X146645333Y-79779857D01*
X146645333Y-79922714D01*
X146597714Y-80017952D01*
X146550095Y-80065571D01*
X146454857Y-80113190D01*
X146073904Y-80113190D01*
X146978666Y-79589380D02*
X147645333Y-79589380D01*
X147216761Y-80589380D01*
G04 #@! TO.C,R8*
X151471333Y-80589380D02*
X151138000Y-80113190D01*
X150899904Y-80589380D02*
X150899904Y-79589380D01*
X151280857Y-79589380D01*
X151376095Y-79637000D01*
X151423714Y-79684619D01*
X151471333Y-79779857D01*
X151471333Y-79922714D01*
X151423714Y-80017952D01*
X151376095Y-80065571D01*
X151280857Y-80113190D01*
X150899904Y-80113190D01*
X152042761Y-80017952D02*
X151947523Y-79970333D01*
X151899904Y-79922714D01*
X151852285Y-79827476D01*
X151852285Y-79779857D01*
X151899904Y-79684619D01*
X151947523Y-79637000D01*
X152042761Y-79589380D01*
X152233238Y-79589380D01*
X152328476Y-79637000D01*
X152376095Y-79684619D01*
X152423714Y-79779857D01*
X152423714Y-79827476D01*
X152376095Y-79922714D01*
X152328476Y-79970333D01*
X152233238Y-80017952D01*
X152042761Y-80017952D01*
X151947523Y-80065571D01*
X151899904Y-80113190D01*
X151852285Y-80208428D01*
X151852285Y-80398904D01*
X151899904Y-80494142D01*
X151947523Y-80541761D01*
X152042761Y-80589380D01*
X152233238Y-80589380D01*
X152328476Y-80541761D01*
X152376095Y-80494142D01*
X152423714Y-80398904D01*
X152423714Y-80208428D01*
X152376095Y-80113190D01*
X152328476Y-80065571D01*
X152233238Y-80017952D01*
G04 #@! TO.C,U1*
X134366095Y-66635380D02*
X134366095Y-67444904D01*
X134413714Y-67540142D01*
X134461333Y-67587761D01*
X134556571Y-67635380D01*
X134747047Y-67635380D01*
X134842285Y-67587761D01*
X134889904Y-67540142D01*
X134937523Y-67444904D01*
X134937523Y-66635380D01*
X135937523Y-67635380D02*
X135366095Y-67635380D01*
X135651809Y-67635380D02*
X135651809Y-66635380D01*
X135556571Y-66778238D01*
X135461333Y-66873476D01*
X135366095Y-66921095D01*
G04 #@! TO.C,U2*
X109855095Y-66635380D02*
X109855095Y-67444904D01*
X109902714Y-67540142D01*
X109950333Y-67587761D01*
X110045571Y-67635380D01*
X110236047Y-67635380D01*
X110331285Y-67587761D01*
X110378904Y-67540142D01*
X110426523Y-67444904D01*
X110426523Y-66635380D01*
X110855095Y-66730619D02*
X110902714Y-66683000D01*
X110997952Y-66635380D01*
X111236047Y-66635380D01*
X111331285Y-66683000D01*
X111378904Y-66730619D01*
X111426523Y-66825857D01*
X111426523Y-66921095D01*
X111378904Y-67063952D01*
X110807476Y-67635380D01*
X111426523Y-67635380D01*
G04 #@! TO.C,U3*
X81069380Y-67944904D02*
X81878904Y-67944904D01*
X81974142Y-67897285D01*
X82021761Y-67849666D01*
X82069380Y-67754428D01*
X82069380Y-67563952D01*
X82021761Y-67468714D01*
X81974142Y-67421095D01*
X81878904Y-67373476D01*
X81069380Y-67373476D01*
X81069380Y-66992523D02*
X81069380Y-66373476D01*
X81450333Y-66706809D01*
X81450333Y-66563952D01*
X81497952Y-66468714D01*
X81545571Y-66421095D01*
X81640809Y-66373476D01*
X81878904Y-66373476D01*
X81974142Y-66421095D01*
X82021761Y-66468714D01*
X82069380Y-66563952D01*
X82069380Y-66849666D01*
X82021761Y-66944904D01*
X81974142Y-66992523D01*
G04 #@! TD*
M02*
