G04 #@! TF.GenerationSoftware,KiCad,Pcbnew,5.0.2-bee76a0~70~ubuntu16.04.1*
G04 #@! TF.CreationDate,2020-01-13T19:01:32-06:00*
G04 #@! TF.ProjectId,GPRegisters,47505265-6769-4737-9465-72732e6b6963,rev?*
G04 #@! TF.SameCoordinates,Original*
G04 #@! TF.FileFunction,Other,Fab,Top*
%FSLAX46Y46*%
G04 Gerber Fmt 4.6, Leading zero omitted, Abs format (unit mm)*
G04 Created by KiCad (PCBNEW 5.0.2-bee76a0~70~ubuntu16.04.1) date lun 13 ene 2020 19:01:32 CST*
%MOMM*%
%LPD*%
G01*
G04 APERTURE LIST*
%ADD10C,0.100000*%
%ADD11C,0.150000*%
G04 APERTURE END LIST*
D10*
G04 #@! TO.C,C1*
X136251000Y-58495000D02*
X136251000Y-54495000D01*
X133751000Y-58495000D02*
X136251000Y-58495000D01*
X133751000Y-54495000D02*
X133751000Y-58495000D01*
X136251000Y-54495000D02*
X133751000Y-54495000D01*
G04 #@! TO.C,D1*
X119021476Y-89765555D02*
G75*
G03X116689810Y-89765000I-1165476J1500555D01*
G01*
X119356000Y-88265000D02*
G75*
G03X119356000Y-88265000I-1500000J0D01*
G01*
X116689810Y-89765000D02*
X119022190Y-89765000D01*
G04 #@! TO.C,D2*
X121515810Y-89765000D02*
X123848190Y-89765000D01*
X124182000Y-88265000D02*
G75*
G03X124182000Y-88265000I-1500000J0D01*
G01*
X123847476Y-89765555D02*
G75*
G03X121515810Y-89765000I-1165476J1500555D01*
G01*
G04 #@! TO.C,D3*
X128673476Y-89765555D02*
G75*
G03X126341810Y-89765000I-1165476J1500555D01*
G01*
X129008000Y-88265000D02*
G75*
G03X129008000Y-88265000I-1500000J0D01*
G01*
X126341810Y-89765000D02*
X128674190Y-89765000D01*
G04 #@! TO.C,D4*
X131167810Y-89765000D02*
X133500190Y-89765000D01*
X133834000Y-88265000D02*
G75*
G03X133834000Y-88265000I-1500000J0D01*
G01*
X133499476Y-89765555D02*
G75*
G03X131167810Y-89765000I-1165476J1500555D01*
G01*
G04 #@! TO.C,D5*
X138325476Y-89765555D02*
G75*
G03X135993810Y-89765000I-1165476J1500555D01*
G01*
X138660000Y-88265000D02*
G75*
G03X138660000Y-88265000I-1500000J0D01*
G01*
X135993810Y-89765000D02*
X138326190Y-89765000D01*
G04 #@! TO.C,D6*
X140819810Y-89765000D02*
X143152190Y-89765000D01*
X143486000Y-88265000D02*
G75*
G03X143486000Y-88265000I-1500000J0D01*
G01*
X143151476Y-89765555D02*
G75*
G03X140819810Y-89765000I-1165476J1500555D01*
G01*
G04 #@! TO.C,D7*
X147977476Y-89765555D02*
G75*
G03X145645810Y-89765000I-1165476J1500555D01*
G01*
X148312000Y-88265000D02*
G75*
G03X148312000Y-88265000I-1500000J0D01*
G01*
X145645810Y-89765000D02*
X147978190Y-89765000D01*
G04 #@! TO.C,D8*
X150471810Y-89765000D02*
X152804190Y-89765000D01*
X153138000Y-88265000D02*
G75*
G03X153138000Y-88265000I-1500000J0D01*
G01*
X152803476Y-89765555D02*
G75*
G03X150471810Y-89765000I-1165476J1500555D01*
G01*
G04 #@! TO.C,J1*
X87630000Y-56515000D02*
X86995000Y-55880000D01*
X107315000Y-56515000D02*
X87630000Y-56515000D01*
X107315000Y-53975000D02*
X107315000Y-56515000D01*
X86995000Y-53975000D02*
X107315000Y-53975000D01*
X86995000Y-55880000D02*
X86995000Y-53975000D01*
G04 #@! TO.C,J2*
X140462000Y-56515000D02*
X139827000Y-55880000D01*
X155067000Y-56515000D02*
X140462000Y-56515000D01*
X155067000Y-53975000D02*
X155067000Y-56515000D01*
X139827000Y-53975000D02*
X155067000Y-53975000D01*
X139827000Y-55880000D02*
X139827000Y-53975000D01*
G04 #@! TO.C,J3*
X86995000Y-89535000D02*
X86995000Y-87630000D01*
X86995000Y-87630000D02*
X107315000Y-87630000D01*
X107315000Y-87630000D02*
X107315000Y-90170000D01*
X107315000Y-90170000D02*
X87630000Y-90170000D01*
X87630000Y-90170000D02*
X86995000Y-89535000D01*
G04 #@! TO.C,R1*
X119106000Y-77368000D02*
X116606000Y-77368000D01*
X116606000Y-77368000D02*
X116606000Y-83668000D01*
X116606000Y-83668000D02*
X119106000Y-83668000D01*
X119106000Y-83668000D02*
X119106000Y-77368000D01*
X117856000Y-76708000D02*
X117856000Y-77368000D01*
X117856000Y-84328000D02*
X117856000Y-83668000D01*
G04 #@! TO.C,R2*
X122682000Y-84328000D02*
X122682000Y-83668000D01*
X122682000Y-76708000D02*
X122682000Y-77368000D01*
X123932000Y-83668000D02*
X123932000Y-77368000D01*
X121432000Y-83668000D02*
X123932000Y-83668000D01*
X121432000Y-77368000D02*
X121432000Y-83668000D01*
X123932000Y-77368000D02*
X121432000Y-77368000D01*
G04 #@! TO.C,R3*
X128758000Y-77368000D02*
X126258000Y-77368000D01*
X126258000Y-77368000D02*
X126258000Y-83668000D01*
X126258000Y-83668000D02*
X128758000Y-83668000D01*
X128758000Y-83668000D02*
X128758000Y-77368000D01*
X127508000Y-76708000D02*
X127508000Y-77368000D01*
X127508000Y-84328000D02*
X127508000Y-83668000D01*
G04 #@! TO.C,R4*
X132334000Y-84328000D02*
X132334000Y-83668000D01*
X132334000Y-76708000D02*
X132334000Y-77368000D01*
X133584000Y-83668000D02*
X133584000Y-77368000D01*
X131084000Y-83668000D02*
X133584000Y-83668000D01*
X131084000Y-77368000D02*
X131084000Y-83668000D01*
X133584000Y-77368000D02*
X131084000Y-77368000D01*
G04 #@! TO.C,R5*
X137160000Y-84328000D02*
X137160000Y-83668000D01*
X137160000Y-76708000D02*
X137160000Y-77368000D01*
X138410000Y-83668000D02*
X138410000Y-77368000D01*
X135910000Y-83668000D02*
X138410000Y-83668000D01*
X135910000Y-77368000D02*
X135910000Y-83668000D01*
X138410000Y-77368000D02*
X135910000Y-77368000D01*
G04 #@! TO.C,R6*
X143236000Y-77368000D02*
X140736000Y-77368000D01*
X140736000Y-77368000D02*
X140736000Y-83668000D01*
X140736000Y-83668000D02*
X143236000Y-83668000D01*
X143236000Y-83668000D02*
X143236000Y-77368000D01*
X141986000Y-76708000D02*
X141986000Y-77368000D01*
X141986000Y-84328000D02*
X141986000Y-83668000D01*
G04 #@! TO.C,R7*
X146812000Y-84328000D02*
X146812000Y-83668000D01*
X146812000Y-76708000D02*
X146812000Y-77368000D01*
X148062000Y-83668000D02*
X148062000Y-77368000D01*
X145562000Y-83668000D02*
X148062000Y-83668000D01*
X145562000Y-77368000D02*
X145562000Y-83668000D01*
X148062000Y-77368000D02*
X145562000Y-77368000D01*
G04 #@! TO.C,R8*
X152888000Y-77368000D02*
X150388000Y-77368000D01*
X150388000Y-77368000D02*
X150388000Y-83668000D01*
X150388000Y-83668000D02*
X152888000Y-83668000D01*
X152888000Y-83668000D02*
X152888000Y-77368000D01*
X151638000Y-76708000D02*
X151638000Y-77368000D01*
X151638000Y-84328000D02*
X151638000Y-83668000D01*
G04 #@! TO.C,U1*
X136592000Y-62103000D02*
X136592000Y-72263000D01*
X157032000Y-62103000D02*
X136592000Y-62103000D01*
X157032000Y-72263000D02*
X157032000Y-62103000D01*
X136592000Y-72263000D02*
X157032000Y-72263000D01*
X137652000Y-70358000D02*
X136652000Y-69358000D01*
X156972000Y-70358000D02*
X137652000Y-70358000D01*
X156972000Y-64008000D02*
X156972000Y-70358000D01*
X136652000Y-64008000D02*
X156972000Y-64008000D01*
X136652000Y-69358000D02*
X136652000Y-64008000D01*
G04 #@! TO.C,U2*
X112081000Y-62103000D02*
X112081000Y-72263000D01*
X132521000Y-62103000D02*
X112081000Y-62103000D01*
X132521000Y-72263000D02*
X132521000Y-62103000D01*
X112081000Y-72263000D02*
X132521000Y-72263000D01*
X113141000Y-70358000D02*
X112141000Y-69358000D01*
X132461000Y-70358000D02*
X113141000Y-70358000D01*
X132461000Y-64008000D02*
X132461000Y-70358000D01*
X112141000Y-64008000D02*
X132461000Y-64008000D01*
X112141000Y-69358000D02*
X112141000Y-64008000D01*
G04 #@! TO.C,U3*
X82617000Y-62103000D02*
X82617000Y-72263000D01*
X108137000Y-62103000D02*
X82617000Y-62103000D01*
X108137000Y-72263000D02*
X108137000Y-62103000D01*
X82617000Y-72263000D02*
X108137000Y-72263000D01*
X83677000Y-70358000D02*
X82677000Y-69358000D01*
X108077000Y-70358000D02*
X83677000Y-70358000D01*
X108077000Y-64008000D02*
X108077000Y-70358000D01*
X82677000Y-64008000D02*
X108077000Y-64008000D01*
X82677000Y-69358000D02*
X82677000Y-64008000D01*
G04 #@! TD*
G04 #@! TO.C,C1*
D11*
X135358142Y-56661666D02*
X135405761Y-56709285D01*
X135453380Y-56852142D01*
X135453380Y-56947380D01*
X135405761Y-57090238D01*
X135310523Y-57185476D01*
X135215285Y-57233095D01*
X135024809Y-57280714D01*
X134881952Y-57280714D01*
X134691476Y-57233095D01*
X134596238Y-57185476D01*
X134501000Y-57090238D01*
X134453380Y-56947380D01*
X134453380Y-56852142D01*
X134501000Y-56709285D01*
X134548619Y-56661666D01*
X135453380Y-55709285D02*
X135453380Y-56280714D01*
X135453380Y-55995000D02*
X134453380Y-55995000D01*
X134596238Y-56090238D01*
X134691476Y-56185476D01*
X134739095Y-56280714D01*
G04 #@! TO.C,J1*
X96821666Y-54697380D02*
X96821666Y-55411666D01*
X96774047Y-55554523D01*
X96678809Y-55649761D01*
X96535952Y-55697380D01*
X96440714Y-55697380D01*
X97821666Y-55697380D02*
X97250238Y-55697380D01*
X97535952Y-55697380D02*
X97535952Y-54697380D01*
X97440714Y-54840238D01*
X97345476Y-54935476D01*
X97250238Y-54983095D01*
G04 #@! TO.C,J2*
X147113666Y-54697380D02*
X147113666Y-55411666D01*
X147066047Y-55554523D01*
X146970809Y-55649761D01*
X146827952Y-55697380D01*
X146732714Y-55697380D01*
X147542238Y-54792619D02*
X147589857Y-54745000D01*
X147685095Y-54697380D01*
X147923190Y-54697380D01*
X148018428Y-54745000D01*
X148066047Y-54792619D01*
X148113666Y-54887857D01*
X148113666Y-54983095D01*
X148066047Y-55125952D01*
X147494619Y-55697380D01*
X148113666Y-55697380D01*
G04 #@! TO.C,J3*
X96821666Y-88352380D02*
X96821666Y-89066666D01*
X96774047Y-89209523D01*
X96678809Y-89304761D01*
X96535952Y-89352380D01*
X96440714Y-89352380D01*
X97202619Y-88352380D02*
X97821666Y-88352380D01*
X97488333Y-88733333D01*
X97631190Y-88733333D01*
X97726428Y-88780952D01*
X97774047Y-88828571D01*
X97821666Y-88923809D01*
X97821666Y-89161904D01*
X97774047Y-89257142D01*
X97726428Y-89304761D01*
X97631190Y-89352380D01*
X97345476Y-89352380D01*
X97250238Y-89304761D01*
X97202619Y-89257142D01*
G04 #@! TO.C,U1*
X146050095Y-66635380D02*
X146050095Y-67444904D01*
X146097714Y-67540142D01*
X146145333Y-67587761D01*
X146240571Y-67635380D01*
X146431047Y-67635380D01*
X146526285Y-67587761D01*
X146573904Y-67540142D01*
X146621523Y-67444904D01*
X146621523Y-66635380D01*
X147621523Y-67635380D02*
X147050095Y-67635380D01*
X147335809Y-67635380D02*
X147335809Y-66635380D01*
X147240571Y-66778238D01*
X147145333Y-66873476D01*
X147050095Y-66921095D01*
G04 #@! TO.C,U2*
X121539095Y-66635380D02*
X121539095Y-67444904D01*
X121586714Y-67540142D01*
X121634333Y-67587761D01*
X121729571Y-67635380D01*
X121920047Y-67635380D01*
X122015285Y-67587761D01*
X122062904Y-67540142D01*
X122110523Y-67444904D01*
X122110523Y-66635380D01*
X122539095Y-66730619D02*
X122586714Y-66683000D01*
X122681952Y-66635380D01*
X122920047Y-66635380D01*
X123015285Y-66683000D01*
X123062904Y-66730619D01*
X123110523Y-66825857D01*
X123110523Y-66921095D01*
X123062904Y-67063952D01*
X122491476Y-67635380D01*
X123110523Y-67635380D01*
G04 #@! TO.C,U3*
X94829380Y-67944904D02*
X95638904Y-67944904D01*
X95734142Y-67897285D01*
X95781761Y-67849666D01*
X95829380Y-67754428D01*
X95829380Y-67563952D01*
X95781761Y-67468714D01*
X95734142Y-67421095D01*
X95638904Y-67373476D01*
X94829380Y-67373476D01*
X94829380Y-66992523D02*
X94829380Y-66373476D01*
X95210333Y-66706809D01*
X95210333Y-66563952D01*
X95257952Y-66468714D01*
X95305571Y-66421095D01*
X95400809Y-66373476D01*
X95638904Y-66373476D01*
X95734142Y-66421095D01*
X95781761Y-66468714D01*
X95829380Y-66563952D01*
X95829380Y-66849666D01*
X95781761Y-66944904D01*
X95734142Y-66992523D01*
G04 #@! TD*
M02*
